/* XPM */
static char *_3defdcc3cd044e7b65f9d6557996719WrmJfH3LGLbMoiGA[] = {
/* columns rows colors chars-per-pixel */
"50 50 3 1 ",
"  c None",
". c black",
"X c #85E81C",
/* pixels */
"                                                  ",
"                                                  ",
"                                                  ",
"                                                  ",
"                                                  ",
"                                                  ",
"                                                  ",
"                                                  ",
"                                                  ",
"                                                  ",
"                                                  ",
"                                                  ",
"                                                  ",
"                                                  ",
"                                                  ",
"                                                  ",
"                                ..                ",
"                  ...          . ..               ",
"                ......        . .  .              ",
"               ........       ..                  ",
"              ..........      ..                  ",
"             ............ ......                  ",
"             ....................                 ",
"              ................X...                ",
"              .X..................                ",
"              .XXX................                ",
"              .XXXXXXXX...........                ",
"               .XXXXXXX..........                 ",
"                ..XXX.... ......                  ",
"                 .... . .                         ",
"                . .  . .                          ",
"                 .                                ",
"                                                  ",
"                                                  ",
"                                                  ",
"                                                  ",
"                                                  ",
"                                                  ",
"                                                  ",
"                                                  ",
"                                                  ",
"                                                  ",
"                                                  ",
"                                                  ",
"                                                  ",
"                                                  ",
"                                                  ",
"                                                  ",
"                                                  ",
"                                                  "
};
