/* XPM */
static char *_62839c1e41e47bf8584a445d97907bdXiWbeKbhCcPLCFFG[] = {
/* columns rows colors chars-per-pixel */
"50 50 3 1 ",
"  c None",
". c black",
"X c #85E81C",
/* pixels */
"                                                  ",
"                                                  ",
"                                                  ",
"                                                  ",
"                                                  ",
"                                                  ",
"                                                  ",
"                                                  ",
"                                                  ",
"                           ..                     ",
"                          ...                     ",
"                          ...    ...              ",
"                         ....  .....              ",
"                ..       .... ......              ",
"               .. .      ..........               ",
"              .  . .     .........                ",
"              .   ..    .........                 ",
"                  ..   .........X.                ",
"                  ............XXXX.               ",
"                 ..........XXXXXXXX.              ",
"                ...X......XXXXXXXXX.              ",
"                ..........XXXXXXXXX.              ",
"                ..........XXXXXXXXX.              ",
"                ..........XXXXXXXXX.              ",
"                 ..........XXXXXXX.               ",
"                  ...... ....XXX..                ",
"                         . . ....                 ",
"                          . .  . .                ",
"                                .                 ",
"                                                  ",
"                                                  ",
"                                                  ",
"                                                  ",
"                                                  ",
"                                                  ",
"                                                  ",
"                                                  ",
"                                                  ",
"                                                  ",
"                                                  ",
"                                                  ",
"                                                  ",
"                                                  ",
"                                                  ",
"                                                  ",
"                                                  ",
"                                                  ",
"                                                  ",
"                                                  ",
"                                                  "
};
