/* XPM */
static char *_8f0e61eb88042fdcb73827cdc2707e1n5QKjo5UUKwSlPxx[] = {
/* columns rows colors chars-per-pixel */
"50 50 3 1 ",
"  c None",
". c black",
"X c #85E81C",
/* pixels */
"                                                  ",
"                                                  ",
"                                                  ",
"                                                  ",
"                                                  ",
"                                                  ",
"                                                  ",
"                                                  ",
"                                                  ",
"                                                  ",
"                                                  ",
"                                                  ",
"                                                  ",
"                                                  ",
"                                                  ",
"                                                  ",
"                                                  ",
"                                ..                ",
"                               . ..               ",
"                              . .  .              ",
"                .......       ..                  ",
"               .........      ..                  ",
"              ........... ......                  ",
"              ...................                 ",
"              ................X...                ",
"              ....................                ",
"              .X.......X..........                ",
"              .XXX...XX...........                ",
"               .XXXXXXX..........                 ",
"                ..XXX.... ......                  ",
"                 .... . .                         ",
"                . .  . .                          ",
"                 .                                ",
"                                                  ",
"                                                  ",
"                                                  ",
"                                                  ",
"                                                  ",
"                                                  ",
"                                                  ",
"                                                  ",
"                                                  ",
"                                                  ",
"                                                  ",
"                                                  ",
"                                                  ",
"                                                  ",
"                                                  ",
"                                                  ",
"                                                  "
};
