/* XPM */
static char *_ba55d82d5d24bb1a014d5337a706819g5MfqojgopEXCfkD[] = {
/* columns rows colors chars-per-pixel */
"50 50 3 1 ",
"  c None",
". c black",
"X c #85E81C",
/* pixels */
"                                                  ",
"                                                  ",
"                                                  ",
"                                                  ",
"                                                  ",
"                                                  ",
"                                                  ",
"                                                  ",
"                                                  ",
"                                                  ",
"                                                  ",
"                                                  ",
"                                                  ",
"                                                  ",
"                                ..                ",
"                  ....         . ..               ",
"                 ......       . .                 ",
"               .........      ..   .              ",
"              ...........     ..                  ",
"             ...X......... .....                  ",
"             ..XXXX..............                 ",
"              .XXXXXXX........X...                ",
"              .XXXXXXXX...........                ",
"              .XXXXXXXX...........                ",
"              .XXXXXXXX...........                ",
"               .XXXXXXX..........                 ",
"                ..XXX.... ......                  ",
"                 .... . .                         ",
"                . .  . .                          ",
"                 .                                ",
"                                                  ",
"                                                  ",
"                                                  ",
"                                                  ",
"                                                  ",
"                                                  ",
"                                                  ",
"                                                  ",
"                                                  ",
"                                                  ",
"                                                  ",
"                                                  ",
"                                                  ",
"                                                  ",
"                                                  ",
"                                                  ",
"                                                  ",
"                                                  ",
"                                                  ",
"                                                  "
};
