/* XPM */
static char *eb8fde52a1304d8df7b463e37815a8bcwzq44YfAi5BorrIp[] = {
/* columns rows colors chars-per-pixel */
"50 50 3 1 ",
"  c None",
". c black",
"X c #85E81C",
/* pixels */
"                                                  ",
"                                                  ",
"                                                  ",
"                                                  ",
"                                                  ",
"                                                  ",
"                                                  ",
"                                                  ",
"                                                  ",
"                                                  ",
"                                                  ",
"                                                  ",
"                                                  ",
"                                                  ",
"               ..                                 ",
"              .. .         ....                   ",
"                . .       ......                  ",
"             .   ..      .........                ",
"                 ..     ...........               ",
"                 ..... .........X...              ",
"                ..............XXXX..              ",
"               ...X........XXXXXXX.               ",
"               ...........XXXXXXXX.               ",
"               ...........XXXXXXXX.               ",
"               ...........XXXXXXXX.               ",
"                ..........XXXXXXX.                ",
"                 ...... ....XXX..                 ",
"                        . . ....                  ",
"                         . .  . .                 ",
"                               .                  ",
"                                                  ",
"                                                  ",
"                                                  ",
"                                                  ",
"                                                  ",
"                                                  ",
"                                                  ",
"                                                  ",
"                                                  ",
"                                                  ",
"                                                  ",
"                                                  ",
"                                                  ",
"                                                  ",
"                                                  ",
"                                                  ",
"                                                  ",
"                                                  ",
"                                                  ",
"                                                  "
};
