/* XPM */
static char *_b80b9f24e6640f98b7ef8e687315a30KkdrWrdZtCrhsbgc[] = {
/* columns rows colors chars-per-pixel */
"50 50 3 1 ",
"  c None",
". c black",
"X c #85E81C",
/* pixels */
"                                                  ",
"                                                  ",
"                                                  ",
"                                                  ",
"                                                  ",
"                                                  ",
"                                                  ",
"                                                  ",
"                                                  ",
"                                                  ",
"                                                  ",
"                                                  ",
"                                                  ",
"                                                  ",
"                                                  ",
"                                                  ",
"               ..                                 ",
"              .. .          ...                   ",
"             .  . .        ......                 ",
"                 ..       ........                ",
"                 ..      ..........               ",
"                 ...... ............              ",
"                ....................              ",
"               ...X................               ",
"               ..................X.               ",
"               ................XXX.               ",
"               ...........XXXXXXXX.               ",
"                ..........XXXXXXX.                ",
"                 ...... ....XXX..                 ",
"                        . . ....                  ",
"                         . .  . .                 ",
"                               .                  ",
"                                                  ",
"                                                  ",
"                                                  ",
"                                                  ",
"                                                  ",
"                                                  ",
"                                                  ",
"                                                  ",
"                                                  ",
"                                                  ",
"                                                  ",
"                                                  ",
"                                                  ",
"                                                  ",
"                                                  ",
"                                                  ",
"                                                  ",
"                                                  "
};
