/* XPM */
static char *c0f807280b574cc482854419261e5240AeKvjBh4CFpBWUZa[] = {
/* columns rows colors chars-per-pixel */
"50 50 80 1 ",
"  c #030208",
". c #02000B",
"X c #00040B",
"o c #07010D",
"O c #06030E",
"+ c #01060C",
"@ c #02040E",
"# c #05040C",
"$ c #05050D",
"% c #04040E",
"& c #06040F",
"* c #09040B",
"= c #070713",
"- c #0D0713",
"; c #040813",
": c #080814",
"> c #0D0A15",
", c #0E0B16",
"< c #100911",
"1 c #100E14",
"2 c #1D1314",
"3 c #13101B",
"4 c #15121B",
"5 c #16131C",
"6 c #15131E",
"7 c #17141F",
"8 c #18101B",
"9 c #19131F",
"0 c #1D161E",
"q c #1E171F",
"w c #21161A",
"e c #1B1320",
"r c #1A1624",
"t c #1C1922",
"y c #1C1826",
"u c #1E1826",
"i c #221425",
"p c #211A25",
"a c #231B26",
"s c #241728",
"d c #201A28",
"f c #241929",
"g c #261B2B",
"h c #2D1D2A",
"j c #291B2C",
"k c #2F1F2C",
"l c #2F1E2E",
"z c #2D2224",
"x c #2E2425",
"c c #2F2426",
"v c #2E212B",
"b c #2E242F",
"n c #31202D",
"m c #31202E",
"M c #332A2F",
"N c #342B2F",
"B c #3B2730",
"V c #3C2730",
"C c #352C31",
"Z c #3E2A33",
"A c #3F2C32",
"S c #382B35",
"D c #3F2D39",
"F c #492E37",
"G c #412D38",
"H c #432D39",
"J c #432F3A",
"K c #413134",
"L c #41303A",
"P c #44303B",
"I c #46323B",
"U c #40373A",
"Y c #41373B",
"T c #43353C",
"R c #47363C",
"E c #47363E",
"W c #44383C",
"Q c #49393C",
"! c #4C3C3F",
"~ c #4B3A40",
/* pixels */
"%%%%%%%%%%%%%%%%%%%%%%%%%%%%%%%%%%%%%%%%%..ttaw8vx",
"%%%%%%%%%%%%%%%%%%%%%%%%%%%%%%%%%%%%%%%%%..0taw5vv",
"%%%%%%%%%%%%%%%%%%%%%%%%%%%%%%%%%%%%%%%%%XXXX%jfG!",
"%%%%%%%%%%%%%%%%%%%%%%%%%%%%%%%%%%%%%%%%%XX@@%gfGQ",
"%%%%%%%%%%%%%%%%%%%%%%%%%%%%%%%%%%%%%%%%%@X@X#fjHQ",
"%%%%%%%%%%%%%%%%%%%%%%%%%%%%%%%%%%%%%%%%@@X@@7iiHY",
"%%%%%%%%%%%%%%%%%%%%%%%%%%%%%%%%%%%%%%%%@@@%.7fjGY",
"%%%%%%%%%%%%%%%%%%%%%%%%%%%%%%%%%%%%%%%%%%@%@7hjSD",
"%%%%%%%%%%%%%%%%%%%%%%%%%%%%%%%%%%%%%%%%@@@#O0NS5@",
"%%%%%%%%%%%%%%%%%%%%%%%%%%%%%%%%%%%%%%%%%@@#.0NN5X",
"%%%%%%%%%%%%%%%%%%%%%%%%%%%%%%%%%%%%%%%%%@@@%<22 ;",
"%%%%%%%%%%%%%%%%%%%%%%%%%%%%%%%%%%%%%%%%%%O35w!!w*",
"%%%%%%%%%%%%%%%%%%%%%%%%%%%%%%%%%%%%%%%%%%%330!!w*",
"%%%%%%%%%%%%%%%%%%%%%%%%%%%%%%%%%%%%%%%%%%%%ObZZPU",
"%%%%%%%%%%%%%%%%%%%%%%%%%%%%%%%%%%%%%%%%%%%OO-lbPR",
"%%%%%%%%%%%%%%%%%%%%%%%%%%%%%%%%%%%%%%%%%%%OOOllP!",
"%%%%%%%%%%%%%%%%%%%%%%%%%%%%%%%%%%%%%%%%%@@%@OisLR",
"%%%%%%%%%%%%%%%%%%%%%%%%%%%%%%%%%%%%%%%%%@%X.OfsL!",
"%%%%%%%%%%%%%%%%%%%%%%%%%%%%%%%%%%%%%%%%%XX..OffDR",
"%%%%%%%%%%%%%%%%%%%%%%%%%%%%%%%%%%%%%%%%%.o%=6vvAK",
"%%%%%%%%%%%%%%%%%%%%%%%%%%%%%%%%%%%%%%%%%@.%=5vvAK",
"%%%%%%%%%%%%%%%%%%%%%%%%%%%%%%%%%%%%%%%%%%O@@@.@S,",
"%%%%%%%%%%%%%%%%%%%%%%%%%%%%%%%%%%%%%%%%..%==>uuVx",
"%%%%%%%%%%%%%%%%%%%%%%%%%%%%%%%%%%%%%%%%%..==>pfBx",
"%%%%%%%%%%%%%%%%%%%%%%%%%%%%%%%%%%%%%%%%%.@uuhbbFx",
"%%%%%%%%%%%%%%%%%%%%%%%%%%%%%%%%%%%%%%%%%@@trhhnFx",
"%%%%%%%%%%%%%%%%%%%%%%%%%%%%%%%%%%%%%%%%%@X@X%ggG!",
"%%%%%%%%%%%%%%%%%%%%%%%%%%%%%%%%%%%%%%%%@.XX#%ggGQ",
"%%%%%%%%%%%%%%%%%%%%%%%%%%%%%%%%%%%%%%%%@XX@@@ffHQ",
"%%%%%%%%%%%%%%%%%%%%%%%%%%%%%%%%%%%%%%%%%@X@@5iiHW",
"%%%%%%%%%%%%%%%%%%%%%%%%%%%%%%%%%%%%%%%%%@@@OessSU",
"%%%%%%%%%%%%%%%%%%%%%%%%%%%%%%%%%%%%%%%%%@@O*7jjGU",
"%%%%%%%%%%%%%%%%%%%%%%%%%%%%%%%%%%%%%%%%%@@##0CC5.",
"%%%%%%%%%%%%%%%%%%%%%%%%%%%%%%%%%%%%%%%%%@@##0NN5.",
"%%%%%%%%%%%%%%%%%%%%%%%%%%%%%%%%%%%%%%%%%@@%%<22.;",
"%%%%%%%%%%%%%%%%%%%%%%%%%%%%%%%%%%%%%%%%%%@340!!w*",
"%%%%%%%%%%%%%%%%%%%%%%%%%%%%%%%%%%%%%%%%O@@44w!~w*",
"%%%%%%%%%%%%%%%%%%%%%%%%%%%%%%%%%%%%%%%%@O@OObZZPT",
"%%%%%%%%%%%%%%%%%%%%%%%%%%%%%%%%%%%%%%%%%%OOO>llPR",
"%%%%%%%%%%%%%%%%%%%%%%%%%%%%%%%%%%%%%%%%%%@OOollGR",
"%%%%%%%%%%%%%%%%%%%%%%%%%%%%%%%%%%%%%%%%%@@@%OssL!",
"%%%%%%%%%%%%%%%%%%%%%%%%%%%%%%%%%%%%%%%%%@@O@.ssGQ",
"%%%%%%%%%%%%%%%%%%%%%%%%%%%%%%%%%%%%%%%%%....%ffDR",
"%%%%%%%%%%%%%%%%%%%%%%%%%%%%%%%%%%%%%%%%%@@%%7vvZK",
"%%%%%%%%%%%%%%%%%%%%%%%%%%%%%%%%%%%%O@%%O@@@%9vvKK",
"%%%%%%%%%%%%%%%%%%%%%%%%%%%%%%%%%%%%@O%%@O%.%@..S1",
"%%%%%%%%%%%%%%%%%%%%%%%%%%%%%%%%%%%%O@O@...=:>uuVz",
"%%%%%%%%%%%%%%%%%%%%%%%%%%%%%%%%%%%%@O@O@@;::>puVx",
"%%%%%%%%%%%%%%%%%%%%%%%%%%%%%%%%%%%%%%%%%@@uuhlnFx",
"%%%%%%%%%%%%%%%%%%%%%%%%%%%%%%%%%%%%%%%%%.@9rhllFx"
};
