/* XPM */
static char *d1627be42c7d4c15f17e761768d04576XZvuoI0R0sYZJw4q[] = {
/* columns rows colors chars-per-pixel */
"50 50 150 2 ",
"   c #090307",
".  c #020008",
"X  c #07050A",
"o  c #04040E",
"O  c #08030A",
"+  c #09060F",
"@  c #0A070E",
"#  c #11050F",
"$  c #10090F",
"%  c #070711",
"&  c #090611",
"*  c #0B0811",
"=  c #0F0A10",
"-  c #0E0816",
";  c #100910",
":  c #120D11",
">  c #120C14",
",  c #140D15",
"<  c #1B0F1B",
"1  c #141218",
"2  c #15111C",
"3  c #15121D",
"4  c #1C101A",
"5  c #19141B",
"6  c #1C161A",
"7  c #1B121C",
"8  c #1A121D",
"9  c #1B151F",
"0  c #1A171E",
"q  c #1C161F",
"w  c #1C1A1D",
"e  c #220D1E",
"r  c #20141E",
"t  c #1B1020",
"y  c #1A1323",
"u  c #1B1323",
"i  c #191621",
"p  c #1B1523",
"a  c #1D1522",
"s  c #1F1926",
"d  c #231522",
"f  c #221622",
"g  c #241723",
"h  c #221727",
"j  c #211A27",
"k  c #241927",
"l  c #291924",
"z  c #281B25",
"x  c #281926",
"c  c #211A28",
"v  c #251829",
"b  c #2A1C29",
"n  c #281D2B",
"m  c #2E1E2B",
"M  c #2B1A2C",
"N  c #30192B",
"B  c #311C2B",
"V  c #341E2B",
"C  c #351F2B",
"Z  c #361F2F",
"A  c #2E1D30",
"S  c #341F32",
"D  c #311E34",
"F  c #2C202C",
"G  c #2E202F",
"H  c #3A2125",
"J  c #3D2227",
"K  c #32272B",
"L  c #32222F",
"P  c #36202C",
"I  c #34242E",
"U  c #38212B",
"Y  c #3C2329",
"T  c #3B242A",
"R  c #3D242A",
"E  c #39212F",
"W  c #3D232C",
"Q  c #3A272E",
"!  c #3C272C",
"~  c #3C252F",
"^  c #3B282E",
"/  c #3D2A2E",
"(  c #2C2232",
")  c #2D2233",
"_  c #2A2432",
"`  c #2F2432",
"'  c #362132",
"]  c #392232",
"[  c #3B2531",
"{  c #3F2530",
"}  c #3D2631",
"|  c #3D2733",
" . c #3F2335",
".. c #3C2535",
"X. c #3B2A32",
"o. c #3C2B32",
"O. c #3C2B33",
"+. c #3C2D32",
"@. c #3A2834",
"#. c #3B2935",
"$. c #40252C",
"%. c #432A2E",
"&. c #422C2E",
"*. c #402335",
"=. c #422B31",
"-. c #412A32",
";. c #452C30",
":. c #462D31",
">. c #452B36",
",. c #412C35",
"<. c #472E34",
"1. c #462C37",
"2. c #423137",
"3. c #453037",
"4. c #4B3132",
"5. c #4D3332",
"6. c #4C3432",
"7. c #4E3433",
"8. c #4B3236",
"9. c #4C3336",
"0. c #4F3534",
"q. c #4E3435",
"w. c #4D3735",
"e. c #4D3835",
"r. c #4C3837",
"t. c #473438",
"y. c #4C3339",
"u. c #4A3738",
"i. c #4B373A",
"p. c #4E353B",
"a. c #4A353E",
"s. c #4A3838",
"d. c #4C3839",
"f. c #4F3C3E",
"g. c #503B36",
"h. c #503639",
"j. c #50373A",
"k. c #503B38",
"l. c #523D38",
"z. c #533E39",
"x. c #533E3B",
"c. c #4F3F42",
"v. c #553F41",
"b. c #504043",
"n. c #594443",
"m. c #5C4442",
"M. c #594248",
"N. c #5F4649",
"B. c #614E4E",
"V. c #6A5A5A",
/* pixels */
"K K K K K K K L j c u d K ! L j u e e.i.4.2.K O.i.W e q t K ! L j t K ! ' s t e q 6 K K K K K K K K ",
"K K K K K @.@.d.w.w.9.5.@.M.i.w.9.<.w.9.5.2.X.a.z.g.< q i @.M.i.w.9.| M.s.e.y.K } y.T e K K K K K K ",
"K K K K K @.@.d.w.w.9.w.@.M.i.w.w.2.O V B 2 X.u.w.V 2 7 K +.a.h.x.g.X.v.i.z.g.O.M.w.9.2.K K K K K K ",
"K K K K 6 o.o.&.w.0.V B o.u.%.w.V 2 > V B 2 8 n 9.*.  B.7.o.d.&.w.M X.d.&.w.V o.i.w.V 2 6 6 K K K K ",
"K K K K 6 o.o.&.w.w.V N o.w.%.5.V > c.9.;.> x.>.] N # r.z.X.s.%.5.V O.d.%.5.| @.d.5.' > f.%.K K K K ",
"K K K K ! L c u f 5.S a X.i.%.5.] $ v.8.%.O B.5.-.n.7 } } | i.o.1.N ..d.-.1.M @.d.0.!   B.4.6 K K K ",
"K K 6 @.M.d.w.9.4.2.} i @.i.-.1.N # u.v.x.# u.z./ P r -.L ' 2.U ,.,.o.i.-.1.M } d.I ! ' j i f 6 K K ",
"K K 6 @.M.d.w.9.4.2.N v X.e.-.1.N # t.v.x.r R ! b *.5 T U ) o.,.m.m.) o.-.n.n.( o.o.M.d.e.8.5.2.K K ",
"K v 6 o.u.%.w.V B 2 ,.E ) O.,.m.n.< o.E ] < } } a m o q r ) ! ' 0.*._ O.S w.| _ o.@.M.e.w.9.4.8.6 K ",
"K v ' c a u f V B 2 7 n ) O.S w.} < } ! W K K ! ' j i t f e } ! h.*._ ! ] 9.' m } o.u.&.w.V M 2 6 K ",
"v @.s.e.7.w.7.2.a $ x.;.! } Z w...8 } ! ] o.O.M.r.e.e.y.4.2.2.S R L G o.] y.*.( ' X.i.%.5.] a $ x.:.",
"v @.s.e.w.8.5.2.i   B.8.-.*.] u.*.8 ! H V X.] M.s.r.7.e.4.2.y.v J m 8 % z T B ' + O.i.%.5.] a + c.;.",
"v +.%.e.8.P N 2 v # i.z.-.I ] $.' 9 X.U o.o.N u.%.w.9.V M 2 2 : f h ) 5 = z h ) ) @.s.-.1.M x # u.k.",
"v X.%.5.7.] a $ f.;.} R n & k J m o * / f ,.N u.%.0.0.V B 2 2 7 G M ) ) > f f ) ) X.d.-.1.N v # u.x.",
"v o.%.5.w.E a $ f.;.} N K ' L j u i f + ) ,.B d.%.5.w.] a $ $ x.9.5.} ) ! } i & ) ) +.,.M.m.;.< } R ",
"v @.-.1.*.N k # s.x.O.M o.w.u.w.7.8.5.2.) ,.O.d.&.0.8.! i O O B.0.5.o.U ) ) ! ' c c u u h @.S 8 } ] ",
"K N } ' c j u u d x.%.N @.d.i.w.7.w.5.,.X ,.@.w.-.1.$.N v # a.w.v.z.-.W ) ..} ;.f.y.T W M e S 8 ! E ",
"K M o.;.y.y.W W M e i M o.&.%.w.e.V N 2 , ) ) 2.V 3.o.-.) ) ! ' c c q u f e M.i.w.w.9.9.5.2.m 8 ! U ",
"] z M.i.g.w.9.9.5.2.t O.,.&.&.w.e.V B 2 , ) ) o.,.m.B.M.) X.X.-.i.h.i.T M e e u.z.z.g.k./ < . 9 ! o.",
"+.z j.h.z.g.k.g./ < . o.,.%.%.7.7.) ) > v.) ) +.] w.5.} @.| a i.w.0.0.9.5.2.2.%.w.0.V V F 3 > & 7 r ",
"+.z u.%.9.h.V V B 2 , @.,.=.;.0.9.) ( ! ' L k a u u f e @.@.a s.w.w.w.y.4.2.,.& h.9.B V B 1 , 8 m K ",
"o.z s.&.w.w.V V B 2 , @.=.o.-.1.$.) @.| &.-.y.a.W T M e O.a a -.a w.w.V B 2 2 > 5.5.' ] a $ b.h.;.;.",
"O.z s.%.5.5.] S a > b.' ' P ] 1.-.| ] M.s.d.e.w.9.9.a 2.o.a a K a a j h i i u > B n I } i O V.B.9.5.",
"@.z d.;.w.5.! ! 9 X V._ ) ,.,.m.B.| @.M.s.s.e.g.9.u a 2.o.a K / a a j j q u u f e ;.;.o.v # u.u.z.x.",
"O.z u.%.1.O.B M v # y._ ) P Z 0.e.O.X.u.%.%.0.0.a a i ' L s s i u u w.y.a.T W M e e ;.} v # 2.u.x.x.",
"K z ! ' ' s a u t f e _ ( ] V i.u.O.O.r.%.>.w.w.a a ! ' L s j i u u f e 0.9.8.5.2.2.x./ <.< o.} ! } ",
"K ] O.3.>.i.h.! W M e m a @.S y.%.o.X.u.%.%.5.9.a O...;.>.i.e.i.$.W M e e 9.9.5.2.2.X %.<.< } } ] ! ",
"> | M.s.w.w.0.9.u.9.2.) a a K ) ' j s 9 u i 5.w...X.M.d.w.w.w.0.9.9.:.2.t.k.k.! < 7 . M S u X.! ! Z ",
"z ..) s.u.w.w.w.w.5.,.7 u u ! ) L j j q u u f e @.O.M.d.i.w.w.0.w.9.5.2.2.X P B 2 2 > a m q / >.Z W ",
"z +.) %.K K T S c v u i d e O.%.-.u.y.i.W W M e e ) a.i.h.z.z.x.x.e./ < 7 . V B 2 2 , 8 B b K ! E Z ",
"z O.a %.K o.o.>.i.y.y.W M e e u.d.e.w.0.9.9.5.2.2.) s.&.%.0.w.9.V V N 2 1 > ' a > $ v.c.w.>.:.] U U ",
"z o.u -.@.X.M.w.e.e.0.9.5.2.u.d.d.e.w.0.9.8.4.2.2.O r.&.%.w.0.0.E V B 2 2 : i m z F c.f.w.:.:.! K r ",
"> O.i %.@.@.) s.e.e.0.w.4.<.2.o i.z.z.k.k.k./ < 7 . r.%.%.5.5.e.E V a > $ c.f.8.;.;.E B.w.5.5.o.+.r ",
"$ | a -.o.+.) %.0.u.0.V N 2 2 > &.w.0.w.P V B 2 8 , r.%.%.5.5.7.] ] a $ | v.f.8.;.;.*.K v.z.z.-.k K ",
"= X.a -.O.O.s.&.0.9.w.V N 2 2 , m n K 8.V V B 2 2 > 8 G M K 0.9.} ! i O ] V.B.w.0.w./ o.z.z.z.-.g K ",
"= ) <.L X.o.s.%.w.9.0.] a = = v.8.4.%.} E ] u $ = c.f.7.;.;.} } N N v # ! u.i.v.z.z.-.z ! R R M 9 K ",
"= ) ..,.o.o.s.%.5.0.w.] a > $ c.0.:.:.} ] ] a = c.b.x.y.;.;.! K N N x # ! t.d.v.z.z./ z ] } } i o ^ ",
"k ) o.E O.X.w.-.1.1.$.N v # # 2.v.x.x.-.| } i v.b.V.B.0.5.w.*.O.,.,.E 4 ! o.R ] T T M u R R } a o 5 ",
"z ) o.S O.@.u.-.1.1.*.N v # u.y.v.z.x.%.M N v # b.t.s.v.x.x.o.z M.n.>.< W O.} W } ! i & R P ] < + 5 ",
"z _ ! ] ) S 2.' y.-.} &.L 9 8.X.T T T z N N v # b.t.u.v.x.x.%.z m.m.1.7 ] } } W ] } 0 % ! E ] t & K ",
"z G o.] ) ) o.1.n.n.B.v.:.< y.X.! *.E q -.,.E < v.} W T W W M u *.@.S 8 t.} } ! E R t % 8.E E 8 & K ",
"z G L ] ) ) o.Z 7.7.u...S < t.} T U E 7 n.n.<.< | o.} ! ! ! i % ..@.A 8 t.X.! R U E t & P H L A - K ",
"5 7 & k ) ) o.S e.w.w.*.S < 8 } ! E Z u n.M.1.8 i -.*.T ! } u o N ' A a t.o.%.9.E E 7 & H E P m - K ",
"K 7 & k _ _ ! ] k.w.9.V m q q X.y.Z W < } O.S t 9 } ! T ] Z t &  . .m 8 t.! K H U U A - J } o.j & K ",
"K K 5 $ G G o.] h.y.%...A 8 5 ! H E P n | ' S 8 7 / } ! U T u O  .*.m 8 t.! ! H U U n - R r r O . K ",
"K K K K _ B I ' $.$.y.' S i 9 X.W o.o.k B ' M q r / -.9.E E u + V S S a 9 X.I T -.X.j * } q 7 % . K ",
"K K K K 7 1 @ l T T &.B f o o * / r r o *.*.A q 5 ^ R H U U n - m m f o % & 8 ! r r o . + + K K K K ",
"K K K K K 7 @ l V $.=.m f o o * } r r o } *.m 5 7 ! } H E L m - m m f o O & 7 } r r o . K K K K K K ",
"K K K K K K 6 > z z m v + w w K @ X K K P ' ' 9 9 X.! P O.O.v + k k + w w K 1 & X K K K K K K K K K ",
"K K K K K K K K d f n a K K K K K K K K B B f o o $ 1 | r 6 o . a f K K K K K K K K K K K K K K K K "
};
