/* XPM */
static char *_ef3d4172400473be901d67606f7fd2a8nezHDYbp3QGE8m6[] = {
/* columns rows colors chars-per-pixel */
"50 50 114 2 ",
"   c #090307",
".  c #04040E",
"X  c #09060D",
"o  c #0A080D",
"O  c #12050F",
"+  c #10090F",
"@  c #050510",
"#  c #090511",
"$  c #0C0A13",
"%  c #0E0C19",
"&  c #130612",
"*  c #120C14",
"=  c #1A0F17",
"-  c #130E19",
";  c #1A0F1A",
":  c #15121C",
">  c #1B131C",
",  c #1D191D",
"<  c #220D1E",
"1  c #20151D",
"2  c #22191E",
"3  c #171520",
"4  c #1C1421",
"5  c #1F1925",
"6  c #221623",
"7  c #231A25",
"8  c #2A1C25",
"9  c #241729",
"0  c #251B29",
"q  c #2C1D2B",
"w  c #301C25",
"e  c #321E2C",
"r  c #2D1E32",
"t  c #311F33",
"y  c #2D212A",
"u  c #3C2226",
"i  c #32252C",
"p  c #3B242D",
"a  c #3E292E",
"s  c #2D2231",
"d  c #352331",
"f  c #3B2532",
"g  c #372A31",
"h  c #3C2933",
"j  c #3D2C38",
"k  c #401C29",
"l  c #41252A",
"z  c #40252C",
"x  c #44262E",
"c  c #432B2B",
"v  c #412B2D",
"b  c #46292E",
"n  c #472B2F",
"m  c #472F2E",
"M  c #412730",
"N  c #412534",
"B  c #412734",
"V  c #432B33",
"C  c #432D30",
"Z  c #462D33",
"A  c #422937",
"S  c #452B34",
"D  c #472D35",
"F  c #482F33",
"G  c #412B38",
"H  c #432E3A",
"J  c #442E39",
"K  c #473231",
"L  c #433035",
"P  c #473134",
"I  c #483331",
"U  c #4B3333",
"Y  c #4B3334",
"T  c #4B3435",
"R  c #4D3535",
"E  c #4C3734",
"W  c #4F3735",
"Q  c #4D3437",
"!  c #4D3836",
"~  c #41303A",
"^  c #453039",
"/  c #47323B",
"(  c #4A3339",
")  c #4C3138",
"_  c #4B3538",
"`  c #4B3439",
"'  c #4E3538",
"]  c #4F3439",
"[  c #4D393A",
"{  c #4F383E",
"}  c #4E3B3F",
"|  c #503635",
" . c #503636",
".. c #513937",
"X. c #513738",
"o. c #503739",
"O. c #50373A",
"+. c #533C3B",
"@. c #53393C",
"#. c #503A3D",
"$. c #4D3241",
"%. c #483440",
"&. c #493842",
"*. c #503D41",
"=. c #513F42",
"-. c #553F41",
";. c #504043",
":. c #584342",
">. c #5B4443",
",. c #5C4449",
"<. c #59494A",
"1. c #5A4A4B",
"2. c #614E4E",
"3. c #6A5A5A",
/* pixels */
". . . . . @ . . @ . . . @ . . . . . . . . . . . . . . . . . . . . . . . @ . . r - & . . 5 q i z 9 6 ",
". . @ . . . . . . . . . . . . @ . @ . . . @ . @ . . @ . . @ . @ . . . . @ . . s - & . . 4 e e h 8 6 ",
". @ . . . . . @ . . . . . . . . @ . @ . . . @ . @ . . . . . . . . . @ . . # % 0 j J   . 0 s e f q y ",
". . . . @ . . . . @ . . . @ . . . . . . . . . . . . @ . @ . . @ . . . @ . 6 4 q g h   . 5 r r f 8 y ",
". . . . . . . @ . . . . . . @ . . . . . @ . . . . . @ . . @ . . .   . @ . 5 4 q h J   . 5 r r f 8 y ",
". . @ . . . . . . @ . @ . . . . . . . . . . . @ . . . . . . @ . . . % % d $.$.$.d p . . 4 r d f 8 6 ",
". @ . . . . . . . . @ . @ . . . @ . . . . . . . @ . . . . . . . . . # # 8 f G H f d . . : s r p 8 7 ",
". . @ . . . @ . . . . . . . . @ . . . @ . @ . . . . . @ . @ . . . . @ @ 6 f a N f p @ . > s s h 8 8 ",
". . . . . . . . . . . . . . . . . . . . @ . . . . . . . . . . . 5 s - * - r r f d p . @ 7 d e d 8 8 ",
". @ . @ . . . . . . @ . . . . . . @ . . @ . . . . @ . . . . . . 4 s * - - r r f d t . . 5 q r d 8 8 ",
". . . @ . . . . . . . . . . . . . . . . . . . . . . . . @ # . : 8 q &.%.% 0 0 d y s @ @ : q q r y y ",
"3 : y 7 ; 4 4 4 4 q # X - 5 5 > : 4 : > 4 0 0 t 7 , : > . i y p h H / / & 0 q h q 8 $ # 3 5 5 r 8 8 ",
"3 : 8 8 > > 4 > ; q # # ; 6 5 > 4 4 4 : > 0 0 d 8 5 4 > X i i t h H J J $ r 0 f 8 8 $ $ : 5 5 r 8 8 ",
"O.; <.<...D F b Z @.X   :.v v v f f M a j 6 6 &.} ' _ ' q / ) ) D S f f % 0 r y $ . 3 : 6 5 6 8 , 2 ",
"..0 ;.=.m K K z z p # @ ' K K U Y U z M 0 4 > J Y ' Y Y e N f M M M d d * q y y - $ 5 5 d p i p y 8 ",
"W q } } c K K p p w # # _ W W [ ' O.a v 4 > 4 h K O.Y W i e N z p p g i % y 0 y - % 0 0 f f f V i i ",
"| q { { l V x f t r . . _ E Y ' W ) p p 4 4 4 i a D O.] q e e t p d q r * - : , > > i e f e p N i i ",
"| 0 { { u l x e e q @ . ) Y W W ) W i p 4 4 5 i a V ' F r q q d f f q e - : : , > > p e f p e N i v ",
"M q } { O . . q q 0   . a ! W ) ' ' q q : : -     & O & 9 e e t t e q e - : : . 6 y f p f p a h i i ",
"f . . . e t t X X * $ $ G #.+.p h D 0 0 - 0 q t d d q r 4 h N e e e 6 4 # . . @ ; > ~ ~ _ H ) e i , ",
"g . . . r d d X # * # $ M } @.p f ) 0 0 - q q p d d r q > f f t e e 6 4 # . . # : > H j %._ ) p 2 i ",
"1.. ' ' V ' ' > * # . . Y [ } f p f : : @.;.+...W W v v A J S * 4 r f p 8 $ $ 3 5 6 r q 8 a p f i 2 ",
"d v ' &.Y a h ; - . .   _ } } f f f : : D W ] | Y W S b S f h - 4 q i i @ : : 4 6 5 8 8 6 p h e i 2 ",
"y | [ [ W h p > : . .   ' [ } f f f : : h ) ) ) W E x S S d f * 6 q q i @ 3 3 6 6 1 8 8 5 a p i 8 i ",
"4 G } } p i t 5 5 4 3 4 4 ] ) e r f : : f D D F Y E j f f h d % 4 y y y % 5 0 f f h M h i h a d 2 i ",
"4 G } _ p i d 9 7 4 4 4 6 / Y p e f : : h / ) ) Y Y f f h d d - , y y 5 % 0 9 h f f h h i z p d 8 2 ",
"q h h j h M h W ' ' p p r < < q e N - : d f f ] V a f h f q q - - : , : : p i f p p N N i 5 > 7 o o ",
"6 1.h h ,.[ [ ! W W ) Y D J L . > N : 3 d f f f f f A D t r q - : : .   y p f f p p M h w i i i o o ",
"7 <.h h ,.[ [ W W W W W Y J j   ; f : : d f f f f h N S e e e - : : . . y i p f p p f A i e i w o o ",
"s y g h / ' } ! W +.E ..a > > . & r o X t / $.t e 8 ' W e 6 4 $ @ . X @ > y 8 ] J / e p w i i 8 o   ",
"4 4 h h [ v v ! | W e e w : - * > y 0 0 & q e e e w O.O.p 8 8 $ % 3 5 4 q 5 6 a M l f f 8 8 8 y o o ",
"4 4 h g [ V v W | | e e e : 3 * > y 0 q & q q e e t O.| i 8 0 # % 3 9 4 r 2 6 h p a f e q 8 8 y o o ",
"4 y h g [ a v R U | e N 6 & X =.} R m V f f d t e q a l q   . : 5 6 1 6 8 i q d f f e y q w y o , , ",
"0 q h h [ c b R U R M t 4 & & =.} W v U f d d e q q p l q . . 4 5 6 6 6 8 i i f f f e 8 q q q o , , ",
"0 4 g g [ J V W U W p e :     3.2.W U W z f f e e q c l > % % 9 d f f h h i i g p v f d o o   2 , , ",
"4 r j j [ M z D Z l e w 0 O & / E :.+.+.V 8 8 r r q m m v : > i f f i u V w i a l l o X > 2 2 2 i i ",
"4 r j h [ h a J S f e w 0 & O / [ :...+.h 8 8 r q r S b Z > > p p f p e f i p p l l   o > 2 2 2 i i ",
"4 4 d s j p p / S h G j p > > h p u p p 8 3 4 q w 9 l k O.y y p e f p p A 0 0 k * o , 1 6 2 2 i i i ",
"j 9 s s g D V >.>.2.>.:.D ; ; h h p p f 4 @ @ 0 9 8 D / p > > ~ / %._ _ e 8 q k O   > > 2 i i i g i ",
"A 4 s s h A h >.@.2.>.>.F ; ; N f p f f 4 . @ 0 8 8 D ) u > > J $.) ) / p q w k * o > 2 2 i i i i i ",
"U s s s S e e ) | | f f t 4 4 f p p p p 4 @ # 5 > > p p f 4 , : y a a p i w w u 1 1 2 2 2 i i i i i ",
"K 0 s s f f e  .| W f h t 4 > f h p p p 4 @ # 4 > : p p f > 4 > w a p a a w 8 w < > 2 2 2 i i h i i ",
"O.4 s s f f t O.| ) e e q , > M b U f e ; # # q 7 > b b f : - > q f p f i 2 i o > 2 2 2 i i i i i i ",
"W 4 s s f f f #.) V M N r - > a p u e p r # % 4 ; - w q h * * : 0 g a a a o o 2 i i i i i i i i i i ",
") 5 q s f f f | ] b N N r > > p p u i u q $ % > - - w w j & * : y d h p i o o , i i i i i i g i i i ",
"u G r s p t t l a ] t t t , > h a u f h 9 # # o : 5 q q 6 > > o . o > , , , , , i i i i i i i i i g ",
"u K > : X 8 2 l e n y e 6 . . $ ; f > , . .   : > : & $ X X   1 > > 2 2 , I i i i i i i g i i i i i ",
"u W = > o 8 8 e l F 8 q 6 . . $ > p 6 > .     , > : + $ o o o > 1 1 2 2 , i i i i i i i i i i i i i ",
"i X , , = + + 8 8 y 8 0 o , , , : o     , , 2 , , = 2 2 , = 1 2 1 2 i i i i i i i i i i i i g i i i ",
"y + = , , + * 2 6 y 4 4 $ , , , : o o o > 2 , 2 , , 2 1 = , > 2 2 8 i i i i i i i g i i i i i i i i "
};
