/* XPM */
static char *result[] = {
/* columns rows colors chars-per-pixel */
"50 50 5 1 ",
"  c black",
". c #6B8080",
"X c #879F9E",
"o c #A8BBBB",
"O c None",
/* pixels */
"OOOOOOOOOOOOOOOOOOOOOOOOOOOOOOOOOOOOOOOOOOOOOOOOOO",
"OOOOOOOOOOOOOOOOOOOOOOOOOOOOOOOOOOOOOOOOOOOOOOOOOO",
"OOOOOOOOOOOOOOOOOOOOOOOOOOOOOOOOOOOOOOOOOOOOOOOOOO",
"OOOOOOOOOOOOOOOOOOOOOOOOOOOOOOOOOOOOOOOOOOOOOOOOOO",
"OOOOOOOOOOOOOOOOOOOOOOOOOOOOOOOOOOOOOOOOOOOOOOOOOO",
"OOOOOOOOOOOOOOOOOOOOOOOOOOOOOOOOOOOOOOOOOOOOOOOOOO",
"OOOOOOOOOOOOOOOOOOOOOOOOOOOOOOOOOOOOOOOOOOOOOOOOOO",
"OOOOOOOOOOOOOOOOOOOOOOOOOOOOOOOOOOOOOOOOOOOOOOOOOO",
"OOOOOOOOOOOOOOOOOOOOOOOOOOOOOOOOOOOOOOOOOOOOOOOOOO",
"OOOOOOOOOOOOOOOOOO                OOOOOOOOOOOOOOOO",
"OOOOOOOOOOOOOOOOOO                OOOOOOOOOOOOOOOO",
"OOOOOOOOOOOOOOOO  oooooooooooooooo  OOOOOOOOOOOOOO",
"OOOOOOOOOOOOOOOO  oooooooooooooooo  OOOOOOOOOOOOOO",
"OOOOOOOOOOOOOOOO  ..ooXXXXooooooXX  OOOOOOOOOOOOOO",
"OOOOOOOOOOOOOOOO  ..ooXXXXooooooXX  OOOOOOOOOOOOOO",
"OOOOOOOOOOOOOOOO  ..oo    oooooo    OOOOOOOOOOOOOO",
"OOOOOOOOOOOOOOOO  ..oo    oooooo    OOOOOOOOOOOOOO",
"OOOOOOOOOOOOOOOO  ..oo    oooooo    OOOOOOOOOOOOOO",
"OOOOOOOOOOOOOOOO  ..oo    oooooo    OOOOOOOOOOOOOO",
"OOOOOOOOOOOOOOOO  ..ooXXXXooooooXX  OOOOOOOOOOOOOO",
"OOOOOOOOOOOOOOOO  ..ooXXXXooooooXX  OOOOOOOOOOOOOO",
"OOOOOOOOOOOOOOOO  XXoo  oo  oo  ooXXOOOOOOOOOOOOOO",
"OOOOOOOOOOOOOOOO  XXoo  oo  oo  ooXXOOOOOOOOOOOOOO",
"OOOOOOOOOOOOOOOO    XX      oo  XX  OOOOOOOOOOOOOO",
"OOOOOOOOOOOOOOOO    XX      oo  XX  OOOOOOOOOOOOOO",
"OOOOOOOOOOOOOO              XX        OOOOOOOOOOOO",
"OOOOOOOOOOOOOO              XX        OOOOOOOOOOOO",
"OOOOOOOOOOOO                            OOOOOOOOOO",
"OOOOOOOOOOOO                            OOOOOOOOOO",
"OOOOOOOOOOOO    XX      XX              OOOOOOOOOO",
"OOOOOOOOOOOO    XX      XX              OOOOOOOOOO",
"OOOOOOOOOOOO    XX  XX  oo  XX  XX  XX  OOOOOOOOOO",
"OOOOOOOOOOOO    XX  XX  oo  XX  XX  XX  OOOOOOOOOO",
"OOOOOOOOOOOO  ......XXXXoooooooooooooo  OOOOOOOOOO",
"OOOOOOOOOOOO  ......XXXXoooooooooooooo  OOOOOOOOOO",
"OOOOOOOOOOOO                            OOOOOOOOOO",
"OOOOOOOOOOOOOOOOOOOOOOOOOOOOOOOOOOOOOOOOOOOOOOOOOO",
"OOOOOOOOOOOOOOOOOOOOOOOOOOOOOOOOOOOOOOOOOOOOOOOOOO",
"OOOOOOOOOOOOOOOOOOOOOOOOOOOOOOOOOOOOOOOOOOOOOOOOOO",
"OOOOOOOOOOOOOOOOOOOOOOOOOOOOOOOOOOOOOOOOOOOOOOOOOO",
"OOOOOOOOOOOOOOOOOOOOOOOOOOOOOOOOOOOOOOOOOOOOOOOOOO",
"OOOOOOOOOOOOOOOOOOOOOOOOOOOOOOOOOOOOOOOOOOOOOOOOOO",
"OOOOOOOOOOOOOOOOOOOOOOOOOOOOOOOOOOOOOOOOOOOOOOOOOO",
"OOOOOOOOOOOOOOOOOOOOOOOOOOOOOOOOOOOOOOOOOOOOOOOOOO",
"OOOOOOOOOOOOOOOOOOOOOOOOOOOOOOOOOOOOOOOOOOOOOOOOOO",
"OOOOOOOOOOOOOOOOOOOOOOOOOOOOOOOOOOOOOOOOOOOOOOOOOO",
"OOOOOOOOOOOOOOOOOOOOOOOOOOOOOOOOOOOOOOOOOOOOOOOOOO",
"OOOOOOOOOOOOOOOOOOOOOOOOOOOOOOOOOOOOOOOOOOOOOOOOOO",
"OOOOOOOOOOOOOOOOOOOOOOOOOOOOOOOOOOOOOOOOOOOOOOOOOO",
"OOOOOOOOOOOOOOOOOOOOOOOOOOOOOOOOOOOOOOOOOOOOOOOOOO"
};
