/* XPM */
static char *result[] = {
/* columns rows colors chars-per-pixel */
"50 50 5 1 ",
"  c black",
". c #6B8080",
"X c #879F9E",
"o c #A8BBBB",
"O c None",
/* pixels */
"OOOOOOOOOOOOOOOOOOOOOOOOOOOOOOOOOOOOOOOOOOOOOOOOOO",
"OOOOOOOOOOOOOOOOOOOOOOOOOOOOOOOOOOOOOOOOOOOOOOOOOO",
"OOOOOOOOOOOOOOOOOOOOOOOOOOOOOOOOOOOOOOOOOOOOOOOOOO",
"OOOOOOOOOOOOOOOOOOOOOOOOOOOOOOOOOOOOOOOOOOOOOOOOOO",
"OOOOOOOOOOOOOOOOOOOOOOOOOOOOOOOOOOOOOOOOOOOOOOOOOO",
"OOOOOOOOOOOOOOOOOOOOOOOOOOOOOOOOOOOOOOOOOOOOOOOOOO",
"OOOOOOOOOOOOOOOOOOOOOOOOOOOOOOOOOOOOOOOOOOOOOOOOOO",
"OOOOOOOOOOOOOOOOOOOOOOOOOOOOOOOOOOOOOOOOOOOOOOOOOO",
"OOOOOOOOOOOOOOOOOOOOOOOOOOOOOOOOOOOOOOOOOOOOOOOOOO",
"OOOOOOOOOOOOOOOOOOOOOOOOOOOOOOOOOOOOOOOOOOOOOOOOOO",
"OOOOOOOOOOOOOOOOOOOOOOOOOOOOOOOOOOOOOOOOOOOOOOOOOO",
"OOOOOOOOOOOOOOOOOO                OOOOOOOOOOOOOOOO",
"OOOOOOOOOOOOOOOOOO                OOOOOOOOOOOOOOOO",
"OOOOOOOOOOOOOOOO  oooooooooooooooo  OOOOOOOOOOOOOO",
"OOOOOOOOOOOOOOOO  oooooooooooooooo  OOOOOOOOOOOOOO",
"OOOOOOOOOOOOOOOO  XXooooooXXXXoo..  OOOOOOOOOOOOOO",
"OOOOOOOOOOOOOOOO  XXooooooXXXXoo..  OOOOOOOOOOOOOO",
"OOOOOOOOOOOOOOOO    oooooo    oo..  OOOOOOOOOOOOOO",
"OOOOOOOOOOOOOOOO    oooooo    oo..  OOOOOOOOOOOOOO",
"OOOOOOOOOOOOOOOO    oooooo    oo..  OOOOOOOOOOOOOO",
"OOOOOOOOOOOOOOOO    oooooo    oo..  OOOOOOOOOOOOOO",
"OOOOOOOOOOOOOOOO  XXooooooXXXXoo..  OOOOOOOOOOOOOO",
"OOOOOOOOOOOOOOOO  XXooooooXXXXoo..  OOOOOOOOOOOOOO",
"OOOOOOOOOOOOOO  XXoo  oo  oo  ooXX    OOOOOOOOOOOO",
"OOOOOOOOOOOOOO  XXoo  oo  oo  ooXX    OOOOOOOOOOOO",
"OOOOOOOOOOOO      XX  oo      XX        OOOOOOOOOO",
"OOOOOOOOOOOO      XX  oo      XX        OOOOOOOOOO",
"OOOOOOOOOOOO          XX                OOOOOOOOOO",
"OOOOOOOOOOOO          XX                OOOOOOOOOO",
"OOOOOOOOOOO               XX      XX     OOOOOOOOO",
"OOOOOOOOOOO               XX      XX     OOOOOOOOO",
"OOOOOOOOOOO   XX  XX  XX  oo  XX  XX  .. OOOOOOOOO",
"OOOOOOOOOOO   XX  XX  XX  oo  XX  XX  .. OOOOOOOOO",
"OOOOOOOOOOO ooooooooooooooooXXXX........ OOOOOOOOO",
"OOOOOOOOOOO ooooooooooooooooXXXX........ OOOOOOOOO",
"OOOOOOOOOOO                              OOOOOOOOO",
"OOOOOOOOOOOOOOOOOOOOOOOOOOOOOOOOOOOOOOOOOOOOOOOOOO",
"OOOOOOOOOOOOOOOOOOOOOOOOOOOOOOOOOOOOOOOOOOOOOOOOOO",
"OOOOOOOOOOOOOOOOOOOOOOOOOOOOOOOOOOOOOOOOOOOOOOOOOO",
"OOOOOOOOOOOOOOOOOOOOOOOOOOOOOOOOOOOOOOOOOOOOOOOOOO",
"OOOOOOOOOOOOOOOOOOOOOOOOOOOOOOOOOOOOOOOOOOOOOOOOOO",
"OOOOOOOOOOOOOOOOOOOOOOOOOOOOOOOOOOOOOOOOOOOOOOOOOO",
"OOOOOOOOOOOOOOOOOOOOOOOOOOOOOOOOOOOOOOOOOOOOOOOOOO",
"OOOOOOOOOOOOOOOOOOOOOOOOOOOOOOOOOOOOOOOOOOOOOOOOOO",
"OOOOOOOOOOOOOOOOOOOOOOOOOOOOOOOOOOOOOOOOOOOOOOOOOO",
"OOOOOOOOOOOOOOOOOOOOOOOOOOOOOOOOOOOOOOOOOOOOOOOOOO",
"OOOOOOOOOOOOOOOOOOOOOOOOOOOOOOOOOOOOOOOOOOOOOOOOOO",
"OOOOOOOOOOOOOOOOOOOOOOOOOOOOOOOOOOOOOOOOOOOOOOOOOO",
"OOOOOOOOOOOOOOOOOOOOOOOOOOOOOOOOOOOOOOOOOOOOOOOOOO",
"OOOOOOOOOOOOOOOOOOOOOOOOOOOOOOOOOOOOOOOOOOOOOOOOOO"
};
