/* XPM */
static char *result[] = {
/* columns rows colors chars-per-pixel */
"50 50 5 1 ",
"  c black",
". c #6B8080",
"X c #879F9E",
"o c #A8BBBB",
"O c None",
/* pixels */
"OOOOOOOOOOOOOOOOOOOOOOOOOOOOOOOOOOOOOOOOOOOOOOOOOO",
"OOOOOOOOOOOOOOOOOOOOOOOOOOOOOOOOOOOOOOOOOOOOOOOOOO",
"OOOOOOOOOOOOOOOOOOOOOOOOOOOOOOOOOOOOOOOOOOOOOOOOOO",
"OOOOOOOOOOOOOOOOOOOOOOOOOOOOOOOOOOOOOOOOOOOOOOOOOO",
"OOOOOOOOOOOOOOOOOOOOOOOOOOOOOOOOOOOOOOOOOOOOOOOOOO",
"OOOOOOOOOOOOOOOOOOOOOOOOOOOOOOOOOOOOOOOOOOOOOOOOOO",
"OOOOOOOOOOOOOOOOOO                OOOOOOOOOOOOOOOO",
"OOOOOOOOOOOOOOOO  oooooooooooooooo  OOOOOOOOOOOOOO",
"OOOOOOOOOOOOOOOO  oooooooooooooooo  OOOOOOOOOOOOOO",
"OOOOOOOOOOOOOOOO  XXooooooXXXXoo..  OOOOOOOOOOOOOO",
"OOOOOOOOOOOOOOOO  XXooooooXXXXoo..  OOOOOOOOOOOOOO",
"OOOOOOOOOOOOOOOO    oooooo    oo..  OOOOOOOOOOOOOO",
"OOOOOOOOOOOOOOOO    oooooo    oo..  OOOOOOOOOOOOOO",
"OOOOOOOOOOOOOOOO    oooooo    oo..  OOOOOOOOOOOOOO",
"OOOOOOOOOOOOOOOO    oooooo    oo..  OOOOOOOOOOOOOO",
"OOOOOOOOOOOOOOOO  XXooooooXXXXoo..  OOOOOOOOOOOOOO",
"OOOOOOOOOOOOOOOO  XXooooooXXXXoo..  OOOOOOOOOOOOOO",
"OOOOOOOOOOOOOOOOXXoo  oo  oo  ooXX  OOOOOOOOOOOOOO",
"OOOOOOOOOOOOOOOOXXoo  oo  oo  ooXX  OOOOOOOOOOOOOO",
"OOOOOOOOOOOOOOOO  XX  oo      XX    OOOOOOOOOOOOOO",
"OOOOOOOOOOOOOOOO  XX  oo      XX    OOOOOOOOOOOOOO",
"OOOOOOOOOOOOOOOO      XX            OOOOOOOOOOOOOO",
"OOOOOOOOOOOOOOOO      XX            OOOOOOOOOOOOOO",
"OOOOOOOOOOOOOOOOOO                OOOOOOOOOOOOOOOO",
"OOOOOOOOOOOOOOOOOO                OOOOOOOOOOOOOOOO",
"OOOOOOOOOOOOOOOOOO                OOOOOOOOOOOOOOOO",
"OOOOOOOOOOOOOOOOOO                OOOOOOOOOOOOOOOO",
"OOOOOOOOOOOOOOOO                    OOOOOOOOOOOOOO",
"OOOOOOOOOOOOOOOO                    OOOOOOOOOOOOOO",
"OOOOOOOOOOOOOO            XX      XX  OOOOOOOOOOOO",
"OOOOOOOOOOOOOO            XX      XX  OOOOOOOOOOOO",
"OOOOOOOOOOOOO   ..XX  XX  oo  XX  XX   OOOOOOOOOOO",
"OOOOOOOOOOOOO   ..XX  XX  oo  XX  XX   OOOOOOOOOOO",
"OOOOOOOOOOOOO   ooooooooooooXXXX....   OOOOOOOOOOO",
"OOOOOOOOOOOOO   ooooooooooooXXXX....   OOOOOOOOOOO",
"OOOOOOOOOOOOO                          OOOOOOOOOOO",
"OOOOOOOOOOOOOOOOOOOOOOOOOOOOOOOOOOOOOOOOOOOOOOOOOO",
"OOOOOOOOOOOOOOOOOOOOOOOOOOOOOOOOOOOOOOOOOOOOOOOOOO",
"OOOOOOOOOOOOOOOOOOOOOOOOOOOOOOOOOOOOOOOOOOOOOOOOOO",
"OOOOOOOOOOOOOOOOOOOOOOOOOOOOOOOOOOOOOOOOOOOOOOOOOO",
"OOOOOOOOOOOOOOOOOOOOOOOOOOOOOOOOOOOOOOOOOOOOOOOOOO",
"OOOOOOOOOOOOOOOOOOOOOOOOOOOOOOOOOOOOOOOOOOOOOOOOOO",
"OOOOOOOOOOOOOOOOOOOOOOOOOOOOOOOOOOOOOOOOOOOOOOOOOO",
"OOOOOOOOOOOOOOOOOOOOOOOOOOOOOOOOOOOOOOOOOOOOOOOOOO",
"OOOOOOOOOOOOOOOOOOOOOOOOOOOOOOOOOOOOOOOOOOOOOOOOOO",
"OOOOOOOOOOOOOOOOOOOOOOOOOOOOOOOOOOOOOOOOOOOOOOOOOO",
"OOOOOOOOOOOOOOOOOOOOOOOOOOOOOOOOOOOOOOOOOOOOOOOOOO",
"OOOOOOOOOOOOOOOOOOOOOOOOOOOOOOOOOOOOOOOOOOOOOOOOOO",
"OOOOOOOOOOOOOOOOOOOOOOOOOOOOOOOOOOOOOOOOOOOOOOOOOO",
"OOOOOOOOOOOOOOOOOOOOOOOOOOOOOOOOOOOOOOOOOOOOOOOOOO"
};
