/* XPM */
static char *a9ae5e4c320046d48847a4e30ed23e6cWNk9q8mlUYdEuKSk[] = {
/* columns rows colors chars-per-pixel */
"50 50 3 1 ",
"  c None",
". c black",
"X c #85E81C",
/* pixels */
"                                                  ",
"                                                  ",
"                                                  ",
"                                                  ",
"                                                  ",
"                                                  ",
"                                                  ",
"                                                  ",
"                                                  ",
"                                                  ",
"                                                  ",
"                                                  ",
"                                                  ",
"                   ..        ..                   ",
"                  .  .      .  .                  ",
"                      .    .                      ",
"                      .    .                      ",
"                       ....                       ",
"                      X....X                      ",
"                     ........                     ",
"                     ........                     ",
"                     ........                     ",
"                   ............                   ",
"                  ..............                  ",
"                 ................                 ",
"                 ................                 ",
"                 ................                 ",
"                 .......XX.......                 ",
"                 .......XX.......                 ",
"                 ......XXXX......                 ",
"                  .....XXXX.....                  ",
"                   ...XXXXXX...                   ",
"                    . XXXXXX .                    ",
"                       XXXX                       ",
"                                                  ",
"                                                  ",
"                                                  ",
"                                                  ",
"                                                  ",
"                                                  ",
"                                                  ",
"                                                  ",
"                                                  ",
"                                                  ",
"                                                  ",
"                                                  ",
"                                                  ",
"                                                  ",
"                                                  ",
"                                                  "
};
