/* XPM */
static char *_b1e3cd5ceab42addf79bfe6dc814030WjvKA1saDnDBtrm0[] = {
/* columns rows colors chars-per-pixel */
"50 50 3 1 ",
"  c None",
". c black",
"X c #85E81C",
/* pixels */
"                                                  ",
"                                                  ",
"                                                  ",
"                                                  ",
"                                                  ",
"                                                  ",
"                                                  ",
"                                                  ",
"                                                  ",
"                     ..                           ",
"                     ...                          ",
"              ...    ...                          ",
"              .....  ....                         ",
"              ...... ....       ..                ",
"               ..........      . ..               ",
"                .........     . .  .              ",
"                 .........    ..   .              ",
"                .X.........   ..                  ",
"               .XXXX............                  ",
"              .XXXXXXXX..........                 ",
"              .XXXXXXXXX......X...                ",
"              .XXXXXXXXX..........                ",
"              .XXXXXXXXX..........                ",
"              .XXXXXXXXX..........                ",
"               .XXXXXXX..........                 ",
"                ..XXX.... ......                  ",
"                 .... . .                         ",
"                . .  . .                          ",
"                 .                                ",
"                                                  ",
"                                                  ",
"                                                  ",
"                                                  ",
"                                                  ",
"                                                  ",
"                                                  ",
"                                                  ",
"                                                  ",
"                                                  ",
"                                                  ",
"                                                  ",
"                                                  ",
"                                                  ",
"                                                  ",
"                                                  ",
"                                                  ",
"                                                  ",
"                                                  ",
"                                                  ",
"                                                  "
};
