/* XPM */
static char *_233eff200ae4f15c739954cdbd97c07TpXh8kbjMAxeb7EW[] = {
/* columns rows colors chars-per-pixel */
"50 50 3 1 ",
"  c None",
". c black",
"X c #85E81C",
/* pixels */
"                                                  ",
"                                                  ",
"                                                  ",
"                                                  ",
"                                                  ",
"                                                  ",
"                                                  ",
"                                                  ",
"                                                  ",
"                                                  ",
"                                                  ",
"                                                  ",
"                                                  ",
"                       XXXX                       ",
"                    . XXXXXX .                    ",
"                   ...XXXXXX...                   ",
"                  .....XXXX.....                  ",
"                 ......XXXX......                 ",
"                 .......XX.......                 ",
"                 .......XX.......                 ",
"                 ................                 ",
"                 ................                 ",
"                 ................                 ",
"                  ..............                  ",
"                   ............                   ",
"                     ........                     ",
"                     ........                     ",
"                     ........                     ",
"                      X....X                      ",
"                       ....                       ",
"                      .    .                      ",
"                      .    .                      ",
"                  .  .      .  .                  ",
"                   ..        ..                   ",
"                                                  ",
"                                                  ",
"                                                  ",
"                                                  ",
"                                                  ",
"                                                  ",
"                                                  ",
"                                                  ",
"                                                  ",
"                                                  ",
"                                                  ",
"                                                  ",
"                                                  ",
"                                                  ",
"                                                  ",
"                                                  "
};
