/* XPM */
static char *e28ac4dd27334fcdeaafd103f3060636jzpBAjUsPC4fDyKr[] = {
/* columns rows colors chars-per-pixel */
"50 50 3 1 ",
"  c None",
". c black",
"X c #85E81C",
/* pixels */
"                                                  ",
"                                                  ",
"                                                  ",
"                                                  ",
"                                                  ",
"                                                  ",
"                                                  ",
"                                                  ",
"                                                  ",
"                                                  ",
"                                                  ",
"                                                  ",
"                                                  ",
"                                                  ",
"                                                  ",
"                                                  ",
"                                                  ",
"                ..                                ",
"               .. .                               ",
"              .  . .                              ",
"                  ..       .......                ",
"                  ..      .........               ",
"                  ...... ...........              ",
"                 ...................              ",
"                ...X................              ",
"                ....................              ",
"                ..........X.......X.              ",
"                ...........XX...XXX.              ",
"                 ..........XXXXXXX.               ",
"                  ...... ....XXX..                ",
"                         . . ....                 ",
"                          . .  . .                ",
"                                .                 ",
"                                                  ",
"                                                  ",
"                                                  ",
"                                                  ",
"                                                  ",
"                                                  ",
"                                                  ",
"                                                  ",
"                                                  ",
"                                                  ",
"                                                  ",
"                                                  ",
"                                                  ",
"                                                  ",
"                                                  ",
"                                                  ",
"                                                  "
};
