/* XPM */
static char *b8697cbf50af43d680c147077a291fecwAmCkRpzLOG0BsmO[] = {
/* columns rows colors chars-per-pixel */
"50 50 3 1 ",
"  c None",
". c black",
"X c #85E81C",
/* pixels */
"                                                  ",
"                                                  ",
"                                                  ",
"                                                  ",
"                                                  ",
"                                                  ",
"                                                  ",
"                                                  ",
"                                                  ",
"                                                  ",
"                                                  ",
"                                                  ",
"                                                  ",
"                       .XX.                       ",
"                     ...XX...                     ",
"                    ..........                    ",
"                   ............                   ",
"                   ............                   ",
"                   ............                   ",
"                   ............                   ",
"                   ............                   ",
"                   ............                   ",
"                   ............                   ",
"                   ............                   ",
"                    ..........                    ",
"                     ........                     ",
"                     ........                     ",
"                     ........                     ",
"                      X....X                      ",
"                       ....                       ",
"                      .    .                      ",
"                      .    .                      ",
"                  .  .      .  .                  ",
"                   ..        ..                   ",
"                                                  ",
"                                                  ",
"                                                  ",
"                                                  ",
"                                                  ",
"                                                  ",
"                                                  ",
"                                                  ",
"                                                  ",
"                                                  ",
"                                                  ",
"                                                  ",
"                                                  ",
"                                                  ",
"                                                  ",
"                                                  "
};
