/* XPM */
static char *_af0983967914a2cb20bcfd14f8230f5suCE4ucSEXod76UR[] = {
/* columns rows colors chars-per-pixel */
"50 50 6 1 ",
"  c None",
". c #181425",
"X c #262B44",
"o c #9E2835",
"O c #F77622",
"+ c #FEE761",
/* pixels */
"               o                     o            ",
"           o    o                o    o           ",
"           oo                    oo               ",
"           oo   o                oo   o           ",
"           oo                    oo               ",
"          ooo   o               ooo   o           ",
"          oooo  o               oooo  o           ",
"          oooo           o      oooo              ",
"           ooo         oo        ooo              ",
"           ooooo      ooo        ooooo            ",
"           oOoooo     oo         oOoooo           ",
"          .oOOoOo.   ooo        .oOOoOo.          ",
"         ..oO+OO...  oo        ..oO+OO...         ",
"         .XXO++OXX.  o    o    .XXO++OXX.         ",
"          XXO++XXX       oo     XXO++XXX          ",
"            XXXX     o   oo       XXXX            ",
"                         oo                       ",
"                     o   ooo                      ",
"                     o  oooo                      ",
"                        oooo                      ",
"                        ooo                       ",
"                      ooooo                       ",
"                     ooooOo                       ",
"             ooo     oOoOOo..      ooo            ",
"               oo   ..OO+Oo..        oo           ",
"           o    o   .XO++OXXX    o    o           ",
"           oo        XX++OXXX    oo               ",
"           oo   o      XXXX      oo   o           ",
"           oo                    oo               ",
"          ooo   o               ooo   o           ",
"          oooo  o               oooo  o           ",
"          oooo                  oooo              ",
"           ooo                   ooo              ",
"           ooooo                 ooooo            ",
"           oOoooo                oOoooo           ",
"          .oOOoOo.              .oOOoOo.          ",
"         ..oO+OO...            ..oO+OO...         ",
"         .XXO++OXX.            .XXO++OXX.         ",
"          XXO++XXX              XXO++XXX          ",
"            XXXX                  XXXX            ",
"                                                  ",
"                                                  ",
"                                                  ",
"                                                  ",
"                                                  ",
"                                                  ",
"                                                  ",
"                                                  ",
"                                                  ",
"                                                  "
};
