/* XPM */
static char *_44ccf1b43254002acdd4301b3eed058UMd1zx348LXCFqr3[] = {
/* columns rows colors chars-per-pixel */
"50 50 6 1 ",
"  c None",
". c #181425",
"X c #262B44",
"o c #9E2835",
"O c #F77622",
"+ c #FEE761",
/* pixels */
"             o                     o              ",
"             oo                    oo             ",
"             ooo                   ooo            ",
"             oooo                  oooo           ",
"              ooo                   ooo           ",
"              ooo                   ooo           ",
"           o   oo                o   oo           ",
"           o   oO                o   oO           ",
"           oo  oO                oo  oO           ",
"           oooooo                oooooo           ",
"           ooooOo                ooooOo           ",
"          .oOoOOo.              .oOoOOo.          ",
"         ..ooOO+...      o     ..ooOO+...         ",
"         .XXOO+OXX.     oo     .XXOO+OXX.         ",
"          XXX++XXX     ooo      XXX++XXX          ",
"            XXXX      oooo        XXXX            ",
"                      ooo                         ",
"                      ooo                         ",
"                      oo   o                      ",
"                      Oo   o                      ",
"                      Oo  oo                      ",
"                      oooooo                      ",
"                      oOoooo                      ",
"                     .oOOoOo.                     ",
"             o      ...+OOoo..     o              ",
"             oo     .XXO+OOXX.     oo             ",
"             ooo     XXX++XXX      ooo            ",
"             oooo      XXXX        oooo           ",
"              ooo                   ooo           ",
"              ooo                   ooo           ",
"           o   oo                o   oo           ",
"           o   oO                o   oO           ",
"           oo  oO                oo  oO           ",
"           oooooo                oooooo           ",
"           ooooOo                ooooOo           ",
"          .oOoOOo.              .oOoOOo.          ",
"         ..ooOO+...            ..ooOO+...         ",
"         .XXOO+OXX.            .XXOO+OXX.         ",
"          XXX++XXX              XXX++XXX          ",
"            XXXX                  XXXX            ",
"                                                  ",
"                                                  ",
"                                                  ",
"                                                  ",
"                                                  ",
"                                                  ",
"                                                  ",
"                                                  ",
"                                                  ",
"                                                  "
};
