/* XPM */
static char *cbbcace240864a77de2e9b5e6dd4278dXZIhIPv7p5RyBNZJ[] = {
/* columns rows colors chars-per-pixel */
"50 50 5 1 ",
"  c None",
". c #181425",
"X c #262B44",
"o c #9E2835",
"O c #F77622",
/* pixels */
"                                                  ",
"                                                  ",
"                                                  ",
"                                                  ",
"                                                  ",
"                                                  ",
"                                                  ",
"                                                  ",
"                                                  ",
"                                                  ",
"            ....                  ....            ",
"          ...o....              ...o....          ",
"         ...XooX...            ...XooX...         ",
"         .XXXOOXXX.            .XXXOOXXX.         ",
"          XXXXXXXX              XXXXXXXX          ",
"            XXXX                  XXXX            ",
"                                                  ",
"                                                  ",
"                                                  ",
"                                                  ",
"                                                  ",
"                                                  ",
"                       ....                       ",
"                     ...o....                     ",
"                    ...XooX...                    ",
"                    .XXXOOXXX.                    ",
"                     XXXXXXXX                     ",
"                       XXXX                       ",
"                                                  ",
"                                                  ",
"                                                  ",
"                                                  ",
"                                                  ",
"                                                  ",
"            ....                  ....            ",
"          ...o....              ...o....          ",
"         ...XooX...            ...XooX...         ",
"         .XXXOOXXX.            .XXXOOXXX.         ",
"          XXXXXXXX              XXXXXXXX          ",
"            XXXX                  XXXX            ",
"                                                  ",
"                                                  ",
"                                                  ",
"                                                  ",
"                                                  ",
"                                                  ",
"                                                  ",
"                                                  ",
"                                                  ",
"                                                  "
};
