/* XPM */
static char *c350d5d2d4be4432bb4e274b511c8064h2kjMkkAMz2jkVcV[] = {
/* columns rows colors chars-per-pixel */
"50 50 3 1 ",
"  c None",
". c #181425",
"X c #262B44",
/* pixels */
"                                                  ",
"                                                  ",
"                                                  ",
"                                                  ",
"                                                  ",
"                                                  ",
"                                                  ",
"                                                  ",
"                                                  ",
"                                                  ",
"            ....                  ....            ",
"          ........              ........          ",
"         ...XXXX...            ...XXXX...         ",
"         .XXXXXXXX.            .XXXXXXXX.         ",
"          XXXXXXXX              XXXXXXXX          ",
"            XXXX                  XXXX            ",
"                                                  ",
"                                                  ",
"                                                  ",
"                                                  ",
"                                                  ",
"                                                  ",
"                       ....                       ",
"                     ........                     ",
"                    ...XXXX...                    ",
"                    .XXXXXXXX.                    ",
"                     XXXXXXXX                     ",
"                       XXXX                       ",
"                                                  ",
"                                                  ",
"                                                  ",
"                                                  ",
"                                                  ",
"                                                  ",
"            ....                  ....            ",
"          ........              ........          ",
"         ...XXXX...            ...XXXX...         ",
"         .XXXXXXXX.            .XXXXXXXX.         ",
"          XXXXXXXX              XXXXXXXX          ",
"            XXXX                  XXXX            ",
"                                                  ",
"                                                  ",
"                                                  ",
"                                                  ",
"                                                  ",
"                                                  ",
"                                                  ",
"                                                  ",
"                                                  ",
"                                                  "
};
