/* XPM */
static char *a42b2a807bcb4b98e91664f3207169aeKDXmcAfh3TrxJHSD[] = {
/* columns rows colors chars-per-pixel */
"50 50 6 1 ",
"  c None",
". c #181425",
"X c #262B44",
"o c #9E2835",
"O c #874F3E",
"+ c #F77622",
/* pixels */
"              o                                   ",
"          O                     o                 ",
"          O                    o o                ",
"           O                   o o                ",
"          O                    o       o          ",
"                                                  ",
"                                                  ",
"                o                     o           ",
"           o   oo       OO       o   oo           ",
"           o oooo      O         o oooo           ",
"            ooooo     O           ooooo           ",
"          .oo.oo..    O   o     .oo.oo..          ",
"         ..+XXXo...            ..+XXXo...         ",
"         .XXXXXXXX.   o    o   .XXXXXXXX.         ",
"          XXXXXX X        oo    XXXXXX X          ",
"            XXXX          oo      XXXX            ",
"                           o                      ",
"                                                  ",
"                                                  ",
"                     o                            ",
"                     oo   o                       ",
"                     ooo  o                       ",
"                o    ooooo.           o           ",
"           o         .++.oo..    o                ",
"                    ...XXX+...                    ",
"          o         .XXXXXXXX.  o                 ",
"          oo         XXXXXXXX   oo                ",
"          oo           XXXX     oo                ",
"          o                     o                 ",
"                                                  ",
"                                                  ",
"                o                     o           ",
"           o   oo                o   oo           ",
"           o  ooo                o  ooo           ",
"            ooooo                 ooooo           ",
"          .oo.++..              .oo.++..          ",
"         ..+XXXX...            ..+XXXX...         ",
"         .XXXXXXXX.            .XXXXXXXX.         ",
"          XXXXXXXX              XXXXXXXX          ",
"            XXXX                  XXXX            ",
"                                                  ",
"                                                  ",
"                                                  ",
"                                                  ",
"                                                  ",
"                                                  ",
"                                                  ",
"                                                  ",
"                                                  ",
"                                                  "
};
