/* XPM */
static char *_b30704b5eea4b3cd78db0c32be09207dmmingxfVknyyTgu[] = {
/* columns rows colors chars-per-pixel */
"50 50 5 1 ",
"  c None",
". c #181425",
"X c #262B44",
"o c #9E2835",
"O c #F77622",
/* pixels */
"                                                  ",
"                                                  ",
"                                                  ",
"                                                  ",
"                                                  ",
"                                                  ",
"                                                  ",
"                                                  ",
"                                                  ",
"              o                    o              ",
"            ..o.                  .oo.            ",
"          ...oo...              ...oo...          ",
"         ...oooo...            ...oooo...         ",
"         .XXOooOXX.            .XXOOoOXX.         ",
"          XXXOOXXX              XXXOOXXX          ",
"            XXXX                  XXXX            ",
"                                                  ",
"                                                  ",
"                                                  ",
"                                                  ",
"                                                  ",
"                         o                        ",
"                       ..o.                       ",
"                     ...oo...                     ",
"                    ...oooo...                    ",
"                    .XXOooOXX.                    ",
"                     XXXOOXXX                     ",
"                       XXXX                       ",
"                                                  ",
"                                                  ",
"                                                  ",
"                                                  ",
"                                                  ",
"             o                     o              ",
"            .oo.                  .oo.            ",
"          ...oo...              ...oo...          ",
"         ...oooo...            ...oooo...         ",
"         .XXOOoOXX.            .XXOOoOXX.         ",
"          XXXOOXXX              XXXOOXXX          ",
"            XXXX                  XXXX            ",
"                                                  ",
"                                                  ",
"                                                  ",
"                                                  ",
"                                                  ",
"                                                  ",
"                                                  ",
"                                                  ",
"                                                  ",
"                                                  "
};
