/* XPM */
static char *e58585f96e4c4e7fb29a92eaa468f18a4JA41SqFw1VlrAIK[] = {
/* columns rows colors chars-per-pixel */
"50 50 59 1 ",
"  c #474241",
". c #544948",
"X c #584D4C",
"o c #5C4F4D",
"O c #4A4852",
"+ c #4D4D54",
"@ c #4D4D55",
"# c #5D5452",
"$ c #675554",
"% c #6A5755",
"& c #695756",
"* c #6B5856",
"= c #6C5957",
"- c #6D5A58",
"; c #6D5B58",
": c #705C59",
"> c #725F5D",
", c #5B6052",
"< c #73615F",
"1 c #69745E",
"2 c #746260",
"3 c #786563",
"4 c #7A6765",
"5 c #7A6866",
"6 c #7B6967",
"7 c #7E6D6C",
"8 c #816F6D",
"9 c #83716F",
"0 c #89706A",
"q c #88726E",
"w c #847270",
"e c #857270",
"r c #857370",
"t c #877370",
"y c #877572",
"u c #887673",
"i c #8D7672",
"p c #937A74",
"a c #957D76",
"s c #997D76",
"d c #997E77",
"f c #9B7E76",
"g c #9C7F77",
"h c #5D8248",
"j c #638B4C",
"k c #74A347",
"l c #7BAD4C",
"z c #998177",
"x c #9C8077",
"c c #9C8078",
"v c #9D8279",
"b c #9F867C",
"n c #8F947A",
"m c #A28F82",
"M c #A19285",
"N c #A39486",
"B c #A49485",
"V c #A49486",
"C c #A69788",
/* pixels */
"jjh %-tgggwlkkkkkkkkkkkkkkkkkkkkkkkkkkkkkkkkkkkkkk",
"jjh %6tggi2lkkkkkkkkkkkkkkkkkkkkkkkkkkkkkkkkkkkkkk",
"jjh %ttgft%lkkkkkkkkkkkkkkkkkkkkkkkkkkkkkkkkkkkkkk",
"jjh %%ttf24lkkkkkkkkkkkkkkkkkkkkkkkkkkkkkkkkkkkkkk",
"jjjh %=tvclkkkkkkkkkkkkkkkkkkkkkkkkkkkkkkkkkkkkkkk",
"jjjh %-tvflkkkkkkkkkkkkkkkkkkkkkkkkkkkkkkkkkkkkkkk",
"jjjh %-tcclkkkkkkkkkkkkkkkkkkkkkkkkkkkkkkkkkkkkkkk",
"jjjh =6ymflkkkkkkkkkkkkkkkkkkkkkkkkkkkkkkkkkkkkkkk",
"jjjh -wyCclkkkkkkkkkkkkkkkkkkkkkkkkkkkkkkkkkkkkkkk",
"jjjh -taNcnlkkkkkkkkkkkkkkkkkkkkkkkkkkkkkkkkkkkkkk",
"jjjh -tvNvwlkkkkkkkkkkkkkkkkkkkkkkkkkkkkkkkkkkkkkk",
"jjh,o-tcbfwlkkkkkkkkkkkkkkkkkkkkkkkkkkkkkkkkkkkkkk",
"jjh %-tgfftlkkkkkkkkkkkkkkkkkkkkkkkkkkkkkkkkkkkkkk",
"jjh %6tgxi<lkkkkkkkkkkkkkkkkkkkkkkkkkkkkkkkkkkkkkk",
"jjh %ttfgt%lkkkkkkkkkkkkkkkkkkkkkkkkkkkkkkkkkkkkkk",
"jjh %%ttg<4lkkkkkkkkkkkkkkkkkkkkkkkkkkkkkkkkkkkkkk",
"jjjh %%wgCwlkkkkkkkkkkkkkkkkkkkkkkkkkkkkkkkkkkkkkk",
"jjjh %4wmCglkkkkkkkkkkkkkkkkkkkkkkkkkkkkkkkkkkkkkk",
"jjjh %wpCbgnlkkkkkkkkkkkkkkkkkkklllkkkkkkkkkkkklll",
"jjh#o%wgbggwllkkkllllkkkkkkkklllgfallkkkkkkklllxfa",
"jjh %4wgggi2nnlllnnn7llkkkkkllcwwwww7llkkkkllcywwt",
"jjh %wwggg24ppnnn7ww-twlllllNay7w77t-wtllllNay7w77",
"jjh %wwifi%wigpw7%wwwyiyy;;uyi99%%%wwuuut-uuiww$=$",
"jjh %wwwi24wwiiw<%wttNCCvvcCCByyt%%qyNCCccCCNuyw%=",
"jjh $twti24wwiiw>%wttVCCvvxBCNyyw%%ttNBCggCCNqyt%%",
"jjh &wwww%wwwwww%%wdffNNBBNNBvfft%%gafNNNVNNcfa9%%",
"jjh .97yw%wpppww%%%twfgdtwwaagftww%wtggf99affcy9q$",
"jjj1 ywww%wgggpp%%%wwggwwwwwwwgtw7%wwggwwtwqyfww7=",
"jjjh 7yy8%wigggi%%%wwg8wwwwwt8gww%%wwfwwwwwwwfww=$",
"jjjh 9997%2wiiiw%%$wwwww88wtwtatw=%wwwwww7wwwfww==",
"jjjh y7u8X%ww2w2%%w%wwww%%%%wwwww-%=7w9w%%=www99==",
"jjhh y7ut8$ww4w3%&t=%%$%%%%%%78tw%%==%%%%%%%7wwq=$",
"jjjh 999aq=9ixp9%%%wwtg%%8w%-Cww%%%wwyg%%7==Cww%$=",
"jjjh <y9i<=99ii9%ww%wwgg-gg-NN%=%wt%wwgg=v-NN%%=t9",
"jjh  699<=999999%ww7=tggfNNggg%wwwww=tggfNggf=ww=9",
"jjh 999<3=9paaww%wtt=-gawwwfgg8wftww==fgwwfgf8tcy-",
"jjh 77<6>%tfxfpp%wwaw=www%%wgwwgwwwfw=www%wfw9fww-",
"jjh 9==<%%wifxci%www7%%%%%%8w8%wwwww7%%%%%8ww$www-",
"jjh <6600%<9xfi9%t7&-tww%%%w=%%%%ww%=www%%w=%=%%99",
"jjh =99ifi=9ifpy%%==wtggwtwwggww=%%=wtggtwtfcww=%%",
"jjh %<wwi2=wwiiw%%twtgggggggggtww=%wtgcggggggytw-=",
"jjh %4ww<=wwwwww%%wggggNafggggfgww%ffggNafgggafww$",
"jjjh.<w<4%9pppww%&wwwgaftwwfafwwww%wwffftwfffwwwt=",
"jjjh %<4<%wfcfpp%&wwwwtwwwwwwwwwww%wwwwwwwwwwwww7%",
"jjjh %%<%%wifcfi%%wwwwwwwwwwwwwww=%wwwwwwwwwwwww=%",
"jjjjh..%%%<wiiit%%%w8www7w8www7ww%%w8www98www8ww%=",
"jjjjjhh...%ww2w2%$%$%ww8%%%%ww&7=%$%%98w%%=99=7%$$",
"jjjjjjjhhh.##.#..O%7$$$7$$$w$$&7%OO7$$$7$$7$$$7%OO",
"jjjjjjjjjjhhhhhhhh+++++++++++@@@@hh@+@@@@@@@@@@@hh",
"jjjjjjjjjjhhhhhhhhhhhhhhhhhhhhhhhjjhhhhhhhhhhhhhhh"
};
