/* XPM */
static char *ffad39bafda142f18088c04f444213bd23u8b2htTRlgkF91[] = {
/* columns rows colors chars-per-pixel */
"50 50 22 1 ",
"  c #4A4852",
". c #6A5755",
"X c #6D5A58",
"o c #73615F",
"O c #7A6765",
"+ c #7B6967",
"@ c #847270",
"# c #877370",
"$ c #8D7672",
"% c #997D76",
"& c #9C7F77",
"* c #638B4C",
"= c #74A347",
"- c #7BAD4C",
"; c #9C8077",
": c #9D8279",
"> c #9F867C",
", c #8F947A",
"< c #A28F82",
"1 c #A49485",
"2 c #A59586",
"3 c #A69788",
/* pixels */
"==================================================",
"==================================================",
"==================================================",
"-----============================================-",
"%%%%%-===========================================%",
"%%%%%---=========================================%",
"@@@@@@@@---======================================@",
"@@@@@+@@&&&-=====================================@",
"@@@@@+##&&&--====================================@",
"##333@##&&&@@-===================================#",
"333333###&&oo-===================================#",
"333333###&&oo-===================================#",
";;%&&333#::&&-===================================%",
"&&%&&333#::&&-===================================%",
"&&&&&&33#::&&-===================================@",
"@@&:::33#::&&-===================================@",
"@@::::32#::&&-===================================@",
"@@:::@@@@::&&-===================================@",
"@@@@@@@@@::&&-===================================@",
"@@@@@@@@@::&&-===================================@",
"@@@@@@@@@@@&&,-==================================@",
"XXXXXX##:@@&&@-==================================@",
"XXXXXX##:@@&&@-==================================@",
"##122XXX;>>&&@-==================================#",
"##111XXX;>>&&@-==================================#",
"&&&111XXX&&&&@-==================================#",
"&&&&&&&&X&&$$o-==================================&",
"&&&&&&&&X&&$$o-==================================&",
"&&&&&@##&&&@@.-==================================&",
"&&&&&&###&&ooO-==================================&",
"&&&&&&###&&ooO-==================================&",
"#########::&&-===================================#",
"XXXXXXXX#::&&-===================================X",
"XXXXXXXX#::&&-===================================X",
"&&&&&&XXX::&&-===================================X",
"&&&::&&&X<<&&-===================================&",
"&&&::&&&X1<&&-===================================&",
"::::::&&X32&&-===================================&",
"::::::&&X22&&-===================================&",
"@@@:::&&222&&,-==================================&",
"@@@@@@@@:11&&@-==================================@",
"@@@@@@@@:12&&@-==================================@",
"@@@@@@@@&>>&&@-==================================@",
"@@@@@@@@@&&&&@-==================================.",
"@@@@@@@@@&&&&@-==================================.",
"...@@@@@&&&$$o-==================================.",
"  ...@@@&&&@@.-================================== ",
"  ...@@@&&&@@.-================================== ",
"   ...###&&ooO-==================================*",
"   ...###&&ooO-==================================*"
};
