/* XPM */
static char *_bc73c58dead4c2597089972d5a7bd84GLvgYBsdqEW2mvBG[] = {
/* columns rows colors chars-per-pixel */
"50 50 48 1 ",
"  c black",
". c #192015",
"X c #2D3F22",
"o c #474241",
"O c #564D4B",
"+ c #564E4C",
"@ c #5C4F4D",
"# c #5B514E",
"$ c #5D524F",
"% c #635351",
"& c #625750",
"* c #6A5755",
"= c #6C5957",
"- c #6D5A58",
"; c #6E5C5A",
": c #705D5A",
"> c #735F5C",
", c #5B6052",
"< c #786967",
"1 c #7B6967",
"2 c #7F6C69",
"3 c #7F6C6A",
"4 c #846F6C",
"5 c #80706D",
"6 c #90766F",
"7 c #847270",
"8 c #857370",
"9 c #877370",
"0 c #877572",
"q c #887673",
"w c #8A7873",
"e c #8C7B76",
"r c #927770",
"t c #937A74",
"y c #977C75",
"u c #9C7F77",
"i c #5D8248",
"p c #638B4C",
"a c #74A347",
"s c #7BAD4C",
"d c #868071",
"f c #9D8279",
"g c #9F847B",
"h c #9D927C",
"j c #A28F82",
"k c #A69788",
"l c #A5A489",
"z c #AEA78B",
/* pixels */
"iiiippppppppppppppppppppppppppppppppppppppppppiiii",
":+$iiippppppppppppppppppppppppppppppppppppppiii$O;",
"y7%oOiippppppppppppppppppppppppppppppppppppiiOo&3y",
"d:rt2#iippppppppppppppppppppppppppppppppppii@4tt>w",
"fff;7<oiippppppppppppppppppppppppppppppppiio<3;ggg",
"7ff7**oiippppppppppppppppppppppppppppppppiio*=3ff3",
"s7f7***oippppppppppppppppppppppppppppppppio***7f0s",
"s7f7***oippppppppppppppppppppppppppppppppio***7g7s",
"as7f4&*opppppppppppppppppppppppppppppppppio*&4f7sa",
"as7f6&*o,ppppppppppppppppppppppppppppppppio*&rf7sa",
"as7f44*oippppppppppppppppppppppppppppppppio*44f7sa",
"asf299*oippppppppppppppppppppppppppppppppio*074fsa",
"asffq5*oippppppppppppppppppppppppppppppppio*99ffsa",
"s7ff7q**oippppppppppppppppppppppppppppppio**99ff7s",
"s7f7q9**oippppppppppppppppppppppppppppppio**999f8s",
"s7fq99**oippppppppppppppppppppppppppppppio**999f7s",
"d5u99-*oippppppppppppppppppppppppppppppppio*-99u7s",
"ssuf9-*oippppppppppppppppppppppppppppppppio*-9fusa",
"asff9-*oippppppppppppppppppppppppppppppppio*:9fusa",
"shfh91-oippppppppppppppppppppppppppppppppio-1qjuza",
"szhh95:oippppppppppppppppppppppppppppppppio=7qkgza",
"shhhf5-oippppppppppppppppppppppppppppppppio=7ygfzs",
"szggf5;oippppppppppppppppppppppppppppppppio:7fgfzs",
"sdzgh9=$,ippppppppppppppppppppppppppppppi,@=9fgzsa",
"sszhh6*&,ippppppppppppppppppppppppppppppi,@-9ffzsa",
"ashhf6=&oippppppppppppppppppppppppppppppio*:9fgzsa",
"ashhf64&oippppppppppppppppppppppppppppppio*19gfzsa",
"aaszf46*oippppppppppppppppppppppppppppppio*59gzsaa",
"asszff**oippppppppppppppppppppppppppppppio**ggzsaa",
"assz6f*oippppppppppppppppppppppppppppppppio*gqzsaa",
"aashhh*oXppppppppppppppppppppppppppppppppXo*ghzsaa",
"aahzzh*o.XXppppppppppppppppppppppppppppXX.o*zzzsaa",
"asaszzhO ..XppppppppppppppppppppppppppX.. ogzzsasa",
"aaaszzh$o ..XXXppppppppppppppppppppXXXX. oohzzsaaa",
"saaashhho  .XXXXXXppppppppppppppXXXXXX.  ofzzsaaas",
"saaasssd$o ..XXXXXXXXppppppppXXXXXXXX.. o$8ssaaaas",
"saaaaaszfo  ...XXXXXXXXXXXXXXXXXXXX...  ogzsaaaaas",
"aaaaaashfqo   ...XXXXXXXXXXXXXXXX...   o8fzsaaaaaa",
"aaaaaaasz=goo   ....XXXXXXXXXX....   oof*zsaaaaaaa",
"saaaaaaszfff$=:    .....XX.....    **$fffzsaaaaaas",
"saaaaaaaszlzff*f**     ....     **g*ffzlzsaaaaaaas",
"aaaaaaaaassslzlg*>****      *=-=>*glzlsssaaaaaaaaa",
"aaaaaaaaaaaassszzwe*ff******ff=wqzzsssaaaaaaaaaaaa",
"aaaaaaaaaaaaaaaslzlfkkffffffkkflzlsaaaaaaaaaaaaaaa",
"aaaaaaaaaaaaaaaasssllzkkzzkkzllsssaaaaaaaaaaaaaaaa",
"aaaaaaaaaaaaaaaaaaassssssssssssaaaaaaaaaaaaaaaaaaa",
"saaaaaaaaaaaaaaaaaaaaaaaaaaaaaaaaaaaaaaaaaaaaaaaas",
"saaaaaaaaaaaaaaaaaaaaaaaaaaaaaaaaaaaaaaaaaaaaaaaas",
"saaaaaaaaaaaaaaaaaaaaaaaaaaaaaaaaaaaaaaaaaaaaaaaas",
"saaaaaaaaaaaaaaaaaaaaaaaaaaaaaaaaaaaaaaaaaaaaaaaas"
};
