/* XPM */
static char *_94e5b83990646b08bbe5c3584e40a2d7EPn4WEPfmi48R29[] = {
/* columns rows colors chars-per-pixel */
"50 50 28 1 ",
"  c black",
". c #192015",
"X c #2D3F22",
"o c #474241",
"O c #564D4B",
"+ c #5C4F4D",
"@ c #5B514E",
"# c #635351",
"$ c #6A5755",
"% c #705D5B",
"& c #735F5C",
"* c #786967",
"= c #7F6C69",
"- c #90766F",
"; c #847270",
": c #8A7873",
"> c #8C7B76",
", c #937A74",
"< c #9C7F77",
"1 c #5D8248",
"2 c #638B4C",
"3 c #74A347",
"4 c #7BAD4C",
"5 c #9D8279",
"6 c #9F847B",
"7 c #A69788",
"8 c #A5A489",
"9 c #AEA78B",
/* pixels */
"22222222222222222222222222222222222222222222222222",
"22222222222222222222222222222222222222222222222222",
"22222222222222222222222222222222222222222222222222",
"22222222222222222222222222222222222222222222222222",
"22222222222222222222222222222222222222222222222222",
"22222222222222222222222222222222222222222222222222",
"22222222222222222222222222222222222222222222222222",
"22222222222222222222222222222222222222222222222222",
"22222222222222222222222222222222222222222222222222",
"22222222222222222222222222222222222222222222222222",
"22222222222222222222222222222222222222222222222222",
"22222222222222222222222222222222222222222222222222",
"22222222222222222222222222222222222222222222222222",
"22222222222222222222222222222222222222222222222222",
"22222222222222222222222222222222222222222222222222",
"22222222222222222222222222222222222222222222222222",
"22222222222222222222222222222222222222222222222222",
"22222222222222222222222222222222222222222222222222",
"22222222222222222222222222222222222222222222222222",
"22222222222222222222222222222222222222222222222222",
"22222222222222222222222222222222222222222222222222",
"22222222222222222222222222222222222222222222222222",
"22222222222222222222222222222222222222222222222222",
"22222222222222222222222222222222222222222222222222",
"22222222222222222222222222222222222222222222222222",
"22222222222222222222222222222222222222222222222222",
"22222222222222222222222222222222222222222222222222",
"22222222222222222222222222222222222222222222222222",
"22222222222222222222222222222222222222222222222222",
"22222222222222222222222222222222222222222222222222",
"22222222222222222222222222222222222222222222222222",
"22222222222222222222222222222222222222222222222222",
"22222222222222222222222222222222222222222222222222",
"22222111122222222222222222222222222222222111122222",
"22211oooX12222222222222222222222222222221Xooo11222",
"221oo$$o.XX1222222222222222222222222221XX.o$$oo122",
"221oo$$o ..X11122222222222222222222111X.. o$$oo122",
"21@*$$$oo ..XXX11122222222222222111XXX.. oo$$$*@12",
"21@*$$$6o  .XXXXXX11122222222111XXXXXX.  o6$$$*@12",
"1O=*$$6;+o ..XXXXXXXX11111111XXXXXXXX.. o+;6$$*=O1",
"1O=*$$696o  ...XXXXXXXXXXXXXXXXXXXX...  o696$$*=O1",
"2o,;;3335;o   ...XXXXXXXXXXXXXXXX...   o;5333;;,o2",
"oo,;33349$6oo   ....XXXXXXXXXX....   oo6$94333;,oo",
"o#-533339555+$$    .....XX.....    $$+555933335-#o",
"o#-33333498955$6$$     ....     $$6$55989433333-#o",
"o;%3333334448986$&$$$$      $$$$&$6898444333333%;o",
"o;333333333344499:>$<6$$$$$$6<$>:994443333333333;o",
"o333333333333334898577555555775898433333333333333o",
"o333333333333333444889779977988444333333333333333o",
"%333333333333333333444444444444333333333333333333%"
};
