/* XPM */
static char *result[] = {
/* columns rows colors chars-per-pixel */
"50 50 7 1 ",
"  c #638B4C",
". c #55B14E",
"X c #E1991A",
"o c #FABD3A",
"O c #EDC482",
"+ c #BDF7FF",
"@ c white",
/* pixels */
"                                                  ",
"                                                  ",
"                                        @         ",
"                                       +X+        ",
"                                       .+.        ",
"                                        .         ",
"                     @           +                ",
"            +       +X+         +o@               ",
"           +X+      .+.         .+.               ",
"           .+.       .           .                ",
"            .                                     ",
"                          +               +       ",
"           +             +o@             +o@      ",
"          @o+            .+.             .+.      ",
"          .+.             .        +      .       ",
"           .                  +   +X+             ",
"     +                       +o+  .+.             ",
"    +o@          +           .+.   .           @  ",
"    .+.         +X+       +   .               +X+ ",
"     .          .+.      +O+      +           .+. ",
"                 .       .+.     @o+           .  ",
"                          .      .+.              ",
"                                  .               ",
"                              +             +     ",
"                             +O+           +X+    ",
"            +                .@.           .+.    ",
"           @o+    @           .             .     ",
"      @    .+.   +X+                +             ",
"     +X+    .    .+.               +X@     +      ",
"     .+.          .                .+.    @o+     ",
"      .      +                      .     .+.     ",
"            +X+                            .      ",
"            .+.                                   ",
"             .    +                               ",
"                 +X+                              ",
"            +    .+.                              ",
"           @o+    .      @                        ",
"           .+.          +X+                       ",
"   +        .    +      .+.                       ",
"  +o@           @o+      .             @          ",
"  .+.           .+.            +      +X+         ",
"   .      @      .            +X+     .+.         ",
"         +X+                  .+.      .          ",
"         .+.                   .                  ",
"          .                                       ",
"                              +                   ",
"                  +          @o+                  ",
"                 +o@         .+.                  ",
"                 .+.          .                   ",
"                  .                               "
};
