/* XPM */
static char *da9713b273294c2dc9f58ea99e9210edVlbz0B8hNQAVeKoo[] = {
/* columns rows colors chars-per-pixel */
"50 50 17 1 ",
"  c #3A3A50",
". c #46465E",
"X c #455C5B",
"o c #A13A30",
"O c #D93232",
"+ c #E63F38",
"@ c #AB4A36",
"# c #B35E3F",
"$ c #916662",
"% c #9C786B",
"& c #FC5C46",
"* c #638B4C",
"= c #55B14E",
"- c #69AD59",
"; c #B99E86",
": c #D0BE9C",
"> c #E0D0B2",
/* pixels */
"**************************************************",
"**************************************************",
"***   *****    ***********************************",
"** >&> *** &&>> ****   ***************************",
"** O>O ** +>+++O ** >OO **************************",
"** O>O ** +>+++O ** OO ***************************",
"--- ; *** OOO>>O *** ;X***************************",
"**-;X***** $;$$ **-;;X-***************************",
"****--*****X;--****---****************************",
"****--*****X;-**********    **********************",
"***********--********** &&>> *********************",
"******   ************* +>+++O ********************",
"***** O>O ************ +>+++O ********************",
"****** OO ******   *** OOO>>O ********************",
"******X; ****** >&> *** $;$$ *********************",
"******-X;;-**** O>O ****X;--**********************",
"*******---***** O>O ****X;-***********************",
"*************--- ; *****--************************",
"**   **********-;X********************************",
"* >&> ***********--*******************************",
"* O>O ********************************************",
"* O>O ********************************************",
"** ; ---******************************************",
"***X;-********************************************",
"**--**********************************************",
"**************************************************",
"**************************************************",
"**************************************************",
"**************************************************",
"**************************************************",
"**************************************************",
"*******************************************   ****",
"****************************************** ### ***",
"******************************************* ; ****",
"*****************************************===X;****",
"********************************************=X;=**",
"**************************************************",
"************************************   ***********",
"*********************************** ### **********",
"*********************************** @o@ ***.. ****",
"************************************ ; ***.### ***",
"************************************=X;=* ;@@@; **",
"*********************************   *==** $;:;% **",
"******************************** ### **..  *:X****",
"******************************** @o@ *.>>>> ******",
"********************************* ; ** ::;: ******",
"********************************=;X=***  # *******",
"*********************************==***=##X=*******",
"**************************************************",
"**************************************************"
};
