/* XPM */
static char *e6d776bdf8e147dc8e4ffdcc09efb0860LRQXvfk9cLGqrEG[] = {
/* columns rows colors chars-per-pixel */
"50 50 10 1 ",
"  c #3A3A50",
". c #455C5B",
"X c #D93232",
"o c #E63F38",
"O c #916662",
"+ c #FC5C46",
"@ c #638B4C",
"# c #69AD59",
"$ c #B99E86",
"% c #E0D0B2",
/* pixels */
"@@@@@@@@@@@@@@@@@@@@@@@@@@@@@@@@@@@@@@@@@@@@@@@@@@",
"@@@@@@@@@@@@@@@@@@@@@@@@@@@@@@@@@@@@@@@@@@@@@@@@@@",
"@@@@@@@@@@@@@@@@@@@@@@@@@@@@@@@@@@@@@@@@@@@@@@@@@@",
"@@@@@@@@@@@@@@@@@@@@@@@@@@@@@@@@@@@@@@@@@@@@@@@@@@",
"@@@@@@@@@@@@@@@@@@@@@@@@@@@@@@@@@@@@@@@@@@@@@@@@@@",
"@@@@@@@@@@@@@@@@@@@@@@@@@@@@@@@@@@@@@@@@@@@@@@@@@@",
"@@@@@@@@@@@@@@@@@@@@@@@@@@@@@@@@@@@@@@@@@@@@@@@@@@",
"@@@@@@@@@@@@@@@@@@@@@@@@@@@@@@@@@@@@@@@@@@@@@@@@@@",
"@@@@@@@@@@@@@@@@@@@@@@@@@@@@@@@@@@@@@@@@@@@@@@@@@@",
"@@@@@@@@@@@@@@@@@@@@@@@@@@@@@@@@@@@@@@@@@@@@@@@@@@",
"@@@@@@@@@@@@@@@@@@@@@@@@@@@@@@@@@@@@@@@@@@@@@@@@@@",
"@@@@@@@@@@@@@@@@@@@@@@@@@@@@@@@@@@@@@@@@@@@@@@@@@@",
"@@@@@@@@@@@@@@@@@@@@@@@@@@@@@@@@@@@@@@@@@@@@@@@@@@",
"@@@@@@@@@@@@@@@@@@@@@@@@@@@@@@@@@@@@@@@@@@@@@@@@@@",
"@@@@@@@@@@@@@@@@@@@@@@@@@@@@@@@@@@@@@@@@@@@@@@@@@@",
"@@@@@@@@@@@@@@@@@@@@@@@@@@@@@@@@@@@@@@@@@@@@@@@@@@",
"@@@@@@@@@@@@@@@@@@@@@@@@@@@@@@@@@@@@@@@@@@@@@@@@@@",
"@@@@@@@@@@@@@@@@@@@@@@@@@    @@@@@   @@@@@@@@@@@@@",
"@@@@@@@@@@@@@@@@@   @@@@ %%++ @@@ %+% @@@@@@@@@@@@",
"@@@@@@@@@@@@@@@@ XX% @@ Xooo%o @@ X%X @@@@@@@@@@@@",
"@@@@@@@@@@@@@@@@@ XX @@ Xooo%o @@ X%X @@@@@@@@@@@@",
"@@@@@@@@@@@@@@@@@.$ @@@ X%%XXX @@@ $ ###@@@@@@@@@@",
"@@@@@@@@@@@@@@@@@#.$$#@@ OO$O @@@@@.$#@@@@@@@@@@@@",
"@@@@@@@@@@@@@@@@@@###@@@@##$.@@@@@##@@@@@@@@@@@@@@",
"@@@@@@@@@@@@    @@@@@@@@@@#$.@@@@@##@@@@@@@@@@@@@@",
"@@@@@@@@@@@ %%++ @@@@@@@@@@##@@@@@@@@@@@@@@@@@@@@@",
"@@@@@@@@@@ Xooo%o @@@   @@@@@@@   @@@@@@@@@@@@@@@@",
"@@@@@@@@@@ Xooo%o @@ %+% @@@@@ X%X @@@@@@@@@@@@@@@",
"@@@@@@@@@@ X%%XXX @@ X%X @@@@@ XX @@@@@@@@@@@@@@@@",
"@@@@@@@@@@@ OO$O @@@ X%X @@@@@@ $.@@@@@@@@@@@@@@@@",
"@@@@@@@@@@@@##$.@@@@@ $ ###@@#$$.#@@@@@@@@@@@@@@@@",
"@@@@@@@@@@@@@#$.@@@@@@.$#@@@@@###@@@@@@@@@@@@@@@@@",
"@@@@@@@@@@@@@@##@@@@@##@@@@@@@@@@@@@@@@@@@@@@@@@@@",
"@@@@@@@@@@@@@@@@@@@@@@@@@@@@@@@@@@@@@@@@@@@@@@@@@@",
"@@@@@@@@@@@@@@@@@@@@@@@@@@@@@@@@@@@@@@@@@@@@@@@@@@",
"@@@@@@@@@@@@@@@@@@@@@@@@@@@@@@@@@@@@@@@@@@@@@@@@@@",
"@@@@@@@@@@@@@@@@@@@@@@@@@@@@@@@@@@@@@@@@@@@@@@@@@@",
"@@@@@@@@@@@@@@@@@@@@@@@@@@@@@@@@@@@@@@@@@@@@@@@@@@",
"@@@@@@@@@@@@@@@@@@@@@@@@@@@@@@@@@@@@@@@@@@@@@@@@@@",
"@@@@@@@@@@@@@@@@@@@@@@@@@@@@@@@@@@@@@@@@@@@@@@@@@@",
"@@@@@@@@@@@@@@@@@@@@@@@@@@@@@@@@@@@@@@@@@@@@@@@@@@",
"@@@@@@@@@@@@@@@@@@@@@@@@@@@@@@@@@@@@@@@@@@@@@@@@@@",
"@@@@@@@@@@@@@@@@@@@@@@@@@@@@@@@@@@@@@@@@@@@@@@@@@@",
"@@@@@@@@@@@@@@@@@@@@@@@@@@@@@@@@@@@@@@@@@@@@@@@@@@",
"@@@@@@@@@@@@@@@@@@@@@@@@@@@@@@@@@@@@@@@@@@@@@@@@@@",
"@@@@@@@@@@@@@@@@@@@@@@@@@@@@@@@@@@@@@@@@@@@@@@@@@@",
"@@@@@@@@@@@@@@@@@@@@@@@@@@@@@@@@@@@@@@@@@@@@@@@@@@",
"@@@@@@@@@@@@@@@@@@@@@@@@@@@@@@@@@@@@@@@@@@@@@@@@@@",
"@@@@@@@@@@@@@@@@@@@@@@@@@@@@@@@@@@@@@@@@@@@@@@@@@@",
"@@@@@@@@@@@@@@@@@@@@@@@@@@@@@@@@@@@@@@@@@@@@@@@@@@"
};
