/* XPM */
static char *_b4ba1b555894f76e7ae70bd812a1d9dLChkGBOHggPGw0bx[] = {
/* columns rows colors chars-per-pixel */
"50 50 10 1 ",
"  c #3A3A50",
". c #46465E",
"X c #5E4E50",
"o c #7D6961",
"O c #638B4C",
"+ c #69AD59",
"@ c #9E8277",
"# c #A5907B",
"$ c #B5A07F",
"% c #CBBD97",
/* pixels */
"OOOOOOOOOOOOOOOOOOOOOOOOOOOOOOOOOOOOOOOOOOOOOOOOOO",
"OOOOOOOOOOOOOOOOOOOOOOOOOOOOOOOOOOOOOOOOOOOOOOOOOO",
"OOOOOOOOOOOOOOOOOOOOOOOOOOOOOOOOOOOOOOOOOOOOOOOOOO",
"OOOOOOOOOOOOOOOOOOOOOOOOOOOOOOOOOOOOOOOOOOOOOOOOOO",
"OOOOOOOOOOOOOOOOOOOOOOOOOOOOOOOOOOOOOOOOOOOOOOOOOO",
"OOOOOOOOOOOOOOOOOOOOOOOOOOOOOOOOOOOOOOOOOOOOOOOOOO",
"OOOOOOOOOOOOOOOOOOOOOOOOOOOOOOOOOOOOOOOOOOOOOOOOOO",
"OOOOOOOOOOOOOOOOOOOOOOOOO    .....OOOOOOOOOOOOOOOO",
"OOOOOOOOOOOOOOOOOOOOOOOO @$$$%%%$$ OOOOOOOOOOOOOOO",
"OOOOOOOOOOOOOOOOOOOOOOOO o@@@##### OOOOOOOOOOOOOOO",
"OOOOOOOOOOOOOOOOOOOOOOOO Xoo@  +  ++OOOOOOOOOOOOOO",
"OOOOOOOOOOOOOOOOOOOOOOO+     +++++OOOOOOOOOOOOOOOO",
"OOOOOOOOOOOOOOOOOOOOOOOO++++++OOOOOOOOOOOOOOOOOOOO",
"OOOOOOOOOOOOOOOOOOOOOOOOO+OOOOOOOOOOOOOOOOOOOOOOOO",
"OOOOOOOOOOOOOOOOOOOOOOOOOOOOOOOOOOOOOOOOOOOOOOOOOO",
"OOOOOOOOOOOOOOOOOOOOOOOOOOOOOOOOOOOOOOOOOOOOOOOOOO",
"OOOOOOOOOOOOOOOOOOOOOOOOOOOOOOOOOOOOOOOOOOOOOOOOOO",
"OOOOOOOOOOOOOOOOOOOOOOOOOOOOOOOOOOOOOOOOOOOOOOOOOO",
"OOOOOOO.....    OOOOOOOOOOOOOOOOOOOOOOOOOOOOOOOOOO",
"OOOOOO $$%%%$$$@ OOOOOOOOOOOOOOOOOOOOOOOOOOOOOOOOO",
"OOOOOO #####@@@o OOOOOOOOOOOOOOOOOOOOO    .....OOO",
"OOOO+++  +  @ooX +OOOOOOOOOOOOOOOOOOO @$$$%%%$$ OO",
"OOOOOOO+++++     +OOOOOOOOOOOOOOOOOOO o@@@##### OO",
"OOOOOOOOOOOO+++++OOOOOOOOOOOOOOOOOOO+ Xoo@  +  +++",
"OOOOOOOOOOOOOO+OOOOOOOOOOOOOOOOOOOO++     +++++OOO",
"OOOOOOOOOOOOOOOOOOOOOOOOOOOOOOOOOOOO++++++OOOOOOOO",
"OOOOOOOOOOOOOOOOOOOOOOOOOOOOOOOOOOOOOO++OOOOOOOOOO",
"OOOOOOOOOOOOOOOOOOOOOOOOOOOOOOOOOOOOOOOOOOOOOOOOOO",
"OOOOOOOOOOOOOOOOOOOOOOOOOOOOOOOOOOOOOOOOOOOOOOOOOO",
"OOOOOOOOOOOOOOOOOOOOOOOOOOOOOOOOOOOOOOOOOOOOOOOOOO",
"OOOOOOOOOOOOOOOOOOOOOOOOOOOOOOOOOOOOOOOOOOOOOOOOOO",
"OOOOOOOOOOOOOOOOOOOOOOOOOO    .....OOOOOOOOOOOOOOO",
"OOOOOOOOOOOOOOOOOOOOOOOOO @$$$%%%$$ OOOOOOOOOOOOOO",
"OOOOOOOOOOOOOOOOOOOOOOOOO o@@@##### OOOOOOOOOOOOOO",
"OOOOOOOOOOOOOOOOOOOOOOOO+ Xoo@  +  +++OOOOOOOOOOOO",
"OOOOOOOOOOOOOOOOOOOOOOOO+     +++++OOOOOOOOOOOOOOO",
"OOOOOOOOOOOOOOOOOOOOOOOOO+++++OOOOOOOOOOOOOOOOOOOO",
"OOOOOOOOOOOOOOOOOOOOOOOOOOO+OOOOOOOOOOOOOOOOOOOOOO",
"OOOOOOOOOOOOOOOOOOOOOOOOOOOOOOOOOOOOOOOOOOOOOOOOOO",
"OOOOOOOOOOOOOOOOOOOOOOOOOOOOOOOOOOOOOOOOOOOOOOOOOO",
"OOOOOOOOOOOOOOOOOOOOOOOOOOOOOOOOOOOOOOOOOOOOOOOOOO",
"OOOOOOOO.....    OOOOOOOOOOOOOOOOOOOOOOOOOOOOOOOOO",
"OOOOOOO $$%%%$$$@ OOOOOOOOOOOOOOOOOOOOOOOOOOOOOOOO",
"OOOOOOO #####@@@o OOOOOOOOOOOOOOOOOOOOOOOOOOOOOOOO",
"OOOOO+++  +  @ooX OOOOOOOOOOOOOOOOOOOOOOOOOOOOOOOO",
"OOOOOOOO+++++     +OOOOOOOOOOOOOOOOOOOOOOOOOOOOOOO",
"OOOOOOOOOOOO++++++OOOOOOOOOOOOOOOOOOOOOOOOOOOOOOOO",
"OOOOOOOOOOOOOOOO+OOOOOOOOOOOOOOOOOOOOOOOOOOOOOOOOO",
"OOOOOOOOOOOOOOOOOOOOOOOOOOOOOOOOOOOOOOOOOOOOOOOOOO",
"OOOOOOOOOOOOOOOOOOOOOOOOOOOOOOOOOOOOOOOOOOOOOOOOOO"
};
