/* XPM */
static char *aea1c83acde940e689e1567fed5154f5KiRLdKBs9wTQkK9K[] = {
/* columns rows colors chars-per-pixel */
"50 50 7 1 ",
"  c #1A2221",
". c #2D3F22",
"X c #28443A",
"o c #286A4D",
"O c #53BC34",
"+ c #36954A",
"@ c #638B4C",
/* pixels */
"@@@@@@@@@@@@@@@@@@@@@@@@@@@@@@@@@@@@@@@@@@@@@@@@@@",
"@@@@@@@@@@@@@@@@ooo@@@@@@@@@@@@@@@@@@@@@@@@@@@@@@@",
"@@@@@@@@@@@@@@@@ooo@@@@@@@@@@@@@@@@@@@@@@@@@@@@@@@",
"@@@@@@@@@@@@@@@oOOOooooo@@@@@ooo@@@@@@@@@@@@@@@@@@",
"@@@@@@@@@@@@@@@oOOOoo+++o@@ooOOOo@@@@@@@@@@@@@@@@@",
"@@@@@@@@@@@@@@@oOOOoo+++o@@ooOOOo@@@@@@@@@@@@@@@@@",
"@@@@@@@@@@@oooooOOOoo++++ooooOOOOooo@@ooo@@@@@@@@@",
"@@@@@@@@@@oOOOO++++++o+++oooooOOOXXooo+++XX@@@@@@@",
"@@@@@@@@@@oOOOO++++++o+++oooooOOOXXooo+++XX@@@@@@@",
"@@@@@@@@@@oOOOO+oo++++ooo+++++++oXXo+++++XX@@@@@@@",
"@@@@@@@@@@oooooO++OOO+oo+++OOO+++ooo++++oXX@@@@@@@",
"@@@@@@@@@@oooooO++OOO+oo+++OOO+++ooo++++oXX@@@@@@@",
"@@@@@@@@oo+ooOOOOOOOOO+++OOOOOOO+++XoooooXX@@@@@@@",
"@@@@@@@@oo+ooOOOOOOOOO+++OOOOOOO+++XoooooXX@@@@@@@",
"@@@@@@@@oo+++OOOOOOOOO++OOOOOOOO++++ooooXXX@@@@@@@",
"@@@@@@@o+++++OOO++OOOOooOOOOOO++++++ooXXooo @@@@@@",
"@@@@@@@o+++++OOO++OOOOooOOOOOO++++++ooXXooo @@@@@@",
"@@@@@@@oooo++++O+++OOo++oOOOO+oo+++oXXooooo @@@@@@",
"@@@@@@@o+++oo+++++ooo++++ooooooo+ooXooXXXXX @@@@@@",
"@@@@@@@o+++oo+++++ooo++++ooooooo+ooXooXXXXX @@@@@@",
"@@@@@  ++++oooooooo++++++oo+++oooXXooooooXX @@@@@@",
"@@@@@  +++XXXXXoooOoo+OOo++OOOOOooooooooo     @@@@",
"@@@@@  +++XXXXXoooOoo+OOo++OOOOOooooooooo     @@@@",
"@@@@@  XXXoooooX++O++OOO+OOOOOOOOXXoooXX ooo  @@@@",
"@@@@@  XXXoooooX++O++OOO+OOOOOOOOXXoooXX ooo  @@@@",
"@@@@@  XoooooooXOOOOOOOOOOOOOOOOOXXoooXXXooo  @@@@",
"@@@@@@@ oooooXXoOOOXXOOOOXXOOOOOOXXXXXXXXXX   @@@@",
"@@@@@@@ oooooXXoOOOXXOOOOXXOOOOOOXXXXXXXXXX   @@@@",
"@@@@@@@      oooooXXXOOOoXXXXOOOooo     XXX   @@@@",
"@@@@@@@      oooooXXXXXXXXXoooXXoooo        @@@@@@",
"@@@@@@@      oooooXXXXXXXXXoooXXoooo        @@@@@@",
"@@@@@@@    XXXX    oooXXoXXooooo ooo  XXX  ...@@@@",
"@@@@@@@   XXXXX   ooooooooo  ooo    XXXXX  ...@@@@",
"@@@@@@@   XXXXX   ooooooooo  ooo    XXXXX  ...@@@@",
"@@@@@@@.  XXX     ooooooooo         XXXX   ...@@@@",
"@@@@@.....        Xoo XXoXX     XXX      ......@@@",
"@@@@@.....        Xoo XXoXX     XXX      ......@@@",
"@@@@@........                 XXXXX     .......@@@",
"@@@@@........                 XXXXX     .......@@@",
"@@@@@..........               XXX     .........@@@",
"@@@@@...........      ...          ...........@@@@",
"@@@@@...........      ...          ...........@@@@",
"@@@@@@@.......................................@@@@",
"@@@@@@@@...................................@@@@@@@",
"@@@@@@@@...................................@@@@@@@",
"@@@@@@@@@@@@@......@@@@@@@@@@.........@@@@@@@@@@@@",
"@@@@@@@@@@@@@@@@@@@@@@@@@@@@@@@@@@@@@@@@@@@@@@@@@@",
"@@@@@@@@@@@@@@@@@@@@@@@@@@@@@@@@@@@@@@@@@@@@@@@@@@",
"@@@@@@@@@@@@@@@@@@@@@@@@@@@@@@@@@@@@@@@@@@@@@@@@@@",
"@@@@@@@@@@@@@@@@@@@@@@@@@@@@@@@@@@@@@@@@@@@@@@@@@@"
};
