/* XPM */
static char *a90b777153bd4a8cf81569ddf8f44797va0huZVwh7R00SdK[] = {
/* columns rows colors chars-per-pixel */
"50 50 54 1 ",
"  c #474241",
". c #564D4B",
"X c #5C4F4D",
"o c #5B514E",
"O c #625750",
"+ c #6A5755",
"@ c #685857",
"# c #6C5957",
"$ c #6D5A58",
"% c #6E5C5A",
"& c #705D5A",
"* c #735F5C",
"= c #5B6052",
"- c #73615F",
"; c #7A6765",
": c #786967",
"> c #7B6967",
", c #7F6C69",
"< c #787462",
"1 c #846F6C",
"2 c #80706D",
"3 c #90766F",
"4 c #847270",
"5 c #877370",
"6 c #877572",
"7 c #8A7571",
"8 c #887673",
"9 c #8D7672",
"0 c #8A7873",
"q c #8C7B76",
"w c #937A74",
"e c #977C75",
"r c #957D76",
"t c #9C7F77",
"y c #5D8248",
"u c #638B4C",
"i c #74A347",
"p c #7BAD4C",
"a c #8B8977",
"s c #9C8077",
"d c #9D8279",
"f c #9F847B",
"g c #9F867C",
"h c #8F947A",
"j c #9D927C",
"k c #A28F82",
"l c #A49485",
"z c #A59586",
"x c #A69788",
"c c #B2988A",
"v c #B39A8B",
"b c #B59B8C",
"n c #A5A489",
"m c #AEA78B",
/* pixels */
"uuuuuuuuyyyy@@@@@%-+++++++#++**+#++#++++**++++++++",
"uuuuuuyyyX.$7sjja<7qttfcvjjja<7qttdcbjja<7qttdcbjj",
"uuuuuyy. O1rdtjssjxxdsvbbpppppxxdtbbbppppxzddbbbpp",
"uuuuyyo,w5;qapppppppnnmppiiiiippnnmppiiiippnnmppii",
"uuuyy :4&dddppiiiiiipppiiiiiiiiipppiiiiiiiipppiiii",
"uuuyy ++4dd4piiiiiiiiiiiiiiiiiiiiiiiiiiiiiiiiiiiii",
"uuuy +++5d4piiiiiiiiiiiiiiiiiiiiiiiiiiiiiiiiiiiiii",
"uuuy +++2f4piiiiiiiiiiiiiiiiiiiiiiiiiiiiiiiiiiiiii",
"uuuy +O1d4piiiiiiiiiiiiiiiiiiiiiiiiiiiiiiiiiiiiiii",
"uuuy +O3d1piiiiiiiiiiiiiiiiiiiiiiiiiiiiiiiiiiiiiii",
"uuuy #14d4piiiiiiiiiiiiiiiiiiiiiiiiiiiiiiiiiiiiiii",
"uuuy $252dpiiiiiiiiiiiiiiiiiiiiiiiiiiiiiiiiiiiiiii",
"uuuy +27fdpiiiiiiiiiiiiiiiiiiiiiiiiiiiiiiiiiiiiiii",
"uuy ++74dd4piiiiiiiiiiiiiiiiiiiiiiiiiiiiiiiiiiiiii",
"uuy ++475d2piiiiiiiiiiiiiiiiiiiiiiiiiiiiiiiiiiiiii",
"uuy ++725d5piiiiiiiiiiiiiiiiiiiiiiiiiiiiiiiiiiiiii",
"uuuy +#74t4piiiiiiiiiiiiiiiiiiiiiiiiiiiiiiiiiiiiii",
"uuuy @$4dtpiiiiiiiiiiiiiiiiiiiiiiiiiiiiiiiiiiiiiii",
"uuuy +$6dtpiiiiiiiiiiiiiiiiiiiiiiiiiiiiiiiiiiiiiii",
"uuuy #>7ktpiiiiiiiiiiiiiiiiiiiiiiiiiiiiiiiiiiiiiii",
"uuuy $47xtpiiiiiiiiiiiiiiiiiiiiiiiiiiiiiiiiiiiiiii",
"uuuy $4ezthpiiiiiiiiiiiiiiiiiiiiiiiiiiiiiiiiiiiiii",
"uuuy $5dzt4piiiiiiiiiiiiiiiiiiiiiiiiiiiiiiiiiiiiii",
"uuy=X$5tft4piiiiiiiiiiiiiiiiiiiiiiiiiiiiiiiiiiiiii",
"uuy=X$4sgt4piiiiiiiiiiiiiiiiiiiiiiiiiiiiiiiiiiiiii",
"uuy +$5stt4piiiiiiiiiiiiiiiiiiiiiiiiiiiiiiiiiiiiii",
"uuy +>5tt9%piiiiiiiiiiiiiiiiiiiiiiiiiiiiiiiiiiiiii",
"uuy +45td2+piiiiiiiiiiiiiiiiiiiiiiiiiiiiiiiiiiiiii",
"uuy ++55t;;piiiiiiiiiiiiiiiiiiiiiiiiiiiiiiiiiiiiii",
"uuuy +$5dtpiiiiiiiiiiiiiiiiiiiiiiiiiiiiiiiiiiiiiii",
"uuuy +$5dspiiiiiiiiiiiiiiiiiiiiiiiiiiiiiiiiiiiiiii",
"uuuy +$5dspiiiiiiiiiiiiiiiiiiiiiiiiiiiiiiiiiiiiiii",
"uuuy #:7ztpiiiiiiiiiiiiiiiiiiiiiiiiiiiiiiiiiiiiiii",
"uuuy $47ztpiiiiiiiiiiiiiiiiiiiiiiiiiiiiiiiiiiiiiii",
"uuuy $4ezthpiiiiiiiiiiiiiiiiiiiiiiiiiiiiiiiiiiiiii",
"uuuy $7dlt4piiiiiiiiiiiiiiiiiiiiiiiiiiiiiiiiiiiiii",
"uuy=X$5sgt4piiiiiiiiiiiiiiiiiiiiiiiiiiiiiiiiiiiiii",
"uuy +$5ttt4piiiiiiiiiiiiiiiiiiiiiiiiiiiiiiiiiiiiii",
"uuy +>5tt7-piiiiiiiiiiiiiiiiiiiiiiiiiiiiiiiiiiiiii",
"uuy +45tt4+piiiiiiiiiiiiiiiiiiiiiiiiiiiiiiiiiiiiii",
"uuy ++74t;;piiiiiiiiiiiiiiiiiiiiiiiiiiiiiiiiiiiiii",
"uuuy +#6tepiiiiiiiiiiiiiiiiiiiiiiiiiiiiiiiiiiiiiii",
"uuuy +$4dtpiiiiiiiiiiiiiiiiiiiiiiiiiiiiiiiiiiiiiii",
"uuuy +$6dtpiiiiiiiiiiiiiiiiiiiiiiiiiiiiiiiiiiiiiii",
"uuuy #>7ktpiiiiiiiiiiiiiiiiiiiiiiiiiiiiiiiiiiiiiii",
"uuuy $47xtpiiiiiiiiiiiiiiiiiiiiiiiiiiiiiiiiiiiiiii",
"uuuy $4ezthpiiiiiiiiiiiiiiiiiiiiiiiiiiiiiiiiiiiiii",
"uuuy #4dlt4piiiiiiiiiiiiiiiiiiiiiiiiiiiiiiiiiiiiii",
"uuy=X$4dgt4piiiiiiiiiiiiiiiiiiiiiiiiiiiiiiiiiiiiii",
"uuy=X$2sgd4piiiiiiiiiiiiiiiiiiiiiiiiiiiiiiiiiiiiii"
};
