/* XPM */
static char *_5dec81898be40b29d765fea9b9562d9JpkAfuKEcUExlPzN[] = {
/* columns rows colors chars-per-pixel */
"50 50 58 1 ",
"  c #474241",
". c #544948",
"X c #584D4C",
"o c #5C4F4D",
"O c #4A4852",
"+ c #4C4952",
"@ c #4D4D55",
"# c #5D5452",
"$ c #675554",
"% c #6A5755",
"& c #6B5856",
"* c #6C5957",
"= c #6D5A58",
"- c #6D5B58",
"; c #705C59",
": c #725F5D",
"> c #5B6052",
", c #73615F",
"< c #69745E",
"1 c #746260",
"2 c #786563",
"3 c #7A6765",
"4 c #7B6967",
"5 c #7F6D6B",
"6 c #7E6D6C",
"7 c #806E6C",
"8 c #816F6D",
"9 c #82706E",
"0 c #83716F",
"q c #89706A",
"w c #88726E",
"e c #847270",
"r c #877370",
"t c #867471",
"y c #887572",
"u c #887673",
"i c #8D7672",
"p c #937A74",
"a c #947A74",
"s c #957D76",
"d c #997D76",
"f c #997E77",
"g c #9C7F77",
"h c #5D8248",
"j c #638B4C",
"k c #74A347",
"l c #7BAD4C",
"z c #998177",
"x c #9C8077",
"c c #9D8279",
"v c #9F867C",
"b c #9F887D",
"n c #8F947A",
"m c #A28E81",
"M c #A19285",
"N c #A49485",
"B c #A49486",
"V c #A69788",
/* pixels */
"kkkkkkkkkkkkkkkkkkkkkkkkkkkkkkkkkkkkkkl0gggr-& hjj",
"kkkkkkkkkkkkkkkkkkkkkkkkkkkkkkkkkkkkkkl,iggr3% hjj",
"kkkkkkkkkkkkkkkkkkkkkkkkkkkkkkkkkkkkkkl&eggr0& hjj",
"kkkkkkkkkkkkkkkkkkkkkkkkkkkkkkkkkkkkkkl3,grr%& hjj",
"kkkkkkkkkkkkkkkkkkkkkkkkkkkkkkkkkkkkkkklgcr-& hjjj",
"kkkkkkkkkkkkkkkkkkkkkkkkkkkkkkkkkkkkkkklgcr-% hjjj",
"kkkkkkkkkkkkkkkkkkkkkkkkkkkkkkkkkkkkkkklgcy*% hjjj",
"kkkkkkkkkkkkkkkkkkkkkkkkkkkkkkkkkkkkkkklgmy4& hjjj",
"kkkkkkkkkkkkkkkkkkkkkkkkkkkkkkkkkkkkkkklcVu6- hjjj",
"kkkkkkkkkkkkkkkkkkkkkkkkkkkkkkkkkkkkkklncBzw- hjjj",
"kkkkkkkkkkkkkkkkkkkkkkkkkkkkkkkkkkkkkklezNcw- hjjj",
"kkkkkkkkkkkkkkkkkkkkkkkkkkkkkkkkkkkkkklezbzw-##hjj",
"kkkkkkkkkkkkkkkkkkkkkkkkkkkkkkkkkkkkkkl0gggw-% hjj",
"kkkkkkkkkkkkkkkkkkkkkkkkkkkkkkkkkkkkkkl,iggt3% hjj",
"kkkkkkkkkkkkkkkkkkkkkkkkkkkkkkkkkkkkkkl&exgwe% hjj",
"kkkkkkkkkkkkkkkkkkkkkkkkkkkkkkkkkkkkkkl3,x0t%% hjj",
"kkkkkkkkkkkkkkkkkkkkkkkkkkkkkkkkkkkkkklrVfe%% hjjj",
"kkkkkkkkkkkkkkkkkkkkkkkkkkkkkkkkkkkkkklgVme3% hjjj",
"lllkkkkkkkkkkkklllkkkkkkkkkkkkkkkkkkklngvVae% hjjj",
"ffzlllkkkkkkkllddzlllkkkkkkkkllllkkkll8ccvfe%##hjj",
"eweefllkkkkll8r0eewzllkkkkkll8nnnlllnn,iggge3% hjj",
"88e6efMllllee-075e8edMlllllee-ee8nnnpp3,gggee% hjj",
"%%%eeuuu-ruuyew%%%eeuuu;;yyuyeee%8epgie%igiee% hjj",
"%*eeyBVVccVVNr0&&eeyBVVcccVVBeee%:eiiee31ieee% hjj",
"%*eerNVVccVBBy0&-eryBVVcccNVNywe%:eiiee3,ieee% hjj",
"%&edgcNNMMNBgdd%&edggBNMMMNNgfde%%eeeeee%eeee% hjj",
"%weeggddeedggee%weegfddewesgfee-%%eepppe%eeee. hjj",
"%8eegeeeeeeggre&8eegeeeeeeecfew&%%aaggge%eeee <jjj",
"%&eedeeeeeeege0%%eedeeeeeeeedee&%%igggie%6eee hjjj",
"%&eedwee08eeee8%%eedeee88weeee8&%%eiiie,%8eee hjjj",
"%-eeeee%%%e8e8&%-eeeee%%%%e8e8-8%%,e,ee%X8eee hjjj",
"%&eee6%%%%%%%*-%*eee6%%%%%%%&&-e&%2e3ee%8eeee hjjj",
"&%&80V-*9%*geee*&*80V-&80&&gree&*%0aci9%raeee hjjj",
"e8&**NB-g*ggee&r8**%BN-fc-ggee*80&eiiee%,iee, hjjj",
"e-ee*gggBdgge*8eeew*gggMNdgge*8e0%eeeeee%,ee3  hjj",
"-ege8ggdeedd*-eeefe0dggre0dd*;eee&eeaaae%2,eee hjj",
"*eed8ege&0e0-wd0eed8edr%&eee-0d0e&aaggde%:3183 hjj",
"-ee0&e88%&&&&78eeee&888%%%%&&88w0%igggie%%,%%e hjj",
"0w%&%**e%%ee0;&00&&&*-e%%&we0-&7e%0igge1%qq331 hjj",
"***00gge00gc0e*&%-eeggeeeefgee*&&%eagie%idiee% hjj",
"&-eeeggcgggggyr&-eeecgggggxxct0t%%eiiee*1iee,% hjj",
"&eedggggdgBggdd&eedgggcddgBzzzz0%%eeeeee%,ee3% hjj",
"%0eerddfeedgde0&eeeedddeeedddwt0%%eeaaae%3,e,.hjjj",
"&8eeeeeeeeeeee8&8eeeweeeeeee0000*%ppggge%,3,% hjjj",
"&&ee0eeee0eeeee*-eeeeeeeeeeew000%%igggie%%,%% hjjj",
"%&ew00ee00e0e88&%ee8eee808ee000%%%eiiie,%%%..hjjjj",
"$$&6*88&*&998&*$%%6%80*%%%08q$%%$%,e,ee%...hhjjjjj",
"++%6$$$6$$7$$$8+O%6$$%5$$%7&$$7>O..#.##.hhhjjjjjjj",
"<h+@@@@@@@@@@@@hh@@@@@@@@@@@@@@@hhhhhhhhjjjjjjjjjj",
"hhhhhhhhhhhhhhhjjhhhhhhhhhhhhhhhhhhhhhhhjjjjjjjjjj"
};
