/* XPM */
static char *e4724d4bc221466dd35c8300f1c5d12aWUvHKuA1nEsqN5kM[] = {
/* columns rows colors chars-per-pixel */
"50 50 59 1 ",
"  c #474241",
". c #564E4C",
"X c #5C4F4D",
"o c #5B514E",
"O c #5D524F",
"+ c #625750",
"@ c #6A5755",
"# c #685857",
"$ c #6C5957",
"% c #6D5A58",
"& c #6E5C5A",
"* c #705D5A",
"= c #705D5B",
"- c #735F5C",
"; c #5B6052",
": c #73615F",
"> c #606060",
", c #7A6765",
"< c #786967",
"1 c #7B6967",
"2 c #7F6C69",
"3 c #787462",
"4 c #846F6C",
"5 c #80706D",
"6 c #90766F",
"7 c #847270",
"8 c #857370",
"9 c #877370",
"0 c #877572",
"q c #8A7571",
"w c #887673",
"e c #8D7672",
"r c #8A7873",
"t c #8C7B76",
"y c #927770",
"u c #937A74",
"i c #977C75",
"p c #957D76",
"a c #987D76",
"s c #9C7F77",
"d c #5D8248",
"f c #638B4C",
"g c #74A347",
"h c #7BAD4C",
"j c #8B8977",
"k c #9C8077",
"l c #9D8279",
"z c #9F847B",
"x c #9F867C",
"c c #8F947A",
"v c #9D927C",
"b c #A28F82",
"n c #A49485",
"m c #A59586",
"M c #A69788",
"N c #B2988A",
"B c #B59B8C",
"V c #A5A489",
"C c #AEA78B",
/* pixels */
"@@@@@@@@:-@@@@$@@@@-:@@@@@@@@@@-&@@@#>ddddffffffff",
"vvBNzsstr3jvvBNlsstq3jvvvBNzkstr3jvvs9&.Odddffffff",
"hhBBNslMMhhhhBBBklMMhhhhhBBNklmMvssvssi8+ .ddfffff",
"gghhCVVhhgggghhCVVhhggggghhCVVhhhhhhhjt&ei1oddffff",
"gggghhhgggggggghhhggggggggghhhgggggghhzsl%8< ;dfff",
"gggggggggggggggggggggggggggggggggggggh7zl8@@ fdfff",
"ggggggggggggggggggggggggggggggggggggggh7l8@@+ dfff",
"ggggggggggggggggggggggggggggggggggggggh7l8@@% dfff",
"gggggggggggggggggggggggggggggggggggggggh8l4+@ dfff",
"gggggggggggggggggggggggggggggggggggggggh8ly+@ dfff",
"gggggggggggggggggggggggggggggggggggggggh8l81@ dfff",
"ggggggggggggggggggggggggggggggggggggggghl498@ dfff",
"ggggggggggggggggggggggggggggggggggggggghll88@ dfff",
"ggggggggggggggggggggggggggggggggggggggh8ll99@@ dff",
"ggggggggggggggggggggggggggggggggggggggh8z999@@ dff",
"ggggggggggggggggggggggggggggggggggggggh8s999@@ dff",
"ggggggggggggggggggggggggggggggggggggggh7s88%@ dfff",
"ggggggggggggggggggggggggggggggggggggggghsl9%@ dfff",
"ggggggggggggggggggggggggggggggggggggggghsl9%@ dfff",
"ggggggggggggggggggggggggggggggggggggggghsb91% dfff",
"ggggggggggggggggggggggggggggggggggggggghsMw8% dfff",
"gggggggggggggggggggggggggggggggggggggghcsmp8% dfff",
"ggggggggggggggggggggggggggggggggggggggh8snl9% dfff",
"ggggggggggggggggggggggggggggggggggggggh8sxs9%X;dff",
"ggggggggggggggggggggggggggggggggggggggh5sxs9%X;dff",
"ggggggggggggggggggggggggggggggggggggggh4sss9%@ dff",
"ggggggggggggggggggggggggggggggggggggggh,ess91@ dff",
"ggggggggggggggggggggggggggggggggggggggh@8ss98@ dff",
"ggggggggggggggggggggggggggggggggggggggh,,s88@@ dff",
"ggggggggggggggggggggggggggggggggggggggghas9%@ dfff",
"ggggggggggggggggggggggggggggggggggggggghsl9%@ dfff",
"ggggggggggggggggggggggggggggggggggggggghsl9%@ dfff",
"ggggggggggggggggggggggggggggggggggggggghsbq1$ dfff",
"ggggggggggggggggggggggggggggggggggggggghsMq8% dfff",
"gggggggggggggggggggggggggggggggggggggghcsmpq% dfff",
"ggggggggggggggggggggggggggggggggggggggh8sml5% dfff",
"ggggggggggggggggggggggggggggggggggggggh8sxs8%X;dff",
"ggggggggggggggggggggggggggggggggggggggh5sss8%@ dff",
"ggggggggggggggggggggggggggggggggggggggh:ess81@ dff",
"ggggggggggggggggggggggggggggggggggggggh$8ss87@ dff",
"ggggggggggggggggggggggggggggggggggggggh,,a99@@ dff",
"ggggggggggggggggggggggggggggggggggggggghsl8%@ dfff",
"ggggggggggggggggggggggggggggggggggggggghsl4%@ dfff",
"ggggggggggggggggggggggggggggggggggggggghsl8&@ dfff",
"ggggggggggggggggggggggggggggggggggggggghsb81@ dfff",
"ggggggggggggggggggggggggggggggggggggggghsMwq= dfff",
"gggggggggggggggggggggggggggggggggggggghcsMa5% dfff",
"ggggggggggggggggggggggggggggggggggggggh8sml9% dfff",
"ggggggggggggggggggggggggggggggggggggggh8sxs9%X;dff",
"ggggggggggggggggggggggggggggggggggggggh7sls8%X;dff"
};
