/* XPM */
static char *_4b5d9f14c23442bfccc4282281ab6d99TBrhB4f7nr2KEoh[] = {
/* columns rows colors chars-per-pixel */
"50 50 26 1 ",
"  c #474241",
". c #5C4F4D",
"X c #6A5755",
"o c #6C5957",
"O c #6D5A58",
"+ c #5B6052",
"@ c #73615F",
"# c #7A6765",
"$ c #7B6967",
"% c #847270",
"& c #877370",
"* c #887673",
"= c #8D7672",
"- c #957D76",
"; c #9C7F77",
": c #5D8248",
"> c #638B4C",
", c #74A347",
"< c #7BAD4C",
"1 c #9C8077",
"2 c #9D8279",
"3 c #9F867C",
"4 c #8F947A",
"6 c #A28F82",
"7 c #A49485",
"8 c #A69788",
/* pixels */
",,,,,,,,,,,,,,,,,,,,,,,,,,,,,,,,,,,,,,<%12&&XX :>>",
",,,,,,,,,,,,,,,,,,,,,,,,,,,,,,,,,,,,,,<%2&&&XX >>>",
",,,,,,,,,,,,,,,,,,,,,,,,,,,,,,,,,,,,,,<%2&&&XX :>>",
",,,,,,,,,,,,,,,,,,,,,,,,,,,,,,,,,,,,,,<%1&&Oo :>>>",
",,,,,,,,,,,,,,,,,,,,,,,,,,,,,,,,,,,,,,,<12&OX :>>>",
",,,,,,,,,,,,,,,,,,,,,,,,,,,,,,,,,,,,,,,<;2&oX :>>>",
",,,,,,,,,,,,,,,,,,,,,,,,,,,,,,,,,,,,,,,<;6*$o >>>>",
",,,,,,,,,,,,,,,,,,,,,,,,,,,,,,,,,,,,,,,<;8*%O +>>>",
",,,,,,,,,,,,,,,,,,,,,,,,,,,,,,,,,,,,,,<418-%o :>>>",
",,,,,,,,,,,,,,,,,,,,,,,,,,,,,,,,,,,,,,<%;71&O :>>>",
",,,,,,,,,,,,,,,,,,,,,,,,,,,,,,,,,,,,,,<%;3;&O.+:>>",
",,,,,,,,,,,,,,,,,,,,,,,,,,,,,,,,,,,,,,<%;3;*O.+:>>",
",,,,,,,,,,,,,,,,,,,,,,,,,,,,,,,,,,,,,,<%;;;&oX :>>",
",,,,,,,,,,,,,,,,,,,,,,,,,,,,,,,,,,,,,,<@=;;&$X :>>",
",,,,,,,,,,,,,,,,,,,,,,,,,,,,,,,,,,,,,,<X%;;&%X :>>",
",,,,,,,,,,,,,,,,,,,,,,,,,,,,,,,,,,,,,,<#@;&&XX :>>",
",,,,,,,,,,,,,,,,,,,,,,,,,,,,,,,,,,,,,,,<;2&oX :>>>",
",,,,,,,,,,,,,,,,,,,,,,,,,,,,,,,,,,,,,,,<;2*OX :>>>",
",,,,,,,,,,,,,,,,,,,,,,,,,,,,,,,,,,,,,,,<;1&oo :>>>",
",,,,,,,,,,,,,,,,,,,,,,,,,,,,,,,,,,,,,,,<;6*$o :>>>",
",,,,,,,,,,,,,,,,,,,,,,,,,,,,,,,,,,,,,,,<;8*%o :>>>",
",,,,,,,,,,,,,,,,,,,,,,,,,,,,,,,,,,,,,,<4;8-&O :>>>",
",,,,,,,,,,,,,,,,,,,,,,,,,,,,,,,,,,,,,,<%;71&O :>>>",
",,,,,,,,,,,,,,,,,,,,,,,,,,,,,,,,,,,,,,<%;31&O.+:>>",
",,,,,,,,,,,,,,,,,,,,,,,,,,,,,,,,,,,,,,<%;3;&o.+:>>",
",,,,,,,,,,,,,,,,,,,,,,,,,,,,,,,,,,,,,,<%;;;&oX :>>",
",,,,,,,,,,,,,,,,,,,,,,,,,,,,,,,,,,,,,,<@=;;&$o :>>",
",,,,,,,,,,,,,,,,,,,,,,,,,,,,,,,,,,,,,,<X%;;&%X :>>",
",,,,,,,,,,,,,,,,,,,,,,,,,,,,,,,,,,,,,,<#@;&&XX :>>",
",,,,,,,,,,,,,,,,,,,,,,,,,,,,,,,,,,,,,,,<;2&oX :>>>",
",,,,,,,,,,,,,,,,,,,,,,,,,,,,,,,,,,,,,,,<12&oX :>>>",
",,,,,,,,,,,,,,,,,,,,,,,,,,,,,,,,,,,,,,,<;1*Oo :>>>",
",,,,,,,,,,,,,,,,,,,,,,,,,,,,,,,,,,,,,,,<;6*$o :>>>",
",,,,,,,,,,,,,,,,,,,,,,,,,,,,,,,,,,,,,,,<;8*%o :>>>",
",,,,,,,,,,,,,,,,,,,,,,,,,,,,,,,,,,,,,,<4;7-%o :>>>",
",,,,,,,,,,,,,,,,,,,,,,,,,,,,,,,,,,,,,,<%;72*o :>>>",
",,,,,,,,,,,,,,,,,,,,,,,,,,,,,,,,,,,,,,<%;3;&O.+:>>",
",,,,,,,,,,,,,,,,,,,,,,,,,,,,,,,,,,,,,,<%;;;&Oo :>>",
",,,,,,,,,,,,,,,,,,,,,,,,,,,,,,,,,,,,,,<@=;;&$X :>>",
",,,,,,,,,,,,,,,,,,,,,,,,,,,,,,,,,,,,,,<X%;1%%X :>>",
",,,,,,,,,,,,,,,,,,,,,,,,,,,,,,,,,,,,,,<#@;&&XX :>>",
",,,,,,,,,,,,,,,,,,,,,,,,,,,,,,,,,,,,,,,<;2*OX :>>>",
",,,,,,,,,,,,,,,,,,,,,,,,,,,,,,,,,,,,,,,<;2&oX :>>>",
",,,,,,,,,,,,,,,,,,,,,,,,,,,,,,,,,,,,,,,<;2&oX :>>>",
",,,,,,,,,,,,,,,,,,,,,,,,,,,,,,,,,,,,,,,<;7*$o :>>>",
",,,,,,,,,,,,,,,,,,,,,,,,,,,,,,,,,,,,,,,<;7*%o :>>>",
",,,,,,,,,,,,,,,,,,,,,,,,,,,,,,,,,,,,,,<4;7-&o :>>>",
",,,,,,,,,,,,,,,,,,,,,,,,,,,,,,,,,,,,,,<%;71*o :>>>",
",,,,,,,,,,,,,,,,,,,,,,,,,,,,,,,,,,,,,,<%;3;&o.+:>>",
",,,,,,,,,,,,,,,,,,,,,,,,,,,,,,,,,,,,,,<%;31&O.+:>>"
};
