/* XPM */
static char *d76254ec73ea4392bf9624bbb5de798e18XSLELzkBFdTAu0[] = {
/* columns rows colors chars-per-pixel */
"50 50 18 1 ",
"  c #4A4852",
". c #6A5755",
"X c #6D5A58",
"o c #73615F",
"O c #7A6765",
"+ c #847270",
"@ c #877370",
"# c #8D7672",
"$ c #997D76",
"% c #9C7F77",
"& c #5D8248",
"* c #74A347",
"= c #7BAD4C",
"- c #9C8077",
"; c #9D8279",
": c #8F947A",
"> c #A49485",
", c #A69788",
/* pixels */
"**************************************************",
"**************************************************",
"**************************************************",
"**************************************************",
"**************************************************",
"**************************************************",
"**************************************************",
"**************************************************",
"**************************************************",
"**************************************************",
"**************************************************",
"**************************************************",
"**************************************************",
"**************************************************",
"**************************************************",
"**************************************************",
"**************************************************",
"**************************************************",
"**************************************************",
"======********************************************",
"$$$$$$==******************************************",
"++++++@@%=****************************************",
"++++++@@%==***************************************",
",,,,,,@@@oo=**************************************",
",,,,,,@@@oo=**************************************",
"%$%%$%,,@-%=**************************************",
"+%;+%;,,+-%=**************************************",
"++++%;,,+%%=**************************************",
"+++++++++%%=**************************************",
"+++++++++%%=**************************************",
"XXXXXX@@;%%+=*************************************",
"@%%@>>XX-%%+=*************************************",
"@%%@>>XX-%%+=*************************************",
"@%%@>>XX-%%+=*************************************",
"%%%%%%%%X##o=*************************************",
"%%%%%%@@%++.=*************************************",
"%%%%%%@@@ooO=*************************************",
"@@@@@@@@@%%=**************************************",
"XXXXXXXX@%%=**************************************",
"%%%%%%XXX%%=**************************************",
"%%;%%;%%X%%=**************************************",
";;;;;;%%X%%=**************************************",
"++;++;%%>%%:=*************************************",
"++++++++;%%+=*************************************",
"++++++++-%%+=*************************************",
"+++++++++%%+=*************************************",
"..+..+++%##o=*************************************",
"..+..+++%##o=*************************************",
"    ..++%++.=*************************************",
"&&&& .@@@ooO=*************************************"
};
