/* XPM */
static char *_f783322d9944eed8df4fba504e72131fXzJQevlGW54OpKj[] = {
/* columns rows colors chars-per-pixel */
"50 50 34 1 ",
"  c #4A4852",
". c #4D4D55",
"X c #675554",
"o c #6A5755",
"O c #6B5856",
"+ c #6D5957",
"@ c #6D5A58",
"# c #6D5B58",
"$ c #705C59",
"% c #7F6D6B",
"& c #7E6D6C",
"* c #806E6C",
"= c #806F6E",
"- c #82706E",
"; c #83716F",
": c #847270",
"> c #877370",
", c #867471",
"< c #887572",
"1 c #887673",
"2 c #997D76",
"3 c #997E77",
"4 c #9C7F77",
"5 c #5D8248",
"6 c #638B4C",
"7 c #74A347",
"8 c #7BAD4C",
"9 c #998177",
"0 c #9C8077",
"q c #9D8279",
"w c #A19285",
"e c #A49485",
"r c #A59586",
"t c #A69788",
/* pixels */
"77777777777777777777777777777777777777777777777777",
"77777777777777777777777777777777777777777777777777",
"77777777777777777777777777777777777777777777777777",
"77777777777777777777777777777777777777777777777777",
"77777777777777777777777777777777777777777777777777",
"77777777777777777777777777777777777777777777777777",
"77777777777777777777777777777777777777777777777777",
"77777777777777777777777777777777777777777777777777",
"77777777777777777777777777777777777777777777777777",
"77777777777777777777777777777777777777777777777777",
"77777777777777777777777777777777777777777777777777",
"77777777777777777777777777777777777777777777777777",
"77777777777777777777777777777777777777777777777777",
"77777777777777777777777777777777777777777777777777",
"77777777777777777777777777777777777777777777777777",
"77777777777777777777777777777777777777777777777777",
"77777777777777777777777777777777777777777777777777",
"77777777777777777777777777777777777777777777777777",
"88877777777777788877777777777777888777777777777888",
"22988877777778822988877777777888922887777777888922",
"::::988777788*:::::088777777889:-:::*887777889::*:",
"**:*:3w8888::@:*%:*:2w888888w3:*:**:@::8888w3:*:**",
"ooO::111$<<<<:;ooo::<11$<$$1<<::ooo::1<<<$<11::ooO",
"oo:><rtrqqttr>>oO::<rttqqqqttr<<-+o><rttqqrtr<<:Oo",
"o+:><ettqqtte>:Oo:><ettqqqqrtr:<:+O-<rrtqqtrr<<:Oo",
"oo:444eewwre422o+:244eewwwwrr942-+o22qrrwwrr4q2:Oo",
"o:::4422::244::o:::4424;:::2244;::+:-442::4244:::+",
"o*::4::::::44::o*::4::::::::::4::&O:-q4-::-:-4::&o",
"o+::2::::=::4::oo::4:::;:::;::2::++-:2:::::::2::oo",
"oo::2::::*>:::*o+:;2:::;;:*;::4:;@o*::::*-:::2::Oo",
"o@:::::ooo:=:*oo@:::;:oooooo::;::@Oo::*:oo+:::::@o",
"oo::;*oooo@oo@$oo::;*ooooooOO*;:*Oo@o+oooooo*::*+o",
"+o@*=t$+*Oo4<::++o*:t@+*+*;o+t:*+O+*:<qoo*++r--+o@",
":*o@Oer+0+40;;+;*+@Orr@4+9q@rr+O+*:@::44+q@rr+OO::",
":@::+444r2q0;+-;::-+200r2rr444+;:::-+-402r442O::@:",
"@:4>;444-;22+@:::9:-244;;:;244*;q:::++42;:24q-:9:@",
"@::4*:4=O-;;@;2;::2-:0;o:oo:4:;4;::2:@::-o:2;*2::@",
"@:::O==;oo+@+*;::-:+-*;oooO*:*o::::**+ooO+;-*+:::O",
"::@O+++:o+-::@+-;+o+++:O+oo:@o@o+::o@:::+X:+++@o::",
"ooO:;42::-40,-+++@-;44:;::::34;:+oo@::44:--44::+oO",
"o$:::444040q4>;o@::<q404444042,::@@::44q00444:;:OO",
"o::2244q24r4424o::22440424244q22:-o2244r4444420::O",
"o::::422-:q24:;o::::242;;::442::::o-:422-:4q4:;:*O",
"o-::::::::-:;::o-:::;;;,::::;::::*+:::::::-:;::::o",
"oo-::::::::::::oO::::::-:;:::::::+O*:::::::::;::Oo",
"o@::-:::*::::-:oO:--:::-;-;:::-::@+:-::::&:::;;:OO",
"XX+*O--@Oo:**o+oXO&O--+Ooo++*-o*ooooo-&:ooo:*o*+XX",
"  o%XXX&XX&XoX%  O&XXo&XXXX%XXo&O  *XXX&Xo%ooo&o  ",
"55.............55................55.............55",
"55555555555555566555555555555555566555555555555555"
};
