/* XPM */
static char *bcf957cad55e4110dc44e4b4b6f2843c1mn1jn2CiAgPHjFg[] = {
/* columns rows colors chars-per-pixel */
"50 50 118 2 ",
"   c #090307",
".  c #04040D",
"X  c #09050D",
"o  c #0A080D",
"O  c #12050F",
"+  c #10090F",
"@  c #050510",
"#  c #090511",
"$  c #0C0913",
"%  c #0E0C19",
"&  c #120612",
"*  c #120B14",
"=  c #1A0F17",
"-  c #130E1A",
";  c #1B0F1B",
":  c #131117",
">  c #14121C",
",  c #1B131C",
"<  c #1D191D",
"1  c #220D1E",
"2  c #20141E",
"3  c #22191E",
"4  c #171520",
"5  c #1C1421",
"6  c #1F1925",
"7  c #360A21",
"8  c #211623",
"9  c #231A25",
"0  c #291B25",
"q  c #241729",
"w  c #251B29",
"e  c #2C1D2B",
"r  c #301C25",
"t  c #331E2C",
"y  c #2D1E31",
"u  c #311F33",
"i  c #2C202B",
"p  c #3B2126",
"a  c #32252C",
"s  c #3B242D",
"d  c #3E292E",
"f  c #2D2232",
"g  c #352331",
"h  c #3B2532",
"j  c #372A31",
"k  c #3D2933",
"l  c #3D2C38",
"z  c #400B25",
"x  c #401C29",
"c  c #42252B",
"v  c #432B2B",
"b  c #412B2D",
"n  c #43282F",
"m  c #46292E",
"M  c #472F2E",
"N  c #402630",
"B  c #402631",
"V  c #412534",
"C  c #412734",
"Z  c #432B33",
"A  c #432D30",
"S  c #462D33",
"D  c #422937",
"F  c #452B34",
"G  c #472C35",
"H  c #482C30",
"J  c #482F33",
"K  c #412B38",
"L  c #432E3A",
"P  c #442E39",
"I  c #473131",
"U  c #473231",
"Y  c #433137",
"T  c #473134",
"R  c #483331",
"E  c #4B3333",
"W  c #4A3334",
"Q  c #4A3337",
"!  c #4B3435",
"~  c #4B3635",
"^  c #4D3434",
"/  c #4C3534",
"(  c #4C3535",
")  c #4C3734",
"_  c #4D3836",
"`  c #44313A",
"'  c #47323B",
"]  c #4C3138",
"[  c #4B3439",
"{  c #4B3638",
"}  c #4F3439",
"|  c #4D393A",
" . c #4E393B",
".. c #4F383E",
"X. c #4E3B3F",
"o. c #503635",
"O. c #503636",
"+. c #503A35",
"@. c #513937",
"#. c #503738",
"$. c #50373A",
"%. c #533C3B",
"&. c #53393C",
"*. c #503A3D",
"=. c #4D3241",
"-. c #483440",
";. c #493842",
":. c #4F3F42",
">. c #503D41",
",. c #513F42",
"<. c #553F41",
"1. c #524345",
"2. c #584342",
"3. c #5B4443",
"4. c #5C4449",
"5. c #59494A",
"6. c #5B4B4B",
"7. c #6A5A5A",
/* pixels */
"9 c ' Y i . . . . . . . . . . . . . . . . @ . . @ . . . . . . . . . . @ . . . . @ . . . . @ . . @ . ",
"9 c ' ' 0 .   . . . . . . . . . . . . @ . . . . . . . @ @ . @ . @ . . . . . . . . . . @ . . . . . . ",
"8 N t t < . . X * y X . . . . . . . . . . . . . . . . . . @ . . . . . . . . . . . . . . . @ . . . . ",
"0 k y y 6 X X N k e 5 8 . . @ . . @ . . @ . . . . @ . . . . . . . @ . . @ . . @ . . @ . . . @ . . @ ",
"e k u y 6 . o k h w 9 5 @ @ . . . . . . . . . @ @ . @ . . . . . . . . . . . . . . @ . @ . . . @ . . ",
"9 h u u > . X a h -.=.=.g % - . . . . . . . . . . . . . . @ . . . @ . @ . . @ . . . . . @ . . . @ . ",
"9 h f y > . . a s L D K w $ @ . . . . . . . . . . . @ . @ . @ . . . . . . @ @ . . @ . @ . @ . @ . . ",
"0 N e y < @ @ s h D h h 5 . . . . . . . . . . @ . @ . . . . . . . . @ . . . . . . . . . . . . . . . ",
"0 h i e w . @ g a h y y - * * f 9 . . . . . @ . . . . . @ . . . . . . @ . . . . . . . . . . @ . . . ",
"0 h t u 8 . . g g h u y : * - f 6 . . @ . . . . . . . . @ . @ . @ . . . . . . . . . . . . . . . @ . ",
"e y i e 4 @ o i g h q q * -.-.a w - $ # . . . . . . . . . . . . . . . . . . . . . . . . . @ . . . @ ",
"0 y 6 6 > $ $ w w h w w $ L ' K k h e a X - , < w i w w 4 4 4 4 , , 5 9 - # # e 5 4 5 5 , 9 0 > > : ",
"0 y 6 8 4 # $ w 0 h e e % Y ' l k g a t X , , 5 w g q q 4 ; > 5 < , 9 5 - $ $ e 8 ; 5 5 , 0 9 , 5 4 ",
"6 0 8 8 8 4 4 . # a e w * g h F F ' ' ' i | _ #.*.,.8 8 K Z N h b N d b 3.    &.m m G G @.5.5.= | ..",
"i s a a g 6 8 $ % i e w % g g N V m k N e Q ! #.] L 5 5 0 d s Q Q / R ~ ] # . s c s R ! m 1.,.0 _ @.",
"i d k h h w w % - w i i * j j s c c V u e E E @.R k ; 4 5 d b O.@._ Q Q ~ # # r s s J R m ,.-.w T _ ",
"a N s t h s a , , 9 > > * e e s h g t e y #.$.N b s 5 9 5 s a } O.O.Q Q Q o . y u s m b n O.| e ] { ",
"a h t s h t a , ; 5 > > * y t h t g e t y J ] Z d a 5 5 4 g s } _ Q Q / ' . . y t h c B s =...e Q { ",
"t N s s h h h i 9 . > > - y t u a t u u q & & &     - > > t e { | Q { @.b . X 8 q e @   & { #.0 Z L ",
"0 s P ' :.L l , : o . . $ 1 8 t t t V V , y w g a u e e * q w L N s *.&.N $ $ % # X h u u . @ . a a ",
"0 t O.#...l Y , = o . . $ 8 5 t t t h h , y e g s t e e - q w ' k s X.*.N $ $ $ X X g g y . . X k j ",
"e u B s w e y 6 6 : o $ 9 h h w 8 * ' ' D b M O.O.@.<.&.*.> > N s h @.| Q . . X = = O.| S ' ~ . 1.5.",
"e a s h 9 0 0 8 5 5 > 4 # a e w q * h h Z A A Q Q _ #.#.F > - h s j ..| ] . . . - - N N ~ | | b g j ",
"0 t b h 3 0 0 8 8 6 4 4 . a a e 8 * h g F Z N O.Q #.] ] V > > k k s ..| Q . . # ; ; h s _ ..*.O.f i ",
"0 h d s a k N h k h w w - e i i 9 % g g V h Z Q ! ] ' ' h > - h s t } ] 8 5 5 5 6 6 g a s ..| l 5 5 ",
"0 g s s a k k h h k 0 q % e i w 9 % h g h h k ! o.Q ] G h : 5 h s t Q Q 8 5 5 , 6 w i g s | | l 5 8 ",
"  5 9 9 a D D s t h a a > < 5 : * * e u h h h c J ] h h g - - h a e 1 1 y s s ~ { { h G l k l j e e ",
"X a a i a N h s s h h s e . . : > : t t u K G V h h h h g > , h ; X Y Y J Q ] O.Q { | | 1.k k 5.q 8 ",
"  t a t t V D s s h s s i . . > : % f e h F F u h V h g f 4 4 h >   ' G / / / o.@._ _ | 1.k k 5.w 8 ",
"o e a u 0 t a ] ' ..w 0 : o o . . $ 8 8 t #.! r t t ] =.g @ . y *   ; , d @.@.@.%.%.| @.| k k f y y ",
"o e e 0 e s h s s d < 9 e 6 6 > % $ 9 w t &.#.t t t t e $ w w i , * > > t t t O.Q @.b M { k k 5 4 5 ",
"  e 0 0 0 h h s d s 9 5 y 6 6 4 % $ 0 0 t #.*.t t t e e # e e i 2 * > : t t t / @.Q b b ~ k l 1 4 5 ",
"8 o t 0 e a t s h h a a 0 2 9 8 6 4 . . 0 n c e e t a u h S M Q | 1.+ + 8 u t O.J O.m m } k k i 6 6 ",
"9 o 0 e e e t s h h e a 0 5 8 8 9 > . . 9 c c e t t h h h M S ! #.1.+ + 8 u V O.E R b m ~ k j i 6 6 ",
"3 3 o X o s s c d k i a h h h k a 0 % % = M c e e t h l b Q R ~ 6.7.    5 h s O.E O.m S | k j 6 w w ",
"a 3 3 3 , o . c c d a a n s s h h a , ; N G M e y u 0 0 b %.%.2.| ' O + q r t h G M V N { l k y 5 5 ",
"a 3 3 3 < o o s n b a t Z s a h h t , : J m G y e y 0 0 h &.%.2.Q } & O q r t s F G N s { l k f 4 ; ",
"d a 3 3 3 < , o o x 0 e h s t h h h i i &.c t 0 0 q 5 5 0 s s s s k 2 , t F L N L Y s a l f f 5 5 5 ",
"a a a a 3 , , o & x e 0 a ' ] ] ' ' , , p O.] 9 q w . @ 9 h s s h k , ; F 3.3.6.3.3.k P l f f 6 N F ",
"a a a a 3 < ,   $ x 0 t t { } -.' P ; ; s ] ] 0 e 0 @ . 5 s h s h k , ; G 3.3.4.3.3.P P h f f 6 n m ",
"a a j a 3 3 < < 2 z r a h s s k a * 5 5 k s s > 5 6 # # ; s s s s k ; , u h Z Q O./ h u K f f e E / ",
"a a a a 3 3 < < 1 7 e e s s s d a , < 5 s s s = 5 8 # # : s s s d h , > u h h ] / O.x u h g f 9 / Q ",
"a a a a j 3 < < ,   0 0 t h h h i : : * h S V , 8 e # # 5 g s ' N k 2 2 y u t O.O.#.u u j f f 4 ] O.",
"a a a a a j a a a 3   o a d h k e , * , l 0 r = > 5 $ & u t a p s Z , > u N V B ~ #.h h k f f 5 ! Q ",
"j a a a a a a a a 3 o o s s s k e > * & k r r > > , $ % i a s p p s : < t V h G $.@.g h h f f 5 ~ @.",
"a a a a j a a a a 3 < 3 3 , , # X X , , w e e < > * # # < d k p s k < > u a u #.n c u g s f e l p c ",
"a j a a a a a a a a a a 3 3 3 , , , o o . $ * : > , . . o < < j , $ @ @ 8 t r m t c 0 0 o = > ~ p p ",
"a a a a a a a a a a a s 3 3 3 , , , X o o & o : < :   . o < < b , o . @ 8 e t c c r w w o , = Q c M ",
"a a a j a a a a a R < R a a a < < < < < < < < < < < < < < : o o : < < < o i 6 i 0 0 o o , < , o i p ",
"a a a a a a a a a a R < a a j < < < < < < < < < < < < < < : o o : > < < & 6 6 i 8 3 * * < , < & 3 3 "
};
