/* XPM */
static char *e5e59f0b66934d7ecdbfe8ca3f16b9c4DwJsuX5QChh2jmSJ[] = {
/* columns rows colors chars-per-pixel */
"50 50 101 2 ",
"   c #090307",
".  c #04040E",
"X  c #0A040D",
"o  c #0A080D",
"O  c #11050F",
"+  c #10090F",
"@  c #060611",
"#  c #0A0511",
"$  c #0C0A12",
"%  c #100412",
"&  c #120C13",
"*  c #1A0F17",
"=  c #150F1B",
"-  c #1B0F1B",
";  c #131117",
":  c #15111C",
">  c #1B131C",
",  c #1C191C",
"<  c #220D1E",
"1  c #20141E",
"2  c #1C1321",
"3  c #1F1925",
"4  c #221623",
"5  c #251B26",
"6  c #291B25",
"7  c #241B2A",
"8  c #2B1D2C",
"9  c #301F27",
"0  c #331D2C",
"q  c #2D1E32",
"w  c #321E33",
"e  c #2D202D",
"r  c #3B2226",
"t  c #34222D",
"y  c #3C242C",
"u  c #3E292E",
"i  c #2D2232",
"p  c #352232",
"a  c #3B2431",
"s  c #372A31",
"d  c #3C2933",
"f  c #3E2E38",
"g  c #42262D",
"h  c #432B2E",
"j  c #402334",
"k  c #442B33",
"l  c #422E30",
"z  c #432C32",
"x  c #432B34",
"c  c #402C37",
"v  c #482C30",
"b  c #482F33",
"n  c #462F39",
"m  c #473131",
"M  c #473231",
"N  c #423137",
"B  c #483331",
"V  c #4B3132",
"C  c #4D3433",
"Z  c #493234",
"A  c #4B3334",
"S  c #4C3535",
"D  c #4C3734",
"F  c #4E3636",
"G  c #4C3837",
"H  c #4D3837",
"J  c #473438",
"K  c #4A3339",
"L  c #4C3339",
"P  c #4B3538",
"I  c #4E3538",
"U  c #4E353B",
"Y  c #4A353E",
"T  c #4A3838",
"R  c #4C393B",
"E  c #4F393B",
"W  c #4F393C",
"Q  c #4E3B3F",
"!  c #503635",
"~  c #503637",
"^  c #513937",
"/  c #503B36",
"(  c #503639",
")  c #50373A",
"_  c #503B38",
"`  c #523D38",
"'  c #533E39",
"]  c #533E3B",
"[  c #53393C",
"{  c #4F3F42",
"}  c #513F42",
"|  c #504043",
" . c #544547",
".. c #584342",
"X. c #5B4443",
"o. c #594248",
"O. c #5F4649",
"+. c #59494A",
"@. c #5A4A4B",
"#. c #5F4C4B",
"$. c #6A5A5A",
/* pixels */
". . . . . . . . . . . . . . . . . . . . . . . . . . . @ . . . . . . @ . . . . . . . @ . . . . . . . ",
". . . @ . . . . . . @ . . . . . . . . @ . . . . @ . . . . . . . . . . . . . . . . . . . . . . . . @ ",
". . . . . . @ . . . . @ . . . . . . . . . @ . . . . . . . . . . . . . . . . @ . . . . . . . . . . . ",
". . . . . . . . . . . . . . @ . . . . . . . . . . . . . . . @ . . . . @ . . . . . . . . @ . . . . . ",
". . . . . . . @ . . . . . @ . . . . @ . . . . . . . . . . . . . . . . . . . . . . @ . . . . . . . . ",
". . . . . . . . . . . . . . . . . @ . . . . . . . . . @ . . . . . . . . . . @ . . . @ . . . . . . . ",
". @ . . . . . . . . . . . . . . . . . . . . . . . . . . . . @ . . . . . . . . . . . . . . . . . . . ",
". . @ . . . . . @ . . . . . . . . . . . . . . @ . . . . . . . . . . @ . . . . . . . . . . . @ . . @ ",
". . . . . . . . . . . . . . . . . . . . . . . . @ . . . @ . . . . . @ . . . . . . . . . . . . . . . ",
". . . . . . . . . . . . . . . . . . . . . . . . . . . . @ . . . . . . . . . . . . . . . . . . . . . ",
". . . @ . . . . . . . . . . . . @ . . @ . . . . @ . . . . . . . . . . . . . . . . . . . . . . @ @ . ",
": : 3 3 = # X e 2 > 2 2 > 6 5 > : 2 2 > 2 2 > 6 5 : 2 2 : 2 2 2 : : 4 , = # X 8 4 : 2 2 * 7 6 * : 2 ",
": : , 4 : X # e 4 - > 3 * 6 6 : 2 2 2 2 3 : * 6 6 > : 2 2 2 2 2 2 : 3 3 > # # 8 2 4 2 2 1 6 6 > 2 2 ",
"z v h h ..    [ k v Z v E +.+.> J E x h b Z ^ +.+.> T E f g g t g h g h ..  X ( v h Z v G +.+.> T T ",
"Z Z Z Z E @ @ y y g v m v | | 5 ! ! y g m m h { } 5 F F 6 g u Z Z F m Z E @ X y y y v v h | } 4 G G ",
"F F G D P # @ 0 0 g m m h E E e D F 0 y B m h W { 8 F F 2 u u F F F D F L @ @ t y y B B g U { 8 J G ",
"F U B P n . . w y w g g 0 K | 8 D ! 0 a h k r W { 8 F F 2 y t F U F F P J . @ q w 0 v v y [ E 8 F U ",
"F F G F K . . q w a h g r { F 0 ! ! w y g y r [ U 8 F F 2 t y Z F F Z F J . @ q 0 a g g r U { 8 F F ",
"P P U F g . @ 3 0 6 . . % [ U 6 d f 6 0 X . # [ U 6 j c : 0 9 U U P F F g . . 4 0 6 . . O U F 8 d x ",
"d y ( ( x $ $ $ X X p w w X . . p a X X p p 0 . . . p s = 7 7 n s y [ [ h $ @ & X X p w w . . . s s ",
"u y [ [ g $ $ $ X X w w i . . . s s X X p p q . . . t s & 7 7 n d y [ [ d $ $ $ # X p p q . . . t s ",
"a u W E Z . . @ * * ( ( h P P .  .+.* * F L z P P .  .+.} = 2 w y d E E B X . . & * F U h P P .  .+.",
"a a W W Z . . @ : : g d P E W h p s = : d b Z E E h p s k : = a p d E E U . . . = = d g F E E h s p ",
"s y { W Z .   @ = > y y F W W F 8 e = : y y T W E F p 8 k : : a a y W E Z . . # = - y d E E E F i e ",
"t y L L 4 2 2 2 3 3 p t y W W f 2 2 3 4 p t u E E f 2 2 a : : a a 0 L L 4 2 2 2 3 3 t e y W W c 2 2 ",
"y 0 U Z 4 2 2 2 3 7 t i u E [ f 4 2 3 7 t i y E E f 4 2 a : 2 a y t L n 4 2 2 2 3 3 p p u W W f 4 2 ",
"0 8 < < 8 y y U F P h x s d d s e 8 ~ U h c a d d s 8 8 p : : a 0 t < < 8 0 g ~ U U z z s d d s 8 8 ",
": X J c v L Z F G T E T o.d p @.7 4 G G T T o.d d +.7 2 p : : a :   N N v ~ ~ ! D G E U @.p d @.4 4 ",
">   N N Z F Z ~ F G T F o.d d @.4 > W E T T o.p d +.5 4 p > : d *   N N Z C D ! F G T E o.d d +.7 4 ",
"& . : * g ` ` ^ ` ` ^ [ Y s c 0 i q ` ` [ G | d d q q q i . X i & . > - u ` G ` ` ` E U Y s s e q i ",
"> & : : 0 r 0 F D F h h T s s > 2 2 F F h h E d d 2 2 2 # 7 7 e > & : : 9 0 0 ~ F F h h P f d 2 2 2 ",
"2 & : : 0 0 0 F F G h h E f a 4 2 : F F h h T d d > 2 > # 8 8 e > * : : 0 0 0 D F G h h T d d - 2 2 ",
"[ | & $ 3 0 a ! ! Z h h [ d d 8 3 3 L C h h T d s 8 3 3 a v v F W | $ & 4 w a ! ! Z h h G d d e 3 3 ",
"W | + O 2 w w ~ V V h h T d s 8 3 3 Z C h g P d f 8 3 3 a v h F W | & o 2 w w ~ V V h h T d s 8 3 3 ",
"#.$.    2 a y ~ ! ! v k E d s 7 7 7 ~ ~ k k F d s 2 7 e y C D F +.$.    2 a y C ! ! v k E d d 4 7 7 ",
"E J O O 5 0 0 y v k j h P s d q 2 - k n k z F d d i 2 : k ' ' ..U Z O O 5 0 0 g v k j h T d d q 2 - ",
"P J O O 5 0 8 j k k x x T s d q 2 2 x k x b U d d q 2 2 a ] ] ..[ J % O 7 0 0 a k k x b T f d q 2 - ",
"y d 4 > 0 j z d c n t 0 N i i 2 2 2 c n 0 t N i i 2 2 2 8 y y y y s 1 1 0 k k d N k 0 t c i i > : 3 ",
"a x * - v o.X.O.X.X.d x d i i 4 a k X.X.x x d i i 3 f N 2 a y y a j > - v ....O.o.X.k f d i i 3 k k ",
"d d - - Z o.X.O.O.X.b c f i i 3 x b X.o.x s d i i 3 d j 2 a a y d d * > Z o.o.O.X.X.c c d i i 3 j k ",
"y d > : w a a G F ~ g w v i i 8 Z v ~ D 0 y d i i 8 C C 2 y y y y d > : w d a F ~ F w j j i i 8 v D ",
"u a > > w a d F D ~ w w a i i 7 C D D ! y w d i i 6 b S 2 0 a y y d > > w a a F D ~ a 0 u i i 7 b C ",
"v d 1 1 q w 0 F ! ( w y p i i 2 Z ( Z ( w w j i i : S ( > w y B k d 1 1 q w 0 C ~ ( w w s i i 2 C ( ",
"y u > : q j j v F U a w d i i 2 L ( U ( y a k t i 2 v ( q y r r y h > : w a j v F ( a a d i e 2 C D ",
"y u : , 0 a j k Z L a y d i i 2 Z F ( L a a d i i 2 Z U 8 r t 0 y u : ; w j j h L U p a d e i 2 D D ",
"t u , , w 0 w ( g g w p t e i z g y g g p p t 8 i d y y 5 d d y a s , , w 0 w ( g g p p t i i x g r ",
": $ . . 4 0 9 v y 0 6 5 $ ; > P g r r r 5 6 @ , * C g r X 1 > u > $ . . 4 9 9 h y 0 6 6 X , : F g r ",
"> # . . 4 0 6 v r g 6 5 $ ; * D r r y r 6 6 X * * D g r . 1 1 u > $ . . 1 0 8 v r g 6 6 . ; > B r y ",
"; , , , o 5 5 8 6 6 o + > , > o e 9 6 6 O + , > > o r 9 ,     o ; > , , o 6 7 e 6 6 & o , , * o e t ",
": , , , + 4 4 8 5 4 & & , , , o 1 6 6 6 & & , > , + 1 e ,   o o : , , , o 4 4 8 4 4 & & , > , o r 1 "
};
