/* XPM */
static char *_85593aa511f411beafef49e32255cdboU9qfsq8wG6kmSh7[] = {
/* columns rows colors chars-per-pixel */
"50 50 67 1 ",
"  c #030208",
". c #00000B",
"X c #02000B",
"o c #03030D",
"O c #04020D",
"+ c #04020F",
"@ c #06030E",
"# c #02050C",
"$ c #02040E",
"% c #05040C",
"& c #04040E",
"* c #06040F",
"= c #06060F",
"- c #08030A",
"; c #0F0609",
": c #08050C",
"> c #0B060D",
", c #050914",
"< c #0C0A13",
"1 c #100911",
"2 c #120C11",
"3 c #120F1A",
"4 c #170F18",
"5 c #1D1314",
"6 c #13101B",
"7 c #16131C",
"8 c #15131E",
"9 c #18101B",
"0 c #1E171F",
"q c #21161A",
"w c #1B1320",
"e c #1F1520",
"r c #1C1622",
"t c #1C1922",
"y c #221425",
"u c #231B26",
"i c #241728",
"p c #241929",
"a c #241B2B",
"s c #261B2B",
"d c #241C2B",
"f c #291B2C",
"g c #2F1E2E",
"h c #2E212B",
"j c #2E242F",
"k c #32262A",
"l c #342729",
"z c #352C31",
"x c #3E2A33",
"c c #3F2C32",
"v c #3B2A34",
"b c #3F2D39",
"n c #412D38",
"m c #422D38",
"M c #432F3A",
"N c #423235",
"B c #41303A",
"V c #44303B",
"C c #46323B",
"Z c #43363D",
"A c #48373D",
"S c #41383B",
"D c #45393D",
"F c #49393D",
"G c #4A3A3D",
"H c #4A393F",
"J c #4C3C3F",
/* pixels */
".,--ZAAGDGNN;::HHHADS..,@-ZDA@@,@qDDD,,>,..SDDo,--",
".,--ZGAGGDNN;::JHHDDSo.,@-ZDA5q@q7DGZZ,,,o.SDD.,--",
"7.qqVMnVbbcvk:>MnnnMx79 2qDVV7777BVMVVq2#79vnB7 qq",
"J5nGxggpyphhh99pssyypzz5lJnxguudpiigxxJl5zzfyeJ5xJ",
"3Jggxggpiikgh99dsstrfzz5lJxngp@#zzigxxJj5zzfyy6Jgg",
"33eqj*++oowweuu+*#6wwr014ehk+%++++%.jj0410007767e0",
"**37@++@oo##6et####o**+%<7@+.#%o%o%:++3<@%%+.##@33",
"@+37%+o%oo*#6tt###o#+*%%<3+:+%+.+#.++:w<%%%.@#+@73",
"###**#*$#ooo*oo##o+#$$$ooo+#*$$oo#$$*$###$$$#$#o+#",
"##o*$*+##ooo+o.#####$$$##**#$$#o#+$$#*+#$$$$$#+#+@",
"+*o#+#$**+oo*#+*o$$**#*$o*#**#$*#*#+**$*$*#*$$*+@#",
"$#+**#*##$oo$*##$$*#+*#+#*+$++#**$**+#*#*#*$$+$*#@",
"*#*#*+*+$*#*$*$*$*$*#*$**#*##*#*+#*##*#++$*#$*##*#",
"+*$**##**$+**#*#*#*#+**#+*$+*$#+*#$**$**#*+**#*+$*",
"#*##$*+$##*#+$*+*#+#*#+*#*#*#+*$$**#+#*#+*#**+*#*$",
"*$*+*##**+$*#*#*+*$*$*##*$*$**#**#+*$*$*##*$#*$+#*",
"+*$*#*#+*#*#*$+*#*#*$*##*$*$*+#*#*+$*#*#**$*#*$*#+",
"##*#*$**+*$+#*##*$#+*#*+#*#+#**$*$#*+*$*+#*#+**#**",
"*$*++#*##*#**+$*#+*$*+*#**$**$#*#**$#*##*#+#*#+*$*",
"#*#*$*$**$*$*#*#**#*#*$++#*##*#++*#**$*++*$*$*##*#",
"**$*$*####*$*$*+$*$*#*#**$+***$*$*###+*$#*#*$*$*+$",
"+#*#*#*+*+#*#+#**#*##+*$#*##+#*#*#*+**#**$+**#*##*",
"*#+#*+*##**+#*#++$*+*#***+$**#+#*+*#$*+###*#+$*+*#",
"+*$*#*$+*$*#*$**#*#*$*+#*#*#+*$*#*$+*#*#*+$*#*#*+*",
"#*#*$*+##*+$*#*#*$+**##*$*$*##*$*#**$*$*$**##+*$#*",
"*$+**#$**$#*+*$*#*##$+*$*#*#*+#*$*+#*#*#*#+***#**$",
"##*#$**##**$#*##*+$**##*+$*+#**++#$*+$*+#**$$*+###",
"*+$**#+*+*#**$*+*#*#+*+*#*#**$*#*#*##*#*#+#+*#*#*+",
"$**###*$$*###+*$$*+#+#*##*#++$*#*$*++*$**#*+*+#**$",
"*#+**+#**#*+**#**#$**#$**$**#*+*#+#*##*#$**##**$#*",
"#**$#**+*+*#$*+#$**#$**#+#*#+*#*#*#+*$*+*#$**$#**+",
"#+#+*$*##*$+*#*#*#+**#+*$*$*##*$*$**#*#*$+*##+*$*#",
"*#*+*#**$*$*##*$*$*+#*#*$*+##*+$*+#**+#*#*#*+$*#*#",
"$**#$*+#*#*#*+#*#+#**$+**#$**$#*#**$#**$#+*$#*+*$*",
"*#$*+#$*+$*+#**+#*#+##*#$**##**$*$#**$#**#**+*#*+#",
"$+*#*#*##*#**$*#*$***+$**#+*+*#*#*#+#+*$$*+###*$*#",
"*#*#*+*+#*#++$*#+#*##*#+#*#*+#+#*+*+#*#*+*$**#*+$*",
"+*$**##**$**#*+**#$**$**#+*$$**#*##**$+*##*#$**#*#",
"#*##$*+$+#*#+*#*$**#+#*#*#***+#*$*+$##*#*$*+*#$**+",
"*$*+*##*$*$*##*$*#+*$*$*$*+##**$*##**+$*#*#*$+*##*",
"#*#+$**#*#*#**$*#*$*+#+#+*$*#*#++*$*#*#+*+*+#*#**$",
"*$***#+*+*$*+#*#+**#$**###*#*$**##*#*$***##**$#+#+",
"+#*##**$#*##*#+#*#+**+#**$*++#*#*$*++#*#$*+$#+*$#*",
"$*$*#+#+*$*++*$*$*###**$#*#*$*$*#*#*$*$**##***#**$",
"*+#*#*$**#*##*#**+#**$+***$*$*##**$*$*###+*$$*+##*",
"#**$+**#+*$+*$#+#**$#*##+#*#*#*++#*#*#*+**#**#$*+*",
"*$#**#+*#*#*#+*$*$#**+$**#+#*+*#*#+#*+*#$*+#$**#*#",
"#*#+$*##*$*$**#*#+*$*#*#+*$*#*$++*$*#*$+*#*#*#+*$*",
"*+#*+$*#$*##*$#*$**$*+#*+#*#*+#*#*+#*#*+#*+$*#$*#*",
"*#*$#*+**#*+#*+**##+#**$*#$**#*$*$*#$**#*$#*+**##+"
};
