/* XPM */
static char *_f83d1366e1b431bef66902b08104f531TjnkBsI4CeB8jpM[] = {
/* columns rows colors chars-per-pixel */
"50 50 100 2 ",
"   c #030208",
".  c #00000B",
"X  c #01040B",
"o  c #04020D",
"O  c #04020E",
"+  c #06030E",
"@  c #01060C",
"#  c #03040E",
"$  c #03060F",
"%  c #04040C",
"&  c #05040E",
"*  c #05050F",
"=  c #06040F",
"-  c #08030A",
";  c #0F0609",
":  c #08050C",
">  c #0B060D",
",  c #050914",
"<  c #0C0A13",
"1  c #0F0C17",
"2  c #100911",
"3  c #120C11",
"4  c #100C15",
"5  c #110F1A",
"6  c #120F1A",
"7  c #1D1314",
"8  c #13101B",
"9  c #16131C",
"0  c #15131E",
"q  c #17141D",
"w  c #18101B",
"e  c #19131D",
"r  c #1C141F",
"t  c #1E171F",
"y  c #210F12",
"u  c #21161A",
"i  c #28161A",
"p  c #22191E",
"a  c #351E1F",
"s  c #1B1320",
"d  c #1A1521",
"f  c #181621",
"g  c #1C1622",
"h  c #1C1922",
"j  c #201621",
"k  c #221425",
"l  c #251B20",
"z  c #231B26",
"x  c #241E26",
"c  c #241728",
"v  c #231B28",
"b  c #231B29",
"n  c #241B2B",
"m  c #261B2B",
"M  c #241C2B",
"N  c #281A2A",
"B  c #2A1E2A",
"V  c #291B2C",
"C  c #2A1E2C",
"Z  c #2F1E2E",
"A  c #2D2029",
"S  c #2C242A",
"D  c #2E222E",
"F  c #2E242F",
"G  c #382324",
"H  c #302529",
"J  c #32272B",
"K  c #342729",
"L  c #34272F",
"P  c #352C31",
"I  c #3E2A33",
"U  c #3F2C32",
"Y  c #3B2A34",
"T  c #3D2935",
"R  c #3F2D39",
"E  c #3D3238",
"W  c #3D313B",
"Q  c #422736",
"!  c #422937",
"~  c #412D38",
"^  c #432D39",
"/  c #423235",
"(  c #433337",
")  c #41303A",
"_  c #44303B",
"`  c #46323B",
"'  c #43363D",
"]  c #45363C",
"[  c #47363E",
"{  c #48333A",
"}  c #49343B",
"|  c #48373F",
" . c #41383B",
".. c #47383B",
"X. c #45393D",
"o. c #49393D",
"O. c #4A3A3D",
"+. c #4C3C3F",
"@. c #4A3940",
"#. c #4C3B41",
/* pixels */
"J J J J J J J p p l ^ > > > ; ; / ( O.O.o.| ] ' - * , . .  .....o.#.| % : ; / / } ..o.o.| ] - - . * ",
"J J J J J J p p j p U > > > ; ; / ( O.O.o.] ] ' > o , . .  .X.X.o.O.o.> : ; / / O...o.o.| ] - - & * ",
"J J J J J p p p #.#.^ 9 9 > 9 e ~ T ! ) ^ ` ` ` h 3   e 9 T ) ) ~ ~ ~ ; : J ~ ! R ^ ^ ` ^ ..u u # X.",
"J J J J J p #.#.c b c 9 9 9 B B A B c z m Z I T O.K 7 P P B k k M M M 8 w D B H b c b Z Z I +.+.u A ",
"J J J J J p #.#.z c m 9 9 w Z J A A m k m Z T T O.K 7 P P V k k M M M 8 w A D A b c k D Z T #.#.u A ",
"J J J p p p E E m M E b m z g g q 8 & o o o F J p 6 < p t e 9 9 % % % A M g e d o o o * o D g k D e ",
"J J p p p a #.#.^ T 9 M m h 5 5 & o . o o o & & 6 < % % # O & # % % % h h 8 & & o - o o * O 6 6 e & ",
"J J p p p a #.#.^ T 9 M b h 5 5 & o . o o * o & 6 < % % # o # # % # % h h 8 & & . . O # o > 9 6 d * ",
"J J p +.#.#.^ ^ 9 q M h g 8 & & # % % # # & # & o o # # # # # # % % % . . : . # . % # # & # & # . # ",
"J S p #.#.] ^ ^ e e b d d 1 & & . . # # # # & # & & # # # # % # % # % . % & . o . # # & # & # & * * ",
"J p p #.#.9 ^ ^ M b g 5 5 & # & & # # & # # # & & & & # # & # # & # & # % # & # & # & # & # & # * . ",
"p p a E E ^ M M d s & & & # & # # & & # & # & # & & # & & # # # # & # & & & # & # & # & # & # & * & ",
"p p a E E ^ M M d d # & # & # & & # & # # & # & # & # & # & # & & # & # & # & # & # & # & # & # # * ",
"p p #.^ ^ m g g 5 5 & # & # & # # & # & & # & # & # & # & # & # # & # & # & # & # & # & # & # & & # ",
"#.#.a ^ ^ M 5 5 o & # & # & # & & # & # # & # & # & # & # & # & & # & # & # & # & # & # & # & # # & ",
"#.#.a ^ ^ m 5 5 & # & # & # & # # & # & & # & # & # & # & # & # # & # & # & # & # & # & # & # & & # ",
"a a y M m g 6 6 # & # & # & # & & # & # & # & # & # & # & # & # & # & # & # & # & # & # & # & # & # ",
"G G i m m g 4 6 & # & # & # & # # & # & # & # & # & # & # & # & # & # & # & # & # & # & # & # & # & ",
"/ / ! A A g - * # & # & # & # & & # & # & # & # & # & # & # & # & # & # & # & # & # & # & # & # & # ",
"; ; J W W g 5 5 f q & # & # & # # & # & # & # & # & # & # & # & # & # & # & # & # & # & # & # & # & ",
"; ; J E E g 5 5 f q # # # & # & & # & # & # & # & # & # & # & # & # & # & # & # & # & # & # & # & # ",
"& : > w 9 z g h & & # # & # & # # & # & # & # & # & # & # & # & # & # & # & # & # & # & # & # & # & ",
"E E o.Y Y d 8 8 # # & # # & # & & # & # & # & # & # & # & # & # & # & # & # & # & # & # & # & # & # ",
"E E ] Y Y t 8 8 # # # & & # & # # & # & # & # & # & # & # & # & # & # & # & # & # & # & # & # & # & ",
"` | Q C C w o . # @ # # # & # & & # & # & # & # & # & # & # & # & # & # & # & # & # & # & # & # & # ",
"} } ! m m 4 % # % % # # & # & # # & # & # & # & # & # & # & # & # & # & # & # & # & # & # & # & # & ",
"| #.^ x A % % % % % # # # & # & & # & # & # & # & # & # & # & # & # & # & # & # & # & # & # & # & # ",
"O.#.^ N h # @ % % % # # & # & # # & # & # & # & # & # & # & # & # & # & # & # & # & # & # & # & # & ",
"#.#.^ M M & % % % % % # & # & # & # & # & # & # & # & # & # & # & # & # & # & # & # & # & # & # & # ",
"#.o.^ m m # @ % % % % # # & # & # & # & # & # & # & # & # & # & # & # & # & # & # & # & # & # & # & ",
"X.X.) k g 9 % # % % & # & # & # & # & # & # & # & # & # & # & # & # & # & # & # & # & # & # & # & # ",
"X.X.) k k 9 % # # # # & # & # & # & # & # & # & # & # & # & # & # & # & # & # & # & # & # & # & # & ",
"W E Y M N e o o O # . * * & # & & # & # & # & # & # & # & # & # & # & # & # & # & # & # & # & # & # ",
"S x A F D t o - # # * # * & & # # & # & # & # & # & # & # & # & # & # & # & # & # & # & # & # & # & ",
". . q P P t > % # # # # # & # & & # & # & # & # & # & # & # & # & # & # & # & # & # & # & # & # & # ",
", , . 7 7 < - & # # # # & # & # # & # & # & # & # & # & # & # & # & # & # & # & # & # & # & # & # & ",
", ,   7 7 2 o & # # # & # & # & & # & # & # & # & # & # & # & # & # & # & # & # & # & # & # & # & # ",
"  > t +.+.t 5 9 # # & # & # & # # & # & # & # & # & # & # & # & # & # & # & # & # & # & # & # & # & ",
"..' ` I I F o & # # # & # & # & & # & # & # & # & # & # & # & # & # & # & # & # & # & # & # & # & # ",
"] X.` I I A o & & # & # & # & # # & # & # & # & # & # & # & # & # & # & # & # & # & # & # & # & # & ",
"@.#.^ Z Z o & o # & # & # & # & & # & # & # & # & # & # & # & # & # & # & # & # & # & # & # & # & # ",
"@.o.) V N o o & # # & # & # & # # & # & # & # & # & # & # & # & # & # & # & # & # & # & # & # & # & ",
"] #.^ c m   o o # # # & # & # & & # & # & # & # & # & # & # & # & # & # & # & # & # & # & # & # & # ",
"] } T m m o . . # . & # & # & # # & # & # & # & # & # & # & # & # & # & # & # & # & # & # & # & # & ",
"| o.^ b M o . o . . # & # & # & & # & # & # & # & # & # & # & # & # & # & # & # & # & # & # & # & # ",
"/ / ! B F d o : # % & # & # & # # & # & # & # & # & # & # & # & # & # & # & # & # & # & # & # & # & ",
"; ; K E W d 5 8 & & # & # & # & & # & # & # & # & # & # & # & # & # & # & # & # & # & # & # & # & # ",
"; ; J W E d 8 8 & & & # & # & # # & # & # & # & # & # & # & # & # & # & # & # & # & # & # & # & # & ",
"% : : w w c h h . . & # & # & # & # & # & # & # & # & # & # & # & # & # & # & # & # & # & # & # & # ",
"S A L S J j 9 9 o o & & # & # & # & # & # & # & # & # & # & # & # & # & # & # & # & # & # & # & # & "
};
