/* XPM */
static char *_078affa37194acab43767bab5a25b79cfS6QiCD1KBv2LMn[] = {
/* columns rows colors chars-per-pixel */
"50 50 89 1 ",
"  c #030208",
". c #00050B",
"X c #02020C",
"o c #03020D",
"O c #06030E",
"+ c #01060C",
"@ c #02040E",
"# c #03060F",
"$ c #05040C",
"% c #04040E",
"& c #09040B",
"* c #0B060D",
"= c #0C070E",
"- c #11080B",
"; c #070713",
": c #0D0713",
"> c #040813",
", c #0E0B16",
"< c #100911",
"1 c #100E14",
"2 c #120F1A",
"3 c #1D1314",
"4 c #13101B",
"5 c #15121B",
"6 c #16131C",
"7 c #15131E",
"8 c #17141F",
"9 c #18101B",
"0 c #19131F",
"q c #1D161E",
"w c #1E171F",
"e c #21161A",
"r c #25191C",
"t c #1B1320",
"y c #1A1624",
"u c #1A1821",
"i c #1C1922",
"p c #1C1826",
"a c #221425",
"s c #241B22",
"d c #211A25",
"f c #231B26",
"g c #241728",
"h c #201A28",
"j c #241929",
"k c #261B2B",
"l c #241C2B",
"z c #2D1D2A",
"x c #291B2C",
"c c #2E1D2E",
"v c #2F1E2E",
"b c #2D2224",
"n c #2F2426",
"m c #2E212B",
"M c #2E242F",
"N c #322229",
"B c #32262A",
"V c #31202D",
"C c #31202E",
"Z c #332A2F",
"A c #37282D",
"S c #342B2F",
"D c #3B2730",
"F c #3C2730",
"G c #352C31",
"H c #362A34",
"J c #3E2A33",
"K c #3F2C32",
"L c #382B35",
"P c #3B2A34",
"I c #3D2B35",
"U c #3F2D39",
"Y c #3D313B",
"T c #492E37",
"R c #412D38",
"E c #413134",
"W c #41303A",
"Q c #453339",
"! c #44303B",
"~ c #46323B",
"^ c #41373B",
"/ c #43353C",
"( c #47363C",
") c #47363E",
"_ c #44383C",
"` c #49393C",
"' c #49383E",
"] c #4C3C3F",
"[ c #4B3A40",
/* pixels */
"%%%%%%%%%%%%%%%%%%%%%%%%%%%%%%%%%%%%%%%%%%@%%%%%%%",
"%%%%%%%%%%%%%%%%%%%%%%%%%%%%%%%%%%%%%%%%%@@%%%%%%%",
"%%%%%%%%%%%%%%%%%%%%%%%%%%%%%%%%%%%%%%%%%..%%%%%%%",
"%%%%%%%%%%%%%%%%%%%%%%%%%%%%%%%%%%%%%%%%%..+.%%%%%",
"%%%%%%%%%%%%%%%%%%%%%%%%%%%%%%%%%%%%%%%%%..@.%%%%%",
"%%%%%%%%%%%%%%%%%%%%%%%%%%%%%%%%%%%%%%%%%...%%%%%%",
"%%%%%%%%%%%%%%%%%%%%%%%%%%%%%%%%%%%%%%%%%%%%%%%%%%",
"%%%%%%%%%%%%%%%%%%%%%%%%%%%%%%%%%%%%%%%%%%%%%%%%%%",
"%%%%%%%%%%%%%%%%%%%%%%%%%%%%%%%%%%%%%%%%%%%%%%%%% ",
"%%%%%%%%%%%%%%%%%%%%%%%%%%%%%%%%%%%%%%%%%%%%%%%%% ",
"%%%%%%%%%%%%%%%%%%%%%%%%%%%%%%%%%%%%%%%%%%%%%%%]]r",
"%%%%%%%%%%%%%%%%%%%%%%%%%%%%%%%%%%%%%%%%%%%%%%5)~n",
"%%%%%%%%%%%%%%%%%%%%%%%%%%%%%%%%%%%%%%%%%%%%%%MJER",
"%%%%%%%%%%%%%%%%%%%%%%%%%%%%%%%%%%%%%%%%%%%%%%]]e&",
"%%%%%%%%%%%%%%%%%%%%%%%%%%%%%%%%%%%%%%%%%%%%o9(RNs",
"%%%%%%%%%%%%%%%%%%%%%%%%%%%%%%%%%%%%%%%%%%%%OMJJ~(",
"%%%%%%%%%%%%%%%%%%%%%%%%%%%%%%%%%%%%%%%%%%%%O$cc!(",
"%%%%%%%%%%%%%%%%%%%%%%%%%%%%%%%%%%%%%%%%%%%%OOcc!(",
"%%%%%%%%%%%%%%%%%%%%%%%%%%%%%%%%%%%%%%%%%%%%oOggW`",
"%%%%%%%%%%%%%%%%%%%%%%%%%%%%%%%%%%%%%%%%%Xo.OOjjR(",
"%%%%%%%%%%%%%%%%%%%%%%%%%%%%%%%%%%%%%%%%%XXXXOdgU(",
"%%%%%%%%%%%%%%%%%%%%%%%%%%%%%%%%%%%%%%%%%XXO%5MMUE",
"%%%%%%%%%%%%%%%%%%%%%%%%%%%%%%%%%%%%%%%%%$$,1yHHAr",
"%%%%%%%%%%%%%%%%%%%%%%%%%%%%%%%%%%%%%%%%%%O22tUYB-",
"%%%%%%%%%%%%%%%%%%%%%%%%%%%%%%%%%%%%%%%%$XXiid95**",
"%%%%%%%%%%%%%%%%%%%%%%%%%%%%%%%%%%%%%%%%$XXiud98**",
"%%%%%%%%%%%%%%%%%%%%%%%%%%%%%%%%%%%%%%%%OX.@@%kkR`",
"%%%%%%%%%%%%%%%%%%%%%%%%%%%%%%%%%%%%%%%%@X...$xjR`",
"%%%%%%%%%%%%%%%%%%%%%%%%%%%%%%%%%%%%%%%%@XX..$jjR`",
"%%%%%%%%%%%%%%%%%%%%%%%%%%%%%%%%%%%%%%%%%.@@;5aaW)",
"%%%%%%%%%%%%%%%%%%%%%%%%%%%%%%%%%%%%%%%%@@@XO0jjI/",
"%%%%%%%%%%%%%%%%%%%%%%%%%%%%%%%%%%%%%%%%%@oO%0xxL/",
"%%%%%%%%%%%%%%%%%%%%%%%%%%%%%%%%%%%%%%%%%@@$$qGG5X",
"%%%%%%%%%%%%%%%%%%%%%%%%%%%%%%%%%%%%%%%%%@@$$qSS5X",
"%%%%%%%%%%%%%%%%%%%%%%%%%%%%%%%%%%%%%%%%%@@%%<33X>",
"%%%%%%%%%%%%%%%%%%%%%%%%%%%%%%%%%%%%%%%%%%@45q]]e&",
"%%%%%%%%%%%%%%%%%%%%%%%%%%%%%%%%%%%%%%%%%%o52e][e&",
"%%%%%%%%%%%%%%%%%%%%%%%%%%%%%%%%%%%%%%%%%@OOOMRI!/",
"%%%%%%%%%%%%%%%%%%%%%%%%%%%%%%%%%%%%%%%%%%ooO:VV!)",
"%%%%%%%%%%%%%%%%%%%%%%%%%%%%%%%%%%%%%%%%%%oOOOVc!)",
"%%%%%%%%%%%%%%%%%%%%%%%%%%%%%%%%%%%%%%%%%@@o@XajW`",
"%%%%%%%%%%%%%%%%%%%%%%%%%%%%%%%%%%%%%%%%%@@OXOgjE`",
"%%%%%%%%%%%%%%%%%%%%%%%%%%%%%%%%%%%%%%%%%ooXo@jjU(",
"%%%%%%%%%%%%%%%%%%%%%%%%%%%%%%%%%%%%%%%%%oo@O0mmKE",
"%%%%%%%%%%%%%%%%%%%%%%%%%%%%%%%%%%%%%%%%@ooOO8mmKE",
"%%%%%%%%%%%%%%%%%%%%%%%%%%%%%%%%%%%%%%%%oOooo@XXL,",
"%%%%%%%%%%%%%%%%%%%%%%%%%%%%%%%%%%%%%%@@ooo;;,ppDb",
"%%%%%%%%%%%%%%%%%%%%%%%%%%%%%%%%%%%%%%%oooo;;,ddJb",
"%%%%%%%%%%%%%%%%%%%%%%%%%%%%%%%%%%%%%%%%;ooyyzcmTn",
"%%%%%%%%%%%%%%%%%%%%%%%%%%%%%%%%%%%%%%%%%ooyyzCCTn"
};
