/* XPM */
static char *_5b12d58920745d2b6161d8281fb0d81qekP6gyhrGyr4lHI[] = {
/* columns rows colors chars-per-pixel */
"50 50 75 1 ",
"  c #030208",
". c #02000B",
"X c #00050B",
"o c #02000C",
"O c #07010D",
"+ c #04020D",
"@ c #02050C",
"# c #04040C",
"$ c #05040C",
"% c #05050D",
"& c #09040B",
"* c #070713",
"= c #0D0713",
"- c #040813",
"; c #080814",
": c #0E0B16",
"> c #100911",
", c #100E14",
"< c #1D1314",
"1 c #13101B",
"2 c #15121B",
"3 c #16131C",
"4 c #15131E",
"5 c #18101B",
"6 c #1E171F",
"7 c #21161A",
"8 c #1B1320",
"9 c #1F1520",
"0 c #1A1624",
"q c #1A1821",
"w c #1C1922",
"e c #1C1826",
"r c #1E1826",
"t c #221425",
"y c #211A25",
"u c #231B26",
"i c #241728",
"p c #201A28",
"a c #241929",
"s c #261829",
"d c #261B2B",
"f c #241C2B",
"g c #2D1D2A",
"h c #291B2C",
"j c #2F1F2C",
"k c #2F1E2E",
"l c #2D2224",
"z c #2E2425",
"x c #2E212B",
"c c #2E242F",
"v c #31202E",
"b c #332A2F",
"n c #342B2F",
"m c #3B2730",
"M c #352C31",
"N c #3E2A33",
"B c #3F2C32",
"V c #382B35",
"C c #3B2A34",
"Z c #3D2B35",
"A c #3F2D39",
"S c #482D36",
"D c #492E37",
"F c #412D38",
"G c #432F3A",
"H c #413134",
"J c #41303A",
"K c #46323B",
"L c #41373B",
"P c #46363E",
"I c #44383C",
"U c #49393C",
"Y c #49383E",
"T c #4C3C3F",
"R c #4B3A40",
/* pixels */
"l755uqwoo%o+%-+%-+%-+%-+%-+%-+%-+%-+%-+%-+%-+%-+%-",
"l755uqq.o%*@%o%oo%%o%oo%%o%oo%%o%oo%%o%oo%%o%oo%%o",
"RFff%@@XX@X%+o%-%++%%--%+o%-%++%%--%+o%-%++%%--%+o",
"YFdd@@@@.+*+%-+%-%o-+%o+%-+%-%o-+%o+%-+%-%o-+%o+%-",
"YFdd+@@o@@;-%o+%o%-o%+o%%o+%o%-o%+%%o-%oo%-o%+o%%+",
"PFtt4@@@o%o@+-%o%+%+-%-%+-%o%++%o--o%%+-%+%+-%-%-%",
"LZdd8oo--o-%%-%--+%%o%-+%-%--%%-+%%++%+%-+%%o%-+o%",
"LChh8@o@@%o+%o+%o%-o%+o%%o+%o+%o%o-%o-%oo%-o%+o%%+",
".4MM6##X+%@*o%+o%+-%+%%++%%+%%+%%-o%-o%--%o-%+-%-+",
".2nb6###*.%o-%%--%o+%o-%o-o--oo-+%%++%+%o+%%-%o+o%",
"-.<<>%#.@*@*%++%o%o%-o-o%-o%+%%+-oo-%%+o%+%+o%o%o-",
"&7TT611*oo%oo-%o%+-%+%%++%%+%o-%%+%%-o%--%o-%+-%%%",
"&7TT712+@*o%o*%--+%-%+%%o-%o-+%-+%-+%o+%o%-o+%-++%",
"LKNZc*++%o*@o@+%o%%oo--o%%+-o%%o%oo%+-%o%++%%oo%o-",
"IKvv=+++@%@%%%+o%++%+%%++%+%%++%%--%%-%--%%-%--%%-",
"PKkk++*+*o*o-o%--%o-%o-%o-%o-%o-+%o+%o+%o+%o+%o++%",
"PFiyoo@@o%%+%o+%o%-o%-o%-o%-o%-o%+%%+%%+%%+%%+%%%o",
"YFid%-o@-o-%+-%o%++%+%%++%+%%++%o--oo-o--oo-o--o+-",
"YFdi*....@-o%-%--%%--oo-%%+o-%%-+%%+%-o%+%%++%%+%-",
"HHxx4+*oo%%+%o+%o+%o%+%%-o%-o+%o%o-%+%%+%o-%%o-%%o",
"HNxx8@*oo*@@o%+o%+o%+%%++%%+%-o%o%+o-%o--o%-o%-o+o",
",V..@o.%%oo*-%%--%-%o-o-%o-%+%%+-%%-o+%%+%+%%+%+%-",
"zmrr:*-ooo%o%++%o%-+%-o%-o-oo--o%++%%+%+%%+o-+%%%+",
"zmra:;;oo+@*o-%o%+o%+%%++%%+%%+%o-%o-%o--o%-o%-o-%",
"zDvjgee.o%@%o*%--%o-%+-%%-+%-+%-+%-+%-+%%+-%+%%+o%",
"lDvvg6roo**o+@+%o+%%-%o+%o%oo%%o%oo%%o%o-%o+%o-%%+",
"TFff@@@@X@@%%%+o%+%+o%o%+o%-%++%%--%+o%-o%o%-o-o-+",
"PFff%@@@oo*o-o%--%o-%+-%%-+%-%o-+%o+%-+%%+-%+%%+o%",
"YFdd@.@o@@**%o+%o%-o+%-+%o+%o%-o%+%%o-%o-+%-%+%%o-",
"PFtt2-@@o%o@+-%o%++%%oo%+-%o%++%o--o%%+-o%%oo--o%%",
"LZdd8oo--o-%%-%--%%-%--%%-%--%%-+%%++%+%%++%+%%++%",
"LChh8@o@@%o+%o+%o+%o+%o+%o+%o+%o%o-%o-%o-%o-%o-%o-",
".4MM6%#X+-%o*%@*-o%-o%-o%-o%-o%-o%-o%-o%-o%-o%-o+%",
".4nb6.##@.o*@+%o%++%%+%++%%+%++%%++%+%%++%+%%++%%o",
"- <<>*%.@@*@o-o*o%%o-+%%o--oo%%o-%%--oo-%%+o-%%-%-",
"&7TT711+*oo%%%+@-%+-o%-o%%+%-%+-o+%o%+%%-o%-o+%o+%",
"&7TT612*%+-%+o%+%-o%+%%++%%+%-+%%+o%+%%++%%+%-o%-o",
"LKNZc+++-%o+%--%+%%+%o-%o-o-%o%o-%-%o-o-%o-%+%%+%+",
"PFvv=+*%o%o%%oo%-oo--o-o%-o%+o%-o%-+%-o%-o-oo--oo%",
"PKvk++++%+-%+-%+%+%%+%%++%%+%-+%%+o%+%%++%%+%%+%-%",
"YFii+o@@-o*o%o%oo%+o%+o%%o+%o-%o-%o-%+-%%-+%-+%-%+",
"YFiu+-o@o@@%@*@*-%%--%-%+-%o%%+-o+%%-%o+%o%oo%%oo-",
"YFdi%o..@o%o%++%%++%o%-+%-%-+%+%%+%+o%o%+o%-%++%+%",
"HBgc2**@o*@*-%o-o-%o%+o%%o+%o-%o-%o-%+-%%-+%-%o-%o",
"HBxx8-+o.*+%o%-o-o%-%+-%+o%+-o%-o%-o+%-+%o+%o%-o%-",
":Bo.@oo%@o%o%++%%++%-%o+%--%%++%%++%%oo%+-%o%++%+%",
"lCrr:--ooo%--%%-o%%oo%o%%oo%o%%o-%%-%--%%-%--%%--o",
"zZre:;;oo++%o+%o-%+-%+-%+-%+-%+-o+%o+%o+%o+%o+%o%+",
"zDgcge0.o-o+*o%@*o+%@%o*o%+o%++%%++%-+%--o%-o%%+%-",
"zDvvg60oo*%@@%o*o%@**o+@-%%--%%o-%%oo%%o%++%%+o-%o"
};
