/* XPM */
static char *_9c66a0b69cd4c35d3e71bf7e7bc59f1EoygqvgNdFHpYY4u[] = {
/* columns rows colors chars-per-pixel */
"50 50 85 1 ",
"  c #030208",
". c #00040B",
"X c #01040B",
"o c #03030D",
"O c #07010D",
"+ c #04030D",
"@ c #01060C",
"# c #03060F",
"$ c #05040C",
"% c #04040E",
"& c #09040B",
"* c #08050C",
"= c #0C070E",
"- c #11080B",
"; c #070713",
": c #0D0713",
"> c #040813",
", c #0D0A15",
"< c #0E0B16",
"1 c #120F1A",
"2 c #1D1314",
"3 c #13101B",
"4 c #16131C",
"5 c #17131D",
"6 c #15131E",
"7 c #18101B",
"8 c #1E171F",
"9 c #21161A",
"0 c #25191C",
"q c #1B1320",
"w c #191520",
"e c #1A1624",
"r c #1A1821",
"t c #1C1922",
"y c #1C1826",
"u c #1E1826",
"i c #221425",
"p c #241B22",
"a c #211A25",
"s c #231B26",
"d c #241728",
"f c #201A28",
"g c #261829",
"h c #27192A",
"j c #261B2B",
"k c #241C2B",
"l c #291B2C",
"z c #2F1F2C",
"x c #2E1E2E",
"c c #2F1E2E",
"v c #2D2224",
"b c #2E2426",
"n c #2E212B",
"m c #2E242F",
"M c #322229",
"N c #32262A",
"B c #31202E",
"V c #332A2F",
"C c #37282D",
"Z c #3B2730",
"A c #3C2730",
"S c #352C31",
"D c #362A34",
"F c #3E2A33",
"G c #3F2C32",
"H c #382B35",
"J c #3F2D39",
"K c #3D313B",
"L c #482D36",
"P c #492E37",
"I c #412D38",
"U c #432D39",
"Y c #432F3A",
"T c #413134",
"R c #41303A",
"E c #453339",
"W c #41373B",
"Q c #43353C",
"! c #47363C",
"~ c #47363E",
"^ c #44383C",
"/ c #49393C",
"( c #49383E",
") c #4C3C3F",
"_ c #4B3A40",
/* pixels */
"%%%%%%%##++%%%%%%%%%%%%%%%%%%%%%%%%%%%%%%%%%%%%%%%",
"%%%%%%%##%%%%%%%%%%%%%%%%%%%%%%%%%%%%%%%%%%%%%%%%%",
"%%%%##%XX%%%%%%%%%%%%%%%%%%%%%%%%%%%%%%%%%%%%%%%%%",
"%%%%%X#XX%%%%%%%%%%%%%%%%%%%%%%%%%%%%%%%%%%%%%%%%%",
"%%%%$XXXXo%%%%%%%%%%%%%%%%%%%%%%%%%%%%%%%%%%%%%%%%",
"%%%%%XX%X%%%%%%%%%%%%%%%%%%%%%%%%%%%%%%%%%%%%%%%%%",
"%%%%%%##%%%%%%%%%%%%%%%%%%%%%%%%%%%%%%%%%%%%%%%%%%",
"%%%%%%%%%%%%%%%%%%%%%%%%%%%%%%%%%%%%%%%%%%%%%%%%%%",
" %%%%%%%%%%%%%%%%%%%%%%%%%%%%%%%%%%%%%%%%%%%%%%%%%",
" %%%%%%%%%%%%%%%%%%%%%%%%%%%%%%%%%%%%%%%%%%%%%%%%%",
"9))%%%%%%%%%%%%%%%%%%%%%%%%%%%%%%%%%%%%%%%%%%%%%%%",
"MEE4%%%%%%%%%%%%%%%%%%%%%%%%%%%%%%%%%%%%%%%%%%%%%%",
"EGIm%%%%%%%%%%%%%%%%%%%%%%%%%%%%%%%%%%%%%%%%%%%%%%",
"&9__%%%%%%%%%%%%%%%%%%%%%%%%%%%%%%%%%%%%%%%%%%%%%%",
"pMEE4%%%%%%%%%%%%%%%%%%%%%%%%%%%%%%%%%%%%%%%%%%%%%",
"QEFFm%%%%%%%%%%%%%%%%%%%%%%%%%%%%%%%%%%%%%%%%%%%%%",
")Ycc+XXO%%%%%%%%%%%%%%%%%%%%%%%%%%%%%%%%%%%%%%%%%%",
"_YccOO;o%%%%%%%%%%%%%%%%%%%%%%%%%%%%%%%%%%%%%%%%%%",
"QUdd++oo%%%%%%%%%%%%%%%%%%%%%%%%%%%%%%%%%%%%%%%%%%",
"QJgd+Xooo%%%%%%%%%%%%%%%%%%%%%%%%%%%%%%%%%%%%%%%%%",
"~Jdd++#oooo%%%%%%%%%%%%%%%%%%%%%%%%%%%%%%%%%%%%%%%",
"TTnzw%Oooo%%%%%%%%%%%%%%%%%%%%%%%%%%%%%%%%%%%%%%%%",
"0CDDw,,++%%%%%%%%%%%%%%%%%%%%%%%%%%%%%%%%%%%%%%%%%",
"-MKK511;%%%%%%%%%%%%%%%%%%%%%%%%%%%%%%%%%%%%%%%%%%",
"**77sttoXo+;o+%%%%%%%%%%%%%%%%%%%%%%%%%%%%%%%%%%%%",
"==75swwXXo++++%%%%%%%%%%%%%%%%%%%%%%%%%%%%%%%%%%%%",
"_Ygj%##X#o%%%%%%%%%%%%%%%%%%%%%%%%%%%%%%%%%%%%%%%%",
"^YgjXXXXo%%%%%%%%%%%%%%%%%%%%%%%%%%%%%%%%%%%%%%%%%",
"(Ygg$XXXXoo%%%%%%%%%%%%%%%%%%%%%%%%%%%%%%%%%%%%%%%",
"~Igd6####++%%%%%%%%%%%%%%%%%%%%%%%%%%%%%%%%%%%%%%%",
"WFhd7oXo#o%%%%%%%%%%%%%%%%%%%%%%%%%%%%%%%%%%%%%%%%",
"WHll5oo##%%%%%%%%%%%%%%%%%%%%%%%%%%%%%%%%%%%%%%%%%",
"o6VS8$$#o%%%%%%%%%%%%%%%%%%%%%%%%%%%%%%%%%%%%%%%%%",
"o3SC8%$##%%%%%%%%%%%%%%%%%%%%%%%%%%%%%%%%%%%%%%%%%",
"> 22-%+oX%%%%%%%%%%%%%%%%%%%%%%%%%%%%%%%%%%%%%%%%%",
"&9))i11+o+%%%%%%%%%%%%%%%%%%%%%%%%%%%%%%%%%%%%%%%%",
"&9))911+%%%%%%%%%%%%%%%%%%%%%%%%%%%%%%%%%%%%%%%%%%",
"WEIIx;;+%%%%%%%%%%%%%%%%%%%%%%%%%%%%%%%%%%%%%%%%%%",
"WRcc:;o%%%%%%%%%%%%%%%%%%%%%%%%%%%%%%%%%%%%%%%%%%%",
"_IccOoOX%%%%%%%%%%%%%%%%%%%%%%%%%%%%%%%%%%%%%%%%%%",
"(Qddoooo#o+;o%%%%%%%%%%%%%%%%%%%%%%%%%%%%%%%%%%%%%",
"(Iddoooo#++ooo%%%%%%%%%%%%%%%%%%%%%%%%%%%%%%%%%%%%",
"!Usd;XoXo++o%%%%%%%%%%%%%%%%%%%%%%%%%%%%%%%%%%%%%%",
"TFxm7o++Xo;o%%%%%%%%%%%%%%%%%%%%%%%%%%%%%%%%%%%%%%",
"TGnn5%>+o%%%%%%%%%%%%%%%%%%%%%%%%%%%%%%%%%%%%%%%%%",
",HXXooX++o%%%%%%%%%%%%%%%%%%%%%%%%%%%%%%%%%%%%%%%%",
"vZiu,;;ooo%%%%%%%%%%%%%%%%%%%%%%%%%%%%%%%%%%%%%%%%",
"bFua,;;Xoo%%%%%%%%%%%%%%%%%%%%%%%%%%%%%%%%%%%%%%%%",
"bLzzzeu#oooooooo%%%%%%%%%%%%%%%%%%%%%%%%%%%%%%%%%%",
"bLBBz5eoX;o;++o;%%%%%%%%%%%%%%%%%%%%%%%%%%%%%%%%%%"
};
