/* XPM */
static char *_f51b61812f64321eb391dbcf790fe45kW1OLOwmU8aWMwxm[] = {
/* columns rows colors chars-per-pixel */
"50 50 104 2 ",
"   c #030208",
".  c #00000B",
"X  c #03030B",
"o  c #00030C",
"O  c #04020F",
"+  c #01060C",
"@  c #02040E",
"#  c #02050E",
"$  c #03060F",
"%  c #04040C",
"&  c #04040E",
"*  c #06040F",
"=  c #08030A",
"-  c #09040B",
";  c #0F0609",
":  c #08050C",
">  c #0B060D",
",  c #11080B",
"<  c #050914",
"1  c #0C0A13",
"2  c #0F0C17",
"3  c #100911",
"4  c #120C11",
"5  c #100E19",
"6  c #120F1A",
"7  c #1D1314",
"8  c #13101B",
"9  c #16131C",
"0  c #18101B",
"q  c #19131D",
"w  c #18141E",
"e  c #1C141F",
"r  c #1E171F",
"t  c #210F12",
"y  c #21161A",
"u  c #28161A",
"i  c #22191E",
"p  c #23191E",
"a  c #331D1E",
"s  c #351E1F",
"d  c #1B1320",
"f  c #191520",
"g  c #1A1521",
"h  c #181621",
"j  c #1C1622",
"k  c #1C1922",
"l  c #201621",
"z  c #221425",
"x  c #241B20",
"c  c #231B26",
"v  c #241E25",
"b  c #241728",
"n  c #221A29",
"m  c #241929",
"M  c #241B2B",
"N  c #241C2B",
"B  c #261D2B",
"V  c #281D2B",
"C  c #291B2C",
"Z  c #2F1E2E",
"A  c #2E212B",
"S  c #2F2428",
"D  c #2C242A",
"F  c #2E222E",
"G  c #2E242F",
"H  c #372223",
"J  c #382324",
"K  c #302529",
"L  c #32262A",
"P  c #32272B",
"I  c #342729",
"U  c #34272F",
"Y  c #352C31",
"T  c #3A2833",
"R  c #3E2A33",
"E  c #3F2C32",
"W  c #3F2D39",
"Q  c #3D3238",
"!  c #3D313B",
"~  c #422736",
"^  c #422937",
"/  c #412D38",
"(  c #422D38",
")  c #432D39",
"_  c #432F3A",
"`  c #413134",
"'  c #423235",
"]  c #41303A",
"[  c #443338",
"{  c #44303B",
"}  c #46323B",
"|  c #40373A",
" . c #43363D",
".. c #47363C",
"X. c #48333A",
"o. c #49343B",
"O. c #48373D",
"+. c #41383B",
"@. c #44383C",
"#. c #45393D",
"$. c #4A393E",
"%. c #4C3C3F",
"&. c #4B3A40",
"*. c #4C3B41",
/* pixels */
". < = = +.O.O.$.$...` ' , % : %.$.*.O...+.. . < % :  . .$.$.$...' ' ; ; : > : ( p p p I P P P P P P ",
". < = = @.O.$.$.$.O.` ` , : : $.%.O.@.+.+.. . < % -  .@.$.$.$.@...' ; ; > > - / p p p p P P P P P P ",
"9 . y y { { _ ] W W / R I : : ( ] { { _ ~ 9 8 . , y $.{ _ _ ] ] E E 8 w > 8 w ] $.%.p p p P K P P P ",
"%.7 ^ %.R Z Z b b c A A A 0 0 V n m z z V Y Y 7 I *.E R Z b b c V A A A 0 q 9 m c V %.%.p U U K P P ",
"8 &.Z Z R Z Z m b m K Z A 0 0 B n M z z C Y Y 7 I %.R R Z z n m C A A A w 9 9 n n m %.%.p I P P P P ",
"6 8 p l G O O O O O q w j c v + O * w 8 e j c , 8 l G A * O * % 2 j j j c n B ! V m ! ! p p p P P P ",
"O . 8 8 : O O % . X : O 6 k k + # + . + O : % % 1 6 : O O % * O O % 6 6 k c B 9 T _ *.*.a p p r D P ",
"% : 8 8 O % O % O * % X 6 k k + + + # + O . X : 3 8 O : O O . . O O 6 6 k B B 8 T _ *.*.a p p p P P ",
"% + O % & & & & & O . O * O O + . + & # # # # # % % & & & & & # O + O O 6 j j B w 0 _ _ *.*.*.p I P ",
"$ $ % % & & & & # # . . O # . . # O # & # O # & * % & & & & O O O O O : 6 j j m w w ^ ^ +.*.*.p S D ",
"O & % % & & & & # * % % & & & & # O & & # O & & & % * & % % + # & & & & O 6 6 j n B _ _ 8 *.*.p p P ",
"& & & * & & & & % * % % & & & & X + & * % % & & # % & & * % # O & & & & + X O % 9 k m B _ ! Q s p p ",
"& & & & & & & & * & & & & & & & % * % * & & & & & & & & # * # % & & & & & & & & 9 j m M _ ! Q s p p ",
"& & & & & & & & & & & & & & & & % % & & & & & & & & & & O % & * & & & & & & & & 6 6 j j B ^ _ $.p p ",
"& & & & & & & & & & & & & & & & & & & & & & & & & & & & & & & & & & & & & & & & * % 6 6 m _ _ s $.*.",
"& & & & & & & & & & & & & & & & & & & & & & & & & & & & & & & & & & & & & & * % # % 6 6 n _ _ s $.*.",
"& & & & & & & & & & & & & & & & & & & & & & & & & & & & & & & & & & & & & & & & & & 6 6 j C B t a s ",
"& & & & & & & & & & & & & & & & & & & & & & & & & & & & & & & & & & & & & & & & & & 2 6 j N B u H J ",
"& & & & & & & & & & & & & & & & & & & & & & & & & & & & & & & & & & & & & & & & O # O & j A K ^ ` ` ",
"& & & & & & & & & & & & & & & & & & & & & & & & & & & & & & & & & & & & & & & & 8 j 6 6 j ! ! K , ; ",
"& & & & & & & & & & & & & & & & & & & & & & & & & & & & & & & & & & & & & & & & k w 6 6 j ! ! K , , ",
"& & & & & & & & & & & & & & & & & & & & & & & & & & & & & & & & & & & & & & & & O # k k c 8 6 O : % ",
"& & & & & & & & & & & & & & & & & & & & & & & & & & & & & & & & & & & & & & & & O O 6 8 l T T &.Q Q ",
"& & & & & & & & & & & & & & & & & & & & & & & & & & & & & & & & & & & & & & & & O + 8 8 p T T %.Q Q ",
"& & & & & & & & & & & & & & & & & & & & & & & & & & & & & & & & & & & & & & & & % % + . w C C ~ { O.",
"& & & & & & & & & & & & & & & & & & & & & & & & & & & & & & & & & & & & & & & & % + + O 4 C N ^ o.X.",
"& & & & & & & & & & & & & & & & & & & & & & & & & & & & & & & & & & & & & & & & + . + + # v n _ o.%.",
"& & & & & & & & & & & & & & & & & & & & & & & & & & & & & & & & & & & & & & & & + + # % X B N ^ %.%.",
"& & & & & & & & & & & & & & & & & & & & & & & & & & & & & & & & & & & & & * % % . + + + % B B { *.%.",
"& & & & & & & & & & & & & & & & & & & & & & & & & & & & & & & & & & & & & % * % + . + + O B m ] O.$.",
"& & & & & & & & & & & & & & & & & & & & & & & & & & & & & & & & & & & & & & X O # O + + 0 z b _ ..@.",
"& & & & & & & & & & & & & & & & & & & & & & & & & & & & & & & & & & & & & & + O + # + . 8 z z _ @.@.",
"& & & & & & & & & & & & & & & & & & & & & & & & & & & & & & & & & & & & & & & & & & O X e C C R +.+.",
"& & & & & & & & & & & & & & & & & & & & & & & & & & & & & & & & & & & & & & & & & & + O e A A C B v ",
"& & & & & & & & & & & & & & & & & & & & & & & & & & & & & & & & & & & & & & & & & # + : r Y Y 9 . # ",
"& & & & & & & & & & & & & & & & & & & & & & & & & & & & & & & & & & & & & & & & & < O . , 7 7 X O < ",
"& & & & & & & & & & & & & & & & & & & & & & & & & & & & & & & & & & & & & & & & # # % O 1 7 7 X < < ",
"& & & & & & & & & & & & & & & & & & & & & & & & & & & & & & & & & & & & & & & & O % 8 6 l %.%.y = X ",
"& & & & & & & & & & & & & & & & & & & & & & & & & & & & & & & & & & & & & & & & % % * = G R R {  . .",
"& & & & & & & & & & & & & & & & & & & & & & & & & & & & & & & & & & & & & & & & % % : * G R R X. ...",
"& & & & & & & & & & & & & & & & & & & & & & & & & & & & & & & & & & & & & & & & * # O O : Z Z ( O.O.",
"& & & & & & & & & & & & & & & & & & & & & & & & & & & & & & & & & & & & & & & & O # O % O C V { @.$.",
"& & & & & & & & & & & & & & & & & & & & & & & & & & & & & & & & & & & & & & & & # # + . O b b ( O.$.",
"& & & & & & & & & & & & & & & & & & & & & & & & & & & & & & & & & & & & & & & & O O O . X m n ( ....",
"& & & & & & & & & & & & & & & & & & & & & & & & & & & & & & & & & & & & & & & & . . O O : n m _ O...",
"& & & & & & & & & & & & & & & & & & & & & & & & & & & & & & & & & & & & & * & & O + O O w A A R ' [ ",
"& & & & & & & & & & & & & & & & & & & & & & & & & & & & & & & & & & & & # % % % O : 6 6 j ! ! K , ; ",
"& & & & & & & & & & & & & & & & & & & & & & & & & & & & & & & & & & & & * * % % % % 6 6 j ! ! I , > ",
"& & & & & & & & & & & & & & & & & & & & & & & & & & & & & & & & & & & & & & & & O . k k c 8 0 > = = ",
"& & & & & & & & & & & & & & & & & & & & & & & & & & & & & & & & & & & & & & & & O O 8 w l K K U A K "
};
