/* XPM */
static char *d5294646e0f94d54ead6208c71b3eb24ttUQQxT0Bz1UOD48[] = {
/* columns rows colors chars-per-pixel */
"50 50 142 2 ",
"   c #020109",
".  c #02010B",
"X  c #03030B",
"o  c #04030B",
"O  c #06050B",
"+  c #02020E",
"@  c #06030E",
"#  c #02040E",
"$  c #04040E",
"%  c #07040F",
"&  c #07070F",
"*  c #09060D",
"=  c #0A070E",
"-  c #040410",
";  c #080714",
":  c #0A0813",
">  c #0D0912",
",  c #0B0914",
"<  c #0A0D16",
"1  c #0E0C19",
"2  c #140713",
"3  c #100B12",
"4  c #120A15",
"5  c #130B16",
"6  c #110E19",
"7  c #100F19",
"8  c #170C19",
"9  c #130F1C",
"0  c #10101A",
"q  c #141319",
"w  c #16131A",
"e  c #15141A",
"r  c #12101D",
"t  c #14131D",
"y  c #15141C",
"u  c #1A131B",
"i  c #1C121B",
"p  c #18121C",
"a  c #1A131C",
"s  c #1D131C",
"d  c #22191E",
"f  c #171520",
"g  c #1E1621",
"h  c #1F1522",
"j  c #1E1724",
"k  c #1E1725",
"l  c #1F1823",
"z  c #211521",
"x  c #221725",
"c  c #231A22",
"v  c #251C21",
"b  c #231924",
"n  c #261A24",
"m  c #261A26",
"M  c #271D26",
"N  c #2A1A25",
"B  c #2C1B25",
"V  c #2A1D24",
"C  c #2A1E27",
"Z  c #2F1F27",
"A  c #241729",
"S  c #251A28",
"D  c #271A2C",
"F  c #2B1B28",
"G  c #2B1D29",
"H  c #281E29",
"J  c #2E1E29",
"K  c #281B2D",
"L  c #2A1B2F",
"P  c #2C1B2D",
"I  c #2E1D2D",
"U  c #311F2B",
"Y  c #341D2D",
"T  c #351F2C",
"R  c #2B1C31",
"E  c #2F1F32",
"W  c #301F32",
"Q  c #2B2028",
"!  c #2C2029",
"~  c #2F2428",
"^  c #2F212E",
"/  c #2F232F",
"(  c #322229",
")  c #32272B",
"_  c #32222C",
"`  c #30232F",
"'  c #35232F",
"]  c #37232E",
"[  c #38212B",
"{  c #3A232D",
"}  c #39232F",
"|  c #3E242D",
" . c #3D272D",
".. c #3E272D",
"X. c #3D282F",
"o. c #292130",
"O. c #2F2432",
"+. c #332330",
"@. c #342330",
"#. c #322431",
"$. c #362631",
"%. c #352734",
"&. c #3B2330",
"*. c #3B2331",
"=. c #392530",
"-. c #3C2633",
";. c #3F2734",
":. c #3C2832",
">. c #3E2932",
",. c #3D2834",
"<. c #3C2B37",
"1. c #422529",
"2. c #40252C",
"3. c #43282F",
"4. c #412730",
"5. c #412734",
"6. c #402B34",
"7. c #422937",
"8. c #452B34",
"9. c #472D35",
"0. c #412B38",
"q. c #432E3A",
"w. c #41313B",
"e. c #453039",
"r. c #46333C",
"t. c #483338",
"y. c #4C3138",
"u. c #4A353E",
"i. c #4D3241",
"p. c #483440",
"a. c #493842",
"s. c #5B5658",
"d. c #6F6D6E",
"f. c #797879",
"g. c #7E7E7E",
"h. c #818181",
"j. c gray51",
"k. c #838383",
"l. c #9F9E9E",
"z. c #C2C1C1",
"x. c #D2CECE",
"c. c gray82",
/* pixels */
"$ # # $ $ * - - - # - * - @ $ - $ $ - * - * - @ @ - - - - @ @ * @ @ @ # - * $ - * - - * * @ @ # # # ",
"$ # # @ @ - - $ o.8 2 $ @ @ @ o.2 @ x @ - o.8 5 @ @ 3 8 O.@ @ x @ 3 ^ + $ + # 2 8 o.- - - $ @ # # $ ",
"$ $ $ $ $ # > < D <.w.. . < < D w.o ! < < S >.w.. O q.<.D < < ! o w.D < < o o w.<.S > < $ $ $ + $ $ ",
"$ . . $ $ $ z z I >.>.O O g g I 4.$ C g l I :.>.O O >.=.P g g C O 7.L g g $ O 4.5.I g z $ $ $ . + $ ",
"@ . @ - - $ z g E =.4.O O g g R 7.# C s g I -.7.O O 4.>.P g g C O >.I g g O $ =.:.L g g @ # @ . . $ ",
"+ + + t t #.i.i.p.=.} O . i.i.u.} O m i.i.p.=.} . . } -.p.i.i.m O } p.i.i.. * ] =.p.i.i.] t 6 + @ $ ",
"$ . . - ; F 0.0.q.} *.+ @ 7.7.q.} # c 8.0.q.=.} # # } -.q.7.7.m $ } q.7.7.# + *.-.q.7.7.K ; ; + . # ",
"$ . + + + z &.&.0.-.] @ @ } &.-.: u C } *.7.=.*.$ $ } } 7.} } C s $ 7.} -.$ - =.=.7.&.*.d + + + . $ ",
"+ g O.4 4 0 #.E *.@.+.@ @ E E C i p N W #.=.R E $ $ +.R *.E E B i p C I +.@ @ +.@.*.E E r 4 4 O.k + ",
"+ c O.4 5 6 E E *.+.+.@ - +.H p p H R W E R =.t e t t -.R R R R H s p C E @ @ +.@.*.E W 6 4 4 #.g + ",
"t m O.p.a.5 S S } ` ^ - # S : a E L -.w p , a a - * p p > p t -.R R t : A $ $ _ +.$.m A 6 p.p.( m w ",
"] ,.0.e.e.> D K =.J H - : : : R -.w p p > > a a > : s p > > p p p =.E > ; ; > H C *.K H 5 w.q.q.-.$.",
"] -.0.q.e.3 K K =.C M : : : t e > > i L K =.c M : > M c -.L S p > > e t < : > H C } K L 3 e.e.0.-.} ",
"y.9.8.=.=.4 K K _ > @ f f t u _ H c c c c c > # f a # > N d c m c M _ p t a t $ : _ L S < =.=.9.9.y.",
"3.4.4.$.$.1 ! H Q 6 , w t > c c c b C F K Q 1 : k k : 6 Q H H Q c c c c > t e : 1 H Q L 4 $.=.4.4.4.",
"2.| | $.$.5 Q o.H t t > > c J M H m ( H Q J r 1 S H 1 r L H Q _ m C C H v > : t 0 ^ Q Q 1 $.$.} | 2.",
"+.@.&.U I 5 : : b e t w [ -.[ [ =.( ( } ( } 2._ ( ( ( 4.*.T ] _ ( 4.*.T -.T p 0 e c : : 4 P I &.$.$.",
"%.@.&.F I < e t p > > } } -.[ ( 0.( ( [ *.4.5._ ( ( _ 5.2.=.T ( _ 7.( } { } ] > > g 0 w 6 U I &.} +.",
"_ _ E U _ 9 r t > t C 2.} } } } 5.( ( } 5.*.>._ _ ( ] 5.} 4.[ ( _ 4.} } &.} 2.J t > q t 6 P U W U O.",
"T U T _ ^ @ f f c z z V V c :.| U U C N | =._ J C Z J P -.-.B Z C ( | X.c V C z z b f f @ U _ ] U U ",
"Y U T K Q 1 m S -.,.-.>.:.^ 3.X.=.N N | >.| =.N N B H ] 2.| 4.C _ ] } >._ :.>.-.-.-.S S 1 H H ( T U ",
"4 h D J J 6 S S -.=.,.=.:.( |  ._ m v v * * * * * * * * * * d c d $.| | _ 4.:.=.-.-.m m 1 H R S z 4 ",
": b D k s p T } -.[ } 7.7._ l c d * * * * c.c.c.c.c.c.c.c.* * * * d c c _ 4.4.*.[ ,._ } p g l K x , ",
"4 g L . o H =.| &.} =.2.>._ d v * c.c.c.c.c.x.x.x.x.x.x.c.c.c.c.c.* d d O.:.3.{ } | -.{ ! . . C x 4 ",
"6 k Q - + Q 2.} &.} [ 4.5.m * * c.c.x.x.x.x.x.x.z.z.x.x.x.x.x.x.c.c.* * d 3.-.} } } | -.Q @ + ! k 6 ",
"5 k Q - + p C C u.t.t.} d O c.c.x.x.x.x.z.z.z.z.z.z.z.z.z.z.x.x.x.x.c.c.* v [ r.t.u.C v p $ @ H k 5 ",
"1 e e g k R s c X.3.X.d * c.c.x.x.x.z.z.z.l.l.l.l.l.l.l.l.z.z.z.x.x.x.c.c.* c X.X.X.d l H k k 6 6 4 ",
"0 0 u l k Q l c X.X.d * c.c.x.x.z.z.z.l.l.l.l.l.l.l.l.l.l.l.l.z.z.z.x.x.c.c.* v X.X.k z R S m t 6 6 ",
"5 u t z x C _ Q -.c * c.c.x.x.z.z.l.l.l.l.l.l.l.l.l.l.l.l.l.l.l.l.z.z.x.x.c.c.* d -.` _ C d z w e r ",
": $ $ b z C ` ` -.d * c.x.x.z.l.l.l.l.l.l.s.d.d.f.f.d.d.s.l.l.l.l.l.l.z.x.x.c.* d -./ ~ C z z o $ : ",
"- 0 t =.:.>.( ( v * c.x.z.z.l.l.l.l.g.d.d.h.h.g.f.f.g.h.h.d.d.g.l.l.l.l.z.z.x.c.= d _ ( ,.-.>.t 6 : ",
"< 0 a ( } 3._ d * c.x.z.z.l.l.l.s.f.f.d.g.h.g.d.d.d.d.g.h.g.d.f.f.s.l.l.l.z.z.c.c.= d ( 4.[ ] t 0 : ",
"t g c =.[ 3.` d = c.z.z.l.l.s.f.h.f.h.h.g.d.d.d.g.g.d.d.d.g.h.h.f.h.f.s.l.l.z.z.c.= d _ 3.} ( c g f ",
"f b c ( } 1.2.d = x.z.l.l.d.g.h.h.h.h.f.s.f.h.h.g.g.h.g.f.s.f.h.h.h.g.g.d.l.l.z.x.* N 2.1.] { c g f ",
"S ] 5.e.e.2.C * x.z.z.l.f.g.g.k.f.h.s.f.h.) ) ) ) ) ) ) ) k.f.s.g.f.h.g.g.f.l.z.z.c.* N 1.t.t.-._ S ",
"T *.-.t.e.J B * z.z.l.f.g.d.d.d.f.) ) ) ) ) ) ) ) ) ) ) ) ) ) ) ) f.d.d.d.g.f.l.z.z.* C J t.t.-.} ( ",
"] *.=.| 2.! v * z.l.l.d.s.) ) ) ) ) ) ) ) ) ) ) ) ) ) ) ) ) ) ) ) ) ) ) ) s.d.l.l.z.= d J 2.X.-.} } ",
"} } *.2.1.Q * z.l.l.s.d.) ) ) ) ) ) ) ) ) ) ) ) ) ) ) ) ) ) ) ) ) ) ) ) ) ) d.s.l.l.z.= H | 2.{ -.} ",
"w.r.u.-.L Q * l.l.s.) ) ) ) ) ) ) ) ) ) ) ) ) ) ) ) ) ) ) ) ) ) ) ) ) ) ) ) ) ) s.l.l.* J C -.u.r.w.",
"w.r.u.H Q c * l.s.) ) ) ) ) ) ) ) ) ) ) ) ) ) ) ) ) ) ) ) ) ) ) ) ) ) ) ) ) ) ) ) s.l.# c J Q u.r.w.",
"p Z >.J ` %.= s.) ~ ) ) ) ) ) ) ) ) ) ) ) ) ) ) ) ) ) ) ) ) ) ) ) ) ) ) ) ) ) ) ( ) s.= %./ Q X.C i ",
"u C >.%.%.%.= s ) ~ ) ) ) ) ) ) ) ) ) ) ) ) ) ) ) ) ) ) ) ) ) ) ) ) ) ) ) ) ) ) ~ ) s = %.%.=.X.J w ",
"e C =.! %.%.= s ) ) ) ) ) ) ) ) ) ) ) ) ) ) ) ) ) ) ) ) ) ) ) ) ) ) ) ) ) ) ) ) ) ) s = %.%.! >.J w ",
"w J %.] %.* s d ) ) ) ) ) ) ) ) ) ) ) ) ) ) ) ) ) ) ) ) ) ) ) ) ) ) ) ) ) ) ) ) ) ) d s # %.+.%.Q e ",
"0 >.X.$.* s s d ) ) ) ) ) ) ) ) ) ) ) ) ) ) ) ) ) ) ) ) ) ) ) ) ) ) ) ) ) ) ) ) ) ) d s s * %.X.X.e ",
"* * * * s s v ) ) ) ) ) ) ) ) ) ) ) ) ) ) ) ) ) ) ) ) ) ) ) ) ) ) ) ) ) ) ) ) ) ) ) ) v s s * * = = ",
"s s i i d d ) ) ) ) ) ) ) ) ) ) ) ) ) ) ) ) ) ) ) ) ) ) ) ) ) ) ) ) ) ) ) ) ) ) ) ) ) ) d i s s s s ",
"s s s v d ) ) ) ) ) ) ) ) ) ) ) ) ) ) ) ) ) ) ) ) ) ) ) ) ) ) ) ) ) ) ) ) ) ) ) ) ) ) ) ) d m s s s ",
"d d d d ) ) ) ) ) ) ) ) ) ) ) ) ) ) ) ) ) ) ) ) ) ) ) ) ) ) ) ) ) ) ) ) ) ) ) ) ) ) ) ) ) ) v d d d ",
"d m d ) ) ) ) ) ) ) ) ) ) ) ) ) ) ) ) ) ) ) ) ) ) ) ) ) ) ) ) ) ) ) ) ) ) ) ) ) ) ) ) ) ) ) ) v v d "
};
