/* XPM */
static char *ddab32cf3cc349b7bb3745af602ff338bvxl02kIexZDWTfG[] = {
/* columns rows colors chars-per-pixel */
"50 50 157 2 ",
"   c None",
".  c #010101",
"X  c #090504",
"o  c #0F0906",
"O  c #060609",
"+  c #08070C",
"@  c #070908",
"#  c #0A0A0C",
"$  c #100A07",
"%  c #130C0A",
"&  c #0B0A10",
"*  c #0F1211",
"=  c #161112",
"-  c #1D1B1F",
";  c #26170D",
":  c #271B16",
">  c #171523",
",  c #191726",
"<  c #1A1827",
"1  c #1D1B2C",
"2  c #211C27",
"3  c #221D2A",
"4  c #221F33",
"5  c #25202E",
"6  c #28222F",
"7  c #262E2C",
"8  c #2C292D",
"9  c #29312E",
"0  c #242334",
"q  c #2D2534",
"w  c #262835",
"e  c #292739",
"r  c #2A283A",
"t  c #332934",
"y  c #3A2B35",
"u  c #2D3535",
"i  c #2F3836",
"p  c #2E3538",
"a  c #303936",
"s  c #323638",
"d  c #3C303A",
"f  c #353E3B",
"g  c #393F3D",
"h  c #402F36",
"j  c #453334",
"k  c #4C3733",
"l  c #4A3836",
"z  c #663D2A",
"x  c #693F2B",
"c  c #39413F",
"v  c #49443C",
"b  c #50493C",
"n  c #6A402C",
"m  c #70442E",
"M  c #6D4539",
"N  c #724736",
"B  c #764B32",
"V  c #7F4D35",
"C  c #714739",
"Z  c #754939",
"A  c #784B3A",
"S  c #7E553D",
"D  c #333241",
"F  c #3C4441",
"G  c #4D4E4A",
"H  c #4F504C",
"J  c #52514D",
"K  c #575551",
"L  c #595652",
"P  c #5C5A57",
"I  c #56555A",
"U  c #57585D",
"Y  c #5A595C",
"T  c #6F655F",
"R  c #656665",
"E  c #676867",
"W  c #69666C",
"Q  c #676868",
"!  c #686868",
"~  c #6E6B72",
"^  c #77737A",
"/  c #975B22",
"(  c #995B22",
")  c #834E33",
"_  c #804E3A",
"`  c #8D5531",
"'  c #85533B",
"]  c #8E563B",
"[  c #81583D",
"{  c #955A37",
"}  c #9E5F37",
"|  c #90573B",
" . c #95593A",
".. c #9C5D38",
"X. c #9E622F",
"o. c #9F6036",
"O. c #93633F",
"+. c #9F6038",
"@. c #A6652E",
"#. c #AB692F",
"$. c #B46C2C",
"%. c #BD712E",
"&. c #A36237",
"*. c #AA6E32",
"=. c #BE7130",
"-. c #BC7932",
";. c #C2742E",
":. c #C8772F",
">. c #CB792D",
",. c #D27D2C",
"<. c #C17330",
"1. c #C27C33",
"2. c #CC7E30",
"3. c #9B7042",
"4. c #D2812E",
"5. c #C48637",
"6. c #CA8132",
"7. c #D38531",
"8. c #D38C35",
"9. c #D38E35",
"0. c #D38A33",
"q. c #D49037",
"w. c #D49037",
"e. c #D49439",
"r. c #D4943A",
"t. c #D5983C",
"y. c #85E81C",
"u. c #B5AE55",
"i. c #C4AF4F",
"p. c #D7BA4F",
"a. c #D7B94F",
"s. c #D8BA4F",
"d. c #C3AE53",
"f. c #C6B754",
"g. c #C7B152",
"h. c #CCB653",
"j. c #CFBE57",
"k. c #CDBF56",
"l. c #D2BF56",
"z. c #D7BE53",
"x. c #D8BB50",
"c. c #D8BD51",
"v. c #D8BF52",
"b. c #D8BC51",
"n. c #D2C056",
"m. c #D8C153",
"M. c #D9C555",
"N. c #D9C656",
"B. c #D9C153",
"V. c #D9C857",
"C. c #D2C358",
"Z. c #D9CB59",
"A. c #D9C958",
"S. c #DACF5B",
"D. c #D9CD5A",
"F. c #D9D05B",
"G. c #DAD45E",
/* pixels */
"                                                                                                    ",
"                                                                                                    ",
"                                                                                                    ",
"                                                                                                    ",
"                                                                                                    ",
"                                                                                                    ",
"                                                                                                    ",
"                                                                                                    ",
"                              t t >.,.,.,.,.,.y t q                                                 ",
"                        q { >.7.7.4.8.M.V.7.M.,.,.,...{ >.>.;.;.,.,.,.,.,.,.,.,.          q q q t   ",
"              s C.>.2.,.,.F.G.4.4.4.,.,.,.,.,.M.7.,.,.,.7.n.l.,.q B ,.A.Z.Z.q.0.O 0 0 0 0 ' +...:.1 ",
"            6.' # # @ ;.y ,.,.>. .) V V V ) ) :.,.,.,.n.6 # @ 1 ,.j $.,.7.7.B.,.1 f f G K V B.B.0.1 ",
"          4 C.# c f 0 0 2.$.) 0 @ i c f f c f O @ V 7.t ~ c u f Z :.O { { ..>.,.1 0 0 p p _ z.z.7.1 ",
"          4  .J u @ ^ 3 j.X i f K K L K L L L L K R 1.o c u f c 4 f.$ :.A.7.,.,.O 0 0 0 0 _ ,.,.,.1 ",
"          4 ..9 f ^ a @ n.X i L L L L L L L L L L E ;.% 0 f c u q h.o >.,.,.>.,.1 c c G J V ,.,.,.1 ",
"          ] :...i 0 O O.' a K L L L L L L L L L L L r ,.y s @ 8 l.7.{ <.2.<.,...1 0 0 p p _ <.<.+.1 ",
"          >.0.>.:.j.j.V @ K L L L L L L L L L L L L R N %.:.6.-.,.o.,.{ ;.<.{  .1 3 1 4 1 Z ] ] _ 1 ",
"        t 0.M.2.. @ O f F c F c F c c F F c c F F c F c # @ @ $ ,.,.,.,._ A y y           4 1 1 1   ",
"      t :.F.7.| @ a L L L . L L L L K L L L L L L L L L L L L D :.,.,.,.y A q $                     ",
"    1 >.,.9.,.3 a L L L L L . L L L L L L . . . . . L L L L L R A :.7.,.,.{ | |           t t t t   ",
"    0 >.,.8. .. L L L L L L . L L L L L . . . . . . . L L L L L r $.,.7.,.,.0.0.O 0 0 0 0 ' &.&.<.1 ",
"    4 ,.8.,. .i K L L L L . . . . . L . . . . . . . . . L L L L ! r v.,.,.:.,.,.1 c f H H V c.x.<.1 ",
"    0 ,.8.4. .i L L L L . . y.. . . . . . . . . . . . . L L L L ! r 0.7.,.:.,.,.1 0 0 p p _ v.x.,.1 ",
"    4 ,.0.4.| i F F F F . . . . . . . . . . . . . . . . F F F F W r 0.7.:.:.,.,.O 0 0 w 0 _ ,.,.,.1 ",
"    0 ,.,.,. .i L L L L . . . . . . . . y.. . . . . y.. L L L L Q r 8.7.{ :.,.:.1 f f G G _ ,.,.,.1 ",
"    0 ,.0.,. .i L L L L . . . . . . . . . y.. . . y.y.. L L L L E r 0.7.{ <.&.,.4 w 0 p p _ <.=.+.1 ",
"    0 >.,.w.,.. J P L L L . . . . . . . . y.y.y.y.y.. L L L L L r  .9.7.{ =. . .> < < 1 1 M | _ _ 1 ",
"    1 :.,.,.,.; G L L L L L L L L L L . L . . . . . L L L L L P d ;.q.,.| h C C           1 < < 1   ",
"    1 Z >.4.,.,.7 L P L K K L L L L L L . K K L . L L L P P P T ;.,.e.<.t t Z &                     ",
"      0 Z ,.,.,.b j k Y F G F F F F F F G F F F F . F Y l v v j ,.A.0.{ ' | ....          y y y y   ",
"        0 >.,.h.B m m >.d L L L L L P L L L L L L L Y 5.u.B m @.&.@.;.h 8.t.q.4.+ 0 0 w 0 _ &.&.:.1 ",
"          C S.3 G J a N ,.7 G L L L L L L L L L L P l [ - G J * =.,.&.%.a.a.n.7.1 c f G G ' s.x.7.1 ",
"          0 h.= F f w w :.. i L L L L L L L L L L ! 5.8 W F 7 f M ;.X.:.,.,.,.,.1 s p a f V t.t.4.1 ",
"          0 | J 9 # ~ 1 h.X i L L L L L L L L L L ! 5.o g 7 G f 4 i.$ >.,.,.,.,.> 4 4 4 4 S ,.,.,.1 ",
"          0 +.7 F ~ a + h.X y Y P P L L L L L P P : ;.= w g F 7 t g.o ..+.+.>.,.1 f f c F ' ,.,.,.1 ",
"            =.&.u 0 + 3.4.>.,.&.k I U U Y U U k k >.,.,.h p & t d.S ` v.v.7.&.<.1 p p f a _ ,.>.;.1 ",
"            . / <.g.g.%.&.,.,.a.,.q.,.9.q.q.q.9.s.D.B.&.#.;.1.*.2 # { &.&.&.=.=.4 0 4 0 4 y  . .y 1 ",
"                . . . z %.,.,.,.x.,.x.7.7.4.7.7.,.,.<.q = # + # M | ] ] ] ] Z ]           0 y y q   ",
"                        . z ( ,.,.,.,.,.;.<.<.|  .A 3 2 , , , , , , 1 < , < ,                       ",
"                              . . x x x x z n . . .                                                 ",
"                                                                                                    ",
"                                                                                                    ",
"                                                                                                    ",
"                                                                                                    ",
"                                                                                                    ",
"                                                                                                    ",
"                                                                                                    ",
"                                                                                                    ",
"                                                                                                    ",
"                                                                                                    "
};
