/* XPM */
static char *_f0c2de2addf48f4f147d6d236adfd7b5HUqgVQaROGdVHNk[] = {
/* columns rows colors chars-per-pixel */
"50 50 98 2 ",
"   c None",
".  c black",
"X  c #030204",
"o  c #030305",
"O  c #0A0506",
"+  c #131B0C",
"@  c #14190D",
"#  c #140C11",
"$  c #170C11",
"%  c #181C11",
"&  c #1A1D13",
"*  c #1C1E14",
"=  c #161421",
"-  c #161522",
";  c #191826",
":  c #191827",
">  c #1D1B2C",
",  c #1D1B2D",
"<  c #1D1C2D",
"1  c #1E1C2D",
"2  c #1E1C2E",
"3  c #321D2B",
"4  c #222034",
"5  c #242334",
"6  c #242335",
"7  c #242435",
"8  c #262635",
"9  c #262735",
"0  c #26263F",
"q  c #3B2234",
"w  c #3B2D36",
"e  c #3C2D36",
"r  c #2C3237",
"t  c #323C39",
"y  c #45283C",
"u  c #4D293B",
"i  c #4A3436",
"p  c #632B39",
"a  c #6A2C39",
"s  c #3B423F",
"d  c #3C423F",
"f  c #684338",
"g  c #714739",
"h  c #734839",
"j  c #744839",
"k  c #784B38",
"l  c #4B692F",
"z  c #50762F",
"x  c #33335E",
"c  c #3F3F74",
"v  c #3B4978",
"b  c #394C7A",
"n  c #34577E",
"m  c #335A7F",
"M  c #326C7D",
"N  c #347F76",
"B  c #4B4D49",
"V  c #595652",
"C  c #5D595A",
"Z  c #64605F",
"A  c #7A767E",
"S  c #7B767E",
"D  c #7B777E",
"F  c #8F2F35",
"G  c #9F3133",
"H  c #AC3232",
"J  c #AE3334",
"K  c #B03536",
"L  c #B73B3E",
"P  c #84513A",
"I  c #8F563B",
"U  c #945A36",
"Y  c #9F5F37",
"T  c #A2632E",
"R  c #A2642E",
"E  c #A16137",
"W  c #A56336",
"Q  c #BC7031",
"!  c #CC792D",
"~  c #CF7B2C",
"^  c #D27D2C",
"/  c #A37643",
"(  c #C94A51",
")  c #54812F",
"_  c #598E30",
"`  c #61A62F",
"'  c #6ABE30",
"]  c #6DC132",
"[  c #72C435",
"{  c #77C939",
"}  c #D49138",
"|  c #D7B64D",
" . c #D7B94E",
".. c #8BDA47",
"X. c #D9CD5A",
"o. c #306082",
"O. c #316680",
"+. c #847E87",
/* pixels */
"                                                                                                    ",
"                                                                                                    ",
"                                                                                                    ",
"                                                                                                    ",
"                                                                                                    ",
"                                                                                                    ",
"                                                                                                    ",
"                                                                                                    ",
"                                                                                    - =             ",
"                                                                > > > >           - U i = =         ",
"t t t 9 t t t 9 t t t 9 t t t 9 t t t 9 t t t 9 t t t 9 t t t 9 h W W U o 5 5 5 9 T X./ 3 u a O     ",
"+.+.+.Z +.+.+.Z +.+.+.Z +.+.+.Z +.+.+.Z +.+.+.Z +.+.+.Z +.+.+.Z j  . .W : s s s B R ^ E 3 F K J #   ",
"D D D C D D D C D D D C D D D C D D D C D D A C D D D C D D D C j | | } : 9 9 9 r R ^ E 3 F ( L p   ",
"t t t 9 t t t 9 t t t 9 t t t 9 t t t 9 t t t 9 t t t 9 t t t 9 j ^ ^ ^ o 9 4 9 4 R ^ E 3 F H H p   ",
"V V V d V V V d V V V d V V V d V V V s V V V d V V V d V V V s g ^ ^ ^ : s s s B R ! E 3 y G G y   ",
"V V V d V V V s V V V d V V V s V V V d V V V s V V V d V V V d g Q Q W : 9 9 9 r k ~ Y 3 y y y #   ",
". . . . . . . . . . . . . . . . . . . . . . . . . . . . . . . . f I I P = 2 2 2 2 g Y U 3 y y q     ",
"                                                                2 > > >           4 w e . .         ",
"                                                                                    = =             ",
"                                                                > > > >           = U i = =         ",
"t t t 9 t t t 9 t t t 9 t t t 9 t t t 9 t t t 9 t t t 9 t t t 9 h W W U o 5 5 4 9 T X./ x v v x     ",
"+.+.+.Z +.+.+.Z +.+.+.Z +.+.+.Z +.+.+.Z +.+.+.Z +.+.+.Z +.+.+.Z h  . .W : s s s B T ^ E x n M M x   ",
"D D D C D D D C D D D C D D D C D D D C D D D C D D D C D D D C h | | } : 9 9 9 r R ^ E x n N M v   ",
"t t t 9 t t t 9 t t t 9 t t t 9 t t t 9 t t t 9 t t t 9 t t t 9 j ^ ^ ^ o 5 9 5 4 R ^ E x n o.o.v   ",
"V V V d V V V d V V V d V V V d V V V d V V V d V V V d V V V d h ^ ^ ^ : s s s B T ! E x c n n c   ",
"V V V d V V V d V V V d V V V d V V V d V V V d V V V d V V V d j Q Q W : 9 9 9 r j ^ Y x c c c #   ",
". . . . . . . . . . . . . . . . . . . . . . . . . . . . . . . . f I I P = 2 2 2 2 g Y U x c v x     ",
"                                                                2 > > >           4 e e . .         ",
"                                                                                    = =             ",
"                                                                > > > >           = U i = =         ",
"t t t 9 t t t 9 t t t 9 t t t 9 t t t 9 t t t 9 t t t 9 t t t 9 j W W U o 5 4 9 9 R X./ % z _ +     ",
"+.+.+.Z +.+.+.Z +.+.+.Z +.+.+.Z +.+.+.Z +.+.+.Z +.+.+.Z +.+.+.Z g  . .W : s s s B R ^ E % ` [ ] @   ",
"D D D C D D D C D D D C D D A C D D D C D D D C D D A C D D D C g | | } : 9 9 9 r R ^ E % ` ..{ )   ",
"t t t 9 t t t 9 t t t 9 t t t 9 t t t 9 t t t 9 t t t 9 t t t 9 j ^ ^ ^ o 5 9 4 5 R ^ E % ` ' ' )   ",
"V V V s V V V d V V V d V V V t V V V d V V V d V V V t V V V d j ^ ^ ^ ; s s d B T ! E % l ` ` *   ",
"V V V d V V V d V V V s V V V B V V V d V V V s V V V B V V V d g Q Q W ; 9 9 9 r k ! E % l l l #   ",
". . . . . . . . . . . . . . . . . . . . . . . . . . . . . . . . f I I P = 2 2 2 > g E U % l l %     ",
"                                                                2 > > >           4 e e . .         ",
"                                                                                    - -             ",
"                                                                                                    ",
"                                                                                                    ",
"                                                                                                    ",
"                                                                                                    ",
"                                                                                                    ",
"                                                                                                    ",
"                                                                                                    ",
"                                                                                                    ",
"                                                                                                    ",
"                                                                                                    ",
"                                                                                                    "
};
