/* XPM */
static char *_4b96b63d6f24169865c40dc922b7b22MOZJZBh6nqNggVcO[] = {
/* columns rows colors chars-per-pixel */
"50 50 153 2 ",
"   c None",
".  c #4C2611",
"X  c #4F2913",
"o  c #512B14",
"O  c #512E19",
"+  c #54321D",
"@  c #5C341E",
"#  c #543523",
"$  c #5A3721",
"%  c #563926",
"&  c #5C3B26",
"*  c #573C2B",
"=  c #5D3D2A",
"-  c #5E412B",
";  c #5C4432",
":  c #5E493C",
">  c #61432E",
",  c #624632",
"<  c #634A36",
"1  c #624B3C",
"2  c #66513D",
"3  c #69533F",
"4  c #5C4E41",
"5  c #5E5144",
"6  c #5F5449",
"7  c #635444",
"8  c #695445",
"9  c #665844",
"0  c #6C5A47",
"q  c #625649",
"w  c #695649",
"e  c #655B4D",
"r  c #6B5B4A",
"t  c #725E4C",
"y  c #655D53",
"u  c #6A5E50",
"i  c #6D614F",
"p  c #676056",
"a  c #6C6254",
"s  c #6C655A",
"d  c #6E685C",
"f  c #726556",
"g  c #706659",
"h  c #726B5D",
"j  c #7B6A5B",
"k  c #5E7268",
"l  c #6F6961",
"z  c #736D62",
"x  c #62746E",
"c  c #767165",
"v  c #7A7365",
"b  c #777368",
"n  c #7A7669",
"m  c #717C6F",
"M  c #7D796D",
"N  c #6E7C72",
"B  c #7F7C71",
"V  c #807B6E",
"C  c #817E72",
"Z  c #68857D",
"A  c #7B857B",
"S  c #7A887E",
"D  c #858275",
"F  c #898477",
"G  c #868479",
"H  c #89867A",
"J  c #86897C",
"K  c #8C897C",
"L  c #918C7F",
"P  c #3AAAAE",
"I  c #3CAFB3",
"U  c #3EB2B6",
"Y  c #3FB3B8",
"T  c #5F918C",
"R  c #5C9D9C",
"E  c #658E86",
"W  c #688A83",
"Q  c #7E8C84",
"!  c #6D9894",
"~  c #7C9A95",
"^  c #65A09D",
"/  c #42A1A3",
"(  c #4FA4A5",
")  c #57AFB2",
"_  c #44B1B6",
"`  c #4BB5B6",
"'  c #44BABE",
"]  c #56B1B1",
"[  c #37BEC7",
"{  c #42BAC0",
"}  c #33C3CD",
"|  c #3AC6CF",
" . c #33C7D1",
".. c #3DC7D1",
"X. c #32CAD5",
"o. c #30CED9",
"O. c #3ACBD5",
"+. c #31D1DC",
"@. c #38D4DF",
"#. c #2ED9E5",
"$. c #2EDEEA",
"%. c #35D5E0",
"&. c #32DAE5",
"*. c #31DDE9",
"=. c #3DDFEA",
"-. c #2DE1ED",
";. c #2DE7F4",
":. c #2CE8F5",
">. c #33E6F2",
",. c #3CE4F0",
"<. c #45C2C6",
"1. c #45CBD4",
"2. c #4BCCD6",
"3. c #53CED7",
"4. c #50CED8",
"5. c #4DD1DB",
"6. c #55D2DB",
"7. c #5CD3DC",
"8. c #6AD8DF",
"9. c #77E2D9",
"0. c #45DAE4",
"q. c #43DEE9",
"w. c #55D6E0",
"e. c #51DAE4",
"r. c #5CDEE7",
"t. c #54DFE9",
"y. c #62DBE4",
"u. c #6CDBE3",
"i. c #68DFE8",
"p. c #74DBE2",
"a. c #7ADEE6",
"s. c #42E3EE",
"d. c #4CE1EC",
"f. c #7EE8EF",
"g. c #6EE8F1",
"h. c #71E8F0",
"j. c #8F8B80",
"k. c #8D8B80",
"l. c #8F8C81",
"z. c #8E8C81",
"x. c #918E83",
"c. c #928F85",
"v. c #918E83",
"b. c #939085",
"n. c #939186",
"m. c #959388",
"M. c #99968A",
"N. c #9A988E",
"B. c #899891",
"V. c #94C3C2",
"C. c #85DFE6",
"Z. c #84E1E8",
"A. c #9BE8EE",
/* pixels */
"                                        G C M F G G F F J M ,                                       ",
"                                        K F G H H G H H F F M                                       ",
"                                        x.F G F K M.m.H H H b.                                      ",
"                                  & & > z.F J ' }  .} } J H b.X + &                                 ",
"                                , C C V b.F ! -.>.>.;.:.} H b.i v M &                               ",
"                            C D D & & & L H ] s.3.3.s.#.+.^ ~ - = = D D F                           ",
"                        f j F f 0 F V.H K ' o.>.} } #.} :.} ] F G G t j D >                         ",
"                    , H D D $ v D D D F } ;.s...;.;.:.:.} :.$.S H G F H , C n n >                   ",
"                > z.G G D D D D D F D D } h.8.O.:.:.:.:.} >.&.S D B J G H H o C V V $               ",
"                j.H H n & D D D F D F K } Z.8.-.d.d.s.:.} u.6.S C D G J H H H o C F F               ",
"              > x.H H < D D D F D F F % } 8.7.-.u.u.t.:.} >.&.B.H C G J n J G H D G F -             ",
"            > z.c.: C D D D C H F L e U >.} o.X.:.:.6.} A.} 1.| b n B C C C G C C 1 n.L @           ",
"            j.C C & C G C D G G K 6 e U :.} o.X.:.:.-.X.Z.X.+. .n b m.C C C C C C . C G b.          ",
"          > C C t H B G H J G b 5 q ; P ;.} o.X.:.:.:.:.} ;.$.} r r z B B C B B B C 0 D C ,         ",
"          G V M J H H H H G j.4 1 -.q U u.} o.X.8.y.1.u.} :.;. .n M l s c.k.B B C C G C V C @       ",
"        X M V & H H H k.c.c.4 . p g g U u.} 1...:.;.2.8.>.} 1.| c z B * x B H j.C C G , V V V       ",
"    - , - , ; - : : m.b.b.: : 9 g g g Y u.} 1.3.#.-.5.o.r.} 2...c c z M | e M.H F : 1 , , , , , , , ",
"3 8 K j.C C C B n D M F 6 : 6 z h g h Y s.} 1.f.p.9.0.:.o.p.i. .c c v b V : u J K C C D C C F F D M.",
"3 c.D C C C C B D B V D b.. 7 d h h g I :.} o.y.8.u.;.;.} A.h. .u v b b v , r J D C D D K C C C D M.",
"3 c.C C G C D C B C V A b.. h d h h c / -.:.*.-.;.;.>.-.X.,.q.{ u Z z n b ; e K C C C D C F F K F m.",
"3 x.D D D 9.D C D B A C y 5 h c M z z i } :.,...s.s.6.} s.7.2.N u <.b b b n . m.C F H C C 9.9.C F M.",
"3 c.D G 9.D 9.D D D C F X 7 z h h c h 6 } o.@.6.1.1.2.7.u.} } N u n z b c c b c.C C F F K 9.C 9.F m.",
"8 b.G G 9.z.9.D G D K z.. 7 c z c A h i } ;.-.-.u.u.t.;.} :.#.N u n c c c c b m.C G G H K 9.j.9.H m.",
"3 m.G G K 9.K H H H D z.X 7 c c c n Z k } r.6.#.:.:.#.} :.-.+.m u Q c c c c b m.F H F F K 9.K K H M.",
"3 m.H H K H H H H F H H o 7 b c c b C a ( #.=.5.#.#.@.2.s.} T c ~ g.Q c c c z m.F H H G L K K K K M.",
"3 m.z.K H K K H H H F H X 7 b v b n n a v W R =.7.7.e.,.1.W M n Q f.B c c l z n.D G G K K K K K H M.",
"3 N.K K H H H H H H ; & + 7 n M M M n a n n E $.:.:.;.;.} M M M g n c z l d . : 1 H H j.K K V j K m.",
"3 N.N.N.M.m.m.M.4 7 K H x.7 M M B B n s n n n ( $.-.O._ M M M M s n n c z z o k.H 1 8 9 m.M.m.M.M.m.",
"8 z z z p s p 1 z.k.D A C - M B M n b d n n n B ' ' ` n M M M M g n n n l 7 M V C H r w y p p p s c ",
"3 z y p 3 3 2 > m.D D D D D < M B n n g D D D D D D F F D D D M g n n n - n V C M V x.4 3 1 3 2 p h ",
"3 l y o C C v h q D D D D D J 0 M C n a s a a a a g a f a a a a c n n r f C H C C V y v B J K z.p l ",
"X X o X x.C M V + z.G D G G G x.< M B n D D D D D D D M M M n D V n - f K C C C C x.X C D D J y X X ",
"        6 C C C M q c.G H H G G D - A D v M n M M n M M n D n n n - F F G G G H c.4 c V C C x.X     ",
"        q z.C C n $ s c.m.H H H D D @ & M n M M M M A n V n n > > H G D H J H C 4 O c V k.j.4 X     ",
"        O j.D C C $ s s q k.H H D D D M - M M M V A v v n n n V G H K G H H J j.5 O v V H j.4       ",
"          p z.8 c.: + z h c.k.H F D D D M F F L F K D F D > V D H H G K H z.q 7 # g n 1 c.5 X       ",
"          o : z.C c.x.% h h m.H F F F D t K F L F F D D D D < F G H H H m.z q 7 f n n M # #         ",
"            : c H C C M v j s v b.F F D F F F F F F D D D D V D G H b.f q q * h V V M e #           ",
"            o d k.C C H H $ s g f b.M.F L F F F F F F F F D L D j.c.q e q % v C V V D : X           ",
"              X l z H H H x.0 $ i i i 0 L F F L L 9.9.F F F L 2 r r q * : V v V M 5 4 X             ",
"                l l j.k.j.k.J D X X r 3 b.K L H 9.b.M.F H F M.< 0 9 X J K V V M G 5 4               ",
"                  . s s s m.D C D n n V m.K L H 9.M.L F K K b.a v D M G F K x.6 6 .                 ",
"                    X s l b m.B C C n n M.L L L L L K K H H N.u v D F F x.s * 5 .                   ",
"                      X p n p m.m.C n n N.K K K L K K L H H N.u v A b.b.5 : * .                     ",
"                          X p p y y e 7 c b s s a a d p c z z ; 2 9 9 2 : .                         ",
"                            X y y y e 7 c s s s g s s p y y z ; 2 2 6 : .                           ",
"                                  X X X z s p p y y p p y y z . . X                                 ",
"                                        z q q 6 y e 9 e y q z                                       ",
"                                        X e 9 9 9 9 9 9 9 9 .                                       ",
"                                        X X . . . . . . . . .                                       "
};
