/* XPM */
static char *f7dbee8ae31a4ec9f3569536aa70263dJss2lmVV5V1qsZzm[] = {
/* columns rows colors chars-per-pixel */
"50 50 152 2 ",
"   c None",
".  c #4C2611",
"X  c #4E2913",
"o  c #512B14",
"O  c #512E19",
"+  c #54321D",
"@  c #5C341E",
"#  c #543523",
"$  c #593721",
"%  c #563926",
"&  c #5C3B26",
"*  c #573C2B",
"=  c #5D3E2A",
"-  c #56412F",
";  c #5E412C",
":  c #5C4432",
">  c #5E493C",
",  c #61432E",
"<  c #624632",
"1  c #634A36",
"2  c #624B3C",
"3  c #66513D",
"4  c #69533F",
"5  c #5C4E41",
"6  c #5E5144",
"7  c #53574A",
"8  c #5F5449",
"9  c #635444",
"0  c #695445",
"q  c #665844",
"w  c #6C5A47",
"e  c #625649",
"r  c #695649",
"t  c #645A4E",
"y  c #6B5B4A",
"u  c #725E4C",
"i  c #655D53",
"p  c #6A5E50",
"a  c #6D614F",
"s  c #666155",
"d  c #6C6355",
"f  c #6C655A",
"g  c #6E685C",
"h  c #726556",
"j  c #706659",
"k  c #726B5D",
"l  c #7B6A5B",
"z  c #5F6B64",
"x  c #6F6961",
"c  c #736D62",
"v  c #68796D",
"b  c #767265",
"n  c #7A7365",
"m  c #777368",
"M  c #7A766A",
"N  c #73796F",
"B  c #7D7A6D",
"V  c #7F7C71",
"C  c #807B6E",
"Z  c #817E72",
"A  c #6F8077",
"S  c #65827A",
"D  c #858275",
"F  c #898477",
"G  c #868479",
"H  c #89867A",
"J  c #858A7C",
"K  c #8C897C",
"L  c #918C7F",
"P  c #39B5BC",
"I  c #559F9E",
"U  c #5B9B98",
"Y  c #698F89",
"T  c #7F8C82",
"R  c #629690",
"E  c #6B9F99",
"W  c #55A09F",
"Q  c #43A4A6",
"!  c #4FA2A2",
"~  c #44B1B5",
"^  c #40BABF",
"/  c #61A2A1",
"(  c #3BB8C0",
")  c #47BDC0",
"_  c #33C4CE",
"`  c #3BC3CC",
"'  c #32C7D1",
"]  c #3CC6D0",
"[  c #31CAD4",
"{  c #3FC8D2",
"}  c #30CED9",
"|  c #2FD3DE",
" . c #31D1DC",
".. c #3AD2DC",
"X. c #2FD5E1",
"o. c #2ED9E5",
"O. c #2DDFEB",
"+. c #30D7E2",
"@. c #39D7E2",
"#. c #30DAE4",
"$. c #3CDAE4",
"%. c #2CE5F1",
"&. c #2CE8F5",
"*. c #35E6F2",
"=. c #3AE5F1",
"-. c #4EC5CB",
";. c #40C7D1",
":. c #45CBD5",
">. c #4CCDD6",
",. c #50CFD7",
"<. c #4CD2DC",
"1. c #54D1DA",
"2. c #5AD2DA",
"3. c #63D7DF",
"4. c #6CD7DF",
"5. c #77E2D9",
"6. c #42DFEA",
"7. c #4CDFE9",
"8. c #5DDDE6",
"9. c #51DFE9",
"0. c #58DEE8",
"q. c #65DBE3",
"w. c #6CDBE3",
"e. c #74DAE1",
"r. c #45E2EE",
"t. c #4CE1EC",
"y. c #51E0EA",
"u. c #42E8F3",
"i. c #818C82",
"p. c #898F83",
"a. c #8F8C81",
"s. c #8E8C81",
"d. c #938F83",
"f. c #908D83",
"g. c #928F85",
"h. c #918E83",
"j. c #8F958B",
"k. c #929083",
"l. c #939085",
"z. c #969387",
"x. c #939186",
"c. c #959288",
"v. c #979488",
"b. c #959388",
"n. c #99968A",
"m. c #9A988E",
"M. c #8BBAB9",
"N. c #86E2E9",
"B. c #92E5EB",
"V. c #99E7ED",
"C. c #95E8EE",
"Z. c #9BE8EE",
/* pixels */
"                                        G Z B F G G J F F B 1                                       ",
"                                        K G F G G K F F F F B                                       ",
"                                        a.F F K K v.v.K F F k.                                      ",
"                                  & & , a.F K p._ _ 5.J K K k.X + &                                 ",
"                                < Z Z Z a.F A } &.&._ ` J F k.d n B =                               ",
"                            Z D D & & & K K _ &.r.r.&.%.E K k.& & = D D F                           ",
"                        h l F h w F F F / ^ 3.q.` ] q.q.-.J x.F G H u l F $                         ",
"                    < H D D $ b D D J J +.&.w.' &.&._ ' | _ j.F G G H H < Z M M ;                   ",
"                , s.G G F D D D D D @.D <.q._ &.*.*.[ [ %.&._ D D Z H H H H o C Z C &               ",
"                s.H H M $ D D D F F F p.[ +.+.t.,.,.t.7...X._ D A D H H H H H O C G Z               ",
"              $ s.H H 1 D D D F D F G - X.%.q.` q.3.` { :._ _ x.G D G G M H D G G F Z @             ",
"            , s.g.2 Z D D D D F J K i z o.&.w.[ &.w.' [ 9.q._ N ) M V Z Z Z G D Z 2 z.L @           ",
"            s.Z Z & Z D Z D H G K 8 i _ %.O.[ =.=.&.&.%.$.u.q.( m m c.D Z Z Z Z Z X Z G L           ",
"          , Z Z a H Z G G G G b e 8 - _  ._ y.w.N.9.&.%.e.Z.&.P y t c Z V Z V V Z Z u Z Z <         ",
"          G C B H s.G G H G s.5 5 X q _ :._ w.B._ _ &.&. ._ C.( M B x x g.s.V V Z Z D Z Z Z o       ",
"        X B C & H H G s.c.c.5 . t j k _ >._ w._ &.w.] ;.:._ w.( b c M 7 f V H H G Z G < Z Z Z       ",
"    ; < ; , , : 2 2 z.z.j.> 5 3 v k h _ >._ y._ =._ 4.q.| } y.P c b b B s t v.K D > > , < < < < < < ",
"4 0 H H Z Z Z V M C C F 6 > 8 g S k k _ .._ %._ r.#.r.r.#.&...P b b b M C : t K K D D D Z Z F F D n.",
"4 g.Z G Z Z Z V Z Z C D k.X 9 c k k k _ | _ &._ &.&.&.%.#.&.' P p b m m M < t K Z Z D D F F F F D v.",
"4 g.D Z G Z D Z Z Z D A k.. c k k k c _ | _ &.' &.=._ ;.2.' *.P p n b m M : t K D Z D D Z F Z Z D v.",
"4 g.D D D 5.D V D Z V D i 6 c g B b c P { ;.#. .r.w.} ..<...2.! p n b m M m . c.Z Z H Z F 5.5.F F v.",
"4 g.G D 5.D 5.D D Z D G . 3 k b g b c s 1.w._ *.w.4.&.%.<.y._ n s b b b b b b c.Z F G F F 5.Z 5.F v.",
"4 x.G G 5.a.5.G G D s.s.X 9 b b b D k s 4.Z.` &.&.&.&.%.1.q._ n M.b m c b b m c.Z F G H H 5.d.5.H n.",
"4 c.G H s.5.K G G D D s.X 6 b b b b k s ,.y.4._ &.&.&.%.o.&._ n d b m b b m b c.F G F G H 5.K K K n.",
"4 c.H H H H K H H G H H o 9 b b b b D s ( o.9. .o.&.o.o.| o.! n f m n m b b b c.F H H H L H K K K v.",
"4 c.a.H K H H H H H H H X 9 M b M M M d A _ &.8._ &._ ' | _ B B j M n b b x c c.D D G K K L K F K v.",
"4 m.a.a.H K K H H G : & O 9 m B B B M f B M _ &.q.w.&.%.R B B B f M c m k k X > 2 K K K K K M C K v.",
"4 m.m.m.c.c.v.c.2 9 f.L f.0 C B B V M g M M ~ O.O.O.O.o.Y B B B j M M c x c X K H 2 r 0 c.c.c.c.v.v.",
"0 c c c s d f 2 a.s.D Z Z ; B V V m m k M M B ! W W W U B B B B j M M M k 9 Z M V K r r p i i d s c ",
"4 c s s 0 4 1 , c.D D A D D 1 B B N B d Z D D D D D D D D D A B j M M M ; M C Z M Z s.0 9 9 4 4 s c ",
"4 g i o D C M c 9 D D D D D H y B Z m d f d d d d h d h d d a h c M M y h Z G Z Z M i n V G s.g.s c ",
"X o X X h.C B C + a.J G G D G h.1 B B B D D D D D D D B B B B F V M ; h K Z Z G Z s.X Z D Z G i X X ",
"        e Z Z V V e g.G H G H G D ; A C C n B B B B B B M D M M B ; G F G G G G s.5 c Z G Z f.X     ",
"        8 a.Z Z M $ f c.c.G H H F D @ , B B n B B B B M B B M ; ; F G D G H s.G 5 O n C G s.5 X     ",
"        X a.D Z Z $ g f t G H s.D D D B & B B B M B B M B M M B G H K G H G H s.6 O n V H s.5       ",
"          d s.0 g.> O c k c.H G F D D D C F H L K K D F D , C D H G H K H a.e 9 # j M 2 g.5 X       ",
"          X > g.Z s.f.$ l l c.H K F D D u K K L F F F D D D 1 D G H H H c.c e 9 h M M M # +         ",
"            > c G G Z Z n c g b k.F F D F F F F F F D F D D C D G H x.g e e * k C C C t #           ",
"            O g s.G Z G G $ f f d k.z.F L F H F F F F F D D L D s.g.e r e % n C C C D 5 X           ",
"              X x x H H H h.y @ j u w w L F F H L 5.5.F F D v.3 y y e * 2 B M C C 6 5 X             ",
"                f g s.s.s.s.s.V o o w q h.L K K 5.z.z.F H F x.1 w w X J K C C B D 6 5               ",
"                  . g f f a.D Z D M n B x.K L H 5.z.L K H K v.d n D B G F K h.8 8 X                 ",
"                    X g f m c.V Z Z B M n.K L L L L K H K F n.d b D F F h.f * 6 X                   ",
"                      X f N f c.x.Z M n m.L K L H L L H L H m.p n D k.k.6 > * .                     ",
"                          X s s i i t e m m f g j g f d c c c : 2 q 3 6 > .                         ",
"                            o i i i t 9 c f f f d f d s s s c : 3 q 6 3 .                           ",
"                                  X . X c f d i i t s i i i c X X X                                 ",
"                                        c e e 8 i i q i i 8 g                                       ",
"                                        X r q q q q q q q q X                                       ",
"                                        X . . X . . . . . . .                                       "
};
