/* XPM */
static char *cd3da54eb348414fc9fddd8854afa933kWHs1a4yz2Zrk4ag[] = {
/* columns rows colors chars-per-pixel */
"50 50 150 2 ",
"   c #4C2611",
".  c #4E2913",
"X  c #512B14",
"o  c #512E19",
"O  c #54321D",
"+  c #5C341E",
"@  c #543523",
"#  c #5A3721",
"$  c #563926",
"%  c #5C3B26",
"&  c #573C2B",
"*  c #5D3D2A",
"=  c #5E412C",
"-  c #5C4432",
";  c #5E493C",
":  c #61432E",
">  c #624632",
",  c #634A36",
"<  c #624B3C",
"1  c #66513D",
"2  c #69533F",
"3  c #686536",
"4  c #657535",
"5  c #6B773A",
"6  c #6C7C3C",
"7  c #5C4E41",
"8  c #455142",
"9  c #5E5144",
"0  c #5F5449",
"q  c #635444",
"w  c #695445",
"e  c #665844",
"r  c #6A5C47",
"t  c #625649",
"y  c #695649",
"u  c #655B4D",
"i  c #6B5B4A",
"p  c #725E4C",
"a  c #655D53",
"s  c #6A5E50",
"d  c #6D614F",
"f  c #676056",
"g  c #6C6254",
"h  c #63635B",
"j  c #6C655A",
"k  c #6E685C",
"l  c #726556",
"z  c #706659",
"x  c #726B5D",
"c  c #7B6A5B",
"v  c #506E67",
"b  c #6F6961",
"n  c #736D62",
"m  c #767265",
"M  c #7B7365",
"N  c #777368",
"B  c #7A7669",
"V  c #72796D",
"C  c #7D7A6D",
"Z  c #6F7D72",
"A  c #7E7C71",
"S  c #807B6E",
"D  c #817E72",
"F  c #6C893C",
"G  c #729F45",
"H  c #74A347",
"J  c #6B837A",
"K  c #74857C",
"L  c #78887E",
"P  c #858275",
"I  c #898477",
"U  c #868479",
"Y  c #89867A",
"T  c #828B7F",
"R  c #8C897C",
"E  c #918C7F",
"W  c #3AAAAE",
"Q  c #3CAFB3",
"!  c #3EB2B6",
"~  c #3FB3B8",
"^  c #499291",
"/  c #5D9895",
"(  c #559F9F",
")  c #698C84",
"_  c #648F89",
"`  c #7B9187",
"'  c #6F9B94",
"]  c #55A09E",
"[  c #4FA2A3",
"{  c #45AEB1",
"}  c #44B2B6",
"|  c #60AAAC",
" . c #41BBC1",
".. c #33C3CD",
"X. c #3AC6CF",
"o. c #33C7D2",
"O. c #3DC6D0",
"+. c #31CAD4",
"@. c #31CED9",
"#. c #2FD2DD",
"$. c #30D0DC",
"%. c #3CD2DC",
"&. c #2FD6E2",
"*. c #2ED9E5",
"=. c #2DDEEA",
"-. c #32D6E1",
";. c #30D9E5",
":. c #2DE1ED",
">. c #2DE6F3",
",. c #2CE8F5",
"<. c #35E6F2",
"1. c #3AE5F1",
"2. c #3DE8F3",
"3. c #4BC3C9",
"4. c #44CAD3",
"5. c #48CCD5",
"6. c #50CFD8",
"7. c #47D3DD",
"8. c #4FD3DD",
"9. c #54D3DB",
"0. c #59D3DC",
"q. c #63D7DF",
"w. c #77E2D9",
"e. c #40DDE7",
"r. c #4CDEE9",
"t. c #5DDDE6",
"y. c #55DEE8",
"u. c #64DBE3",
"i. c #6BDBE3",
"p. c #71DAE2",
"a. c #45E3EE",
"s. c #4CE1EB",
"d. c #51E0EA",
"f. c #43E8F3",
"g. c #8E8C81",
"h. c #918E83",
"j. c #8B9286",
"k. c #939186",
"l. c #959388",
"z. c #99968A",
"x. c #9A988E",
"c. c #899891",
"v. c #92C3C3",
"b. c #93D1D3",
"n. c #87E2E9",
"m. c #8CE3E9",
"M. c #9AE2E7",
"N. c #99E7ED",
"B. c #95E8EE",
"V. c #9BE8EE",
/* pixels */
"H H H H H H H H H H H H H H H H H H H H U D S I U R Y Y Y K : H H H H H H H H H H H H H H H H H H H ",
"H H H H H H H H H H H H H H H H H H H H R U I U U I Y Y P P S H H H H H H H H H H H H H H H H H H H ",
"H H H H H H H H H H H H H H H H H H H H R I U R R z.l.Y R I E H H H H H H H H H H H H H H H H H H H ",
"H H H H H H H H H H H H H H H H H % % : k.U U T w.....` I I E . O % H H H H H H H H H H H H H H H H ",
"H H H H H H H H H H H H H H G H > D P S E I T ~ o.,.,.+.T P k.d M C % H G H H H H H H H H H H H H H ",
"H H H H H H H H H H H H H H D P P L % % R R ' :.,.a.s.,.X.R E = % = P P I 6 H H H H H H H H H H H H ",
"H H H H H H H H H H H 6 l c I l b.f.v.Y R R 3.u.u.X.O.u.q. .| P U U p c P 3 5 5 H H H H H H H H H H ",
"H H H H H H H H H H > U P P % M D M.P Y j...#.o...,.,.+.q.<.;.` T U I Y : P S M : H H H H H H H H H ",
"H H H H H H H H : g.U U P P P S P I P P ..,.>.+.+.<.<.>...t.9.L %.P Y Y Y Y X D P K # H H H H H H H ",
"H H H H H H H H g.Y Y B % P P P P P P R ..-.$.r.s.6.6.d.#.#.$.L A P U U U T U X P P P H H H H H H H ",
"H H H H H H H H g.Y Y , P P P I I I I @ ....4.4.X.q.q.4.u.>.;.c.R P I I B I I I P P I H H H H H H H ",
"H H H H H H : g.h.< D P P P P U P E 3.h ..u.y.o.o.u.,.+.q.>.:.J N M S K P K I D P = E E + H H H H H ",
"H H H H H H g.D D * D U P D U U E 0 f Q d.f.e.:.,.,.1.1.+.:.:.o.N N l.P P C P S K   P P I F H H H H ",
"H H H H H : D D s Y D U Y Y U N 0 0 - W ,.V.n.=.,.d.n.i.d.X.#.o.d i k D C P S S P P 2 P P # H H H H ",
"H H H H H U S C Y Y Y U Y Y g.7 ; . 1 ! B.X.$.>.,...X.m.i...5.X.B C k j E Y K P M P I P P P X H H H ",
"H H H H . C S % Y Y Y g.k.h.v 8 f x k ! i...4.4.O.q.,.o.i...5.X.m m C $ j P R I P P I = P P P P H H ",
"H H : : : : : - ; , k.k.j.; ; e x z z ! d.+.$.q.i.X.1.o.d...5.X.n m J C f u k.Y P ; ; : > > > > > > ",
"2 w Y g.D D D C C P S I 0 ; 0 x x z x ! #.>.;.a.a.*.a.o.<...%.o.m m ) N C - f R R P P I I D D I P l.",
"2 h.D D D D A D D A S P k.. 0 x x x x Q ..>.=.:.>.,.,.o.>...$.o.s m M N B > d R D D P P D I I D P l.",
"2 h.U D P D P A D D S K k.  n x K x x Q <...6.4...<.,.o.,...$.o.s N m N B - u Y D P D P I D I I P z.",
"2 h.P P P w.P P P A D P a q k x v.x m ^ 9.@.7.7.$.i.2.#.=.5.%.{ g m m m N N . l.P D I I D w.w.I I l.",
"2 h.U U w.P w.P P P P P . q m x n M k e X.d.8.:.>.p.q.<...i.9.Z s m m m N m m k.P D U I I w.D w.I l.",
"w h.U U w.g.w.U U P R g.. 9 m n m L x d ..q.0.:.,.,.>.>.X.N.p.V g M m m m m N l.D I I U Y w.h.w.Y z.",
"2 l.U U R w.R U U U P g.  1 m N m m x d ..>.=.:.,.,.>.o.i.u.6.J f m N m N m m l.I U U I R w.Y E R z.",
"2 l.U U R Y Y Y U U Y R . q N N N N P g [ *.&.*.;.,.*.#.d.*.X.V j N M m m m N k.I U U U R R R R R l.",
"2 l.g.R Y R R Y Y U U R . q N N N N M j N ..@.+...,.o.9.>...K B z N N m m x b k.I U U R R E R R R z.",
"2 x.R g.R U Y Y Y Y - $ O q N C C C N z N C _ =.,.i.i.<...C C C z C m m x x . ; < Y R R R R M M R l.",
"2 x.x.x.l.l.l.z.< q g.R g.q C C C C N j C N ) -.:.:.:.:.} C C C z N N m b n . g.Y < w w l.z.z.z.l.k.",
"w n n n f j j , j.R P P A = C A C M C l B B B / ( ] ] ] C C C B z B B N x w D C A Y y y a a f f g m ",
"2 n a f 2 2 , : l.P P P P P , C K M B z P P U P P P I I P P P C z B B B * B B A C D g.w 1 q 2 2 f m ",
"2 n a X D D C x 9 P P P P P Y i C P B j g g j g j j g g l d g z n M B i z D P D D C a M A Y Y h.f k ",
".   . X h.D C C O h.U U U P I h.> S S N P D P P P P I B C C M L D B = z Y P P U D g.  D P P Y a . . ",
"H H H H 0 D D D B t h.U U U Y U I : K P M M K M S M C C C P C C B = I P Y Y U U g.7 M D D U h.  H H ",
"H H H H t g.D D B # j l.l.U Y Y P P + % M P M C M P K M C M B = = Y Y P Y Y U U 7 O n D U h.7 . H H ",
"H H H H o g.P D D # b j t g.Y g.P P P C = C C C M S S S M C B S Y Y Y T Y Y Y g.7 o M A U g.7 G H H ",
"H H H H H f g.w h.< o n x l.U U I P P P M E I E R I P P P : S P U Y Y U Y g.t q @ z B ; h.7 . H H H ",
"H H H H H X ; h.U h.h.# x x l.Y Y P P P p I R E I I I P P P , P U Y Y Y l.n t t l M M S @ o H H H H ",
"H H H H H F ; n D D D D S l z M k.P I P I I I I I I P P P P P P U Y h.z t y & l D S S u @ 4 H H H H ",
"H H H H H H . k g.U D U U # j z l k.k.R E I I I I I I I P P E P h.k.t u q $ N D S S P 7 o H H H H H ",
"H H H H H H H . b n Y U Y h.y + g p p r E I Y Y E w.w.I I I l., i y e & ; C B S C 7 7   H H H H H H ",
"H H H H H H H H b j g.g.g.g.Y D   X r e k.R Y E w.z.E R Y Y l., r r X U Y S S C U 7 7 H H H H H H H ",
"H H H H H H H H G   b j h h.D U P C C M l.E E R w.z.E I Y Y l.g M P S U U R h.0 t   H H H H H H H H ",
"H H H H H H H H H H . j j N l.D P C B C l.R E R E E R R R Y z.g M P I I h.z $ 9   H H H H H H H H H ",
"H H H H H H H H H H H . b B j k.k.P M B x.E R E E R R E Y Y z.g m A h.h.7 7 &   H H H H H H H H H H ",
"H H H H H H H H H H H H G   h a a a u t m N k k l k k f n n n - 1 e e 9 7   H H H H H H H H H H H H ",
"H H H H H H H H H H H H H H . a a a 0 q m k h g g g f f f f n = 1 q 9 1   H H H H H H H H H H H H H ",
"H H H H H H H H H H H H H H H H H . .   n j g f a a f f a a k       H H H H H H H H H H H H H H H H ",
"H H H H H H H H H H H H H H H H H H H H n q 0 a 0 a 1 f a 0 n H H H H H H H H H H H H H H H H H H H ",
"H H H H H H H H H H H H H H H H H H H H X y y e e e e e e e   H H H H H H H H H H H H H H H H H H H ",
"H H H H H H H H H H H H H H H H H H H H . .                   H H H H H H H H H H H H H H H H H H H "
};
