/* XPM */
static char *_a79391717d8461698ffcf2075998b6dtCBqUblrwBKL84vC[] = {
/* columns rows colors chars-per-pixel */
"50 50 144 2 ",
"   c #4C2611",
".  c #4E2913",
"X  c #512B14",
"o  c #512E19",
"O  c #54321D",
"+  c #5C341E",
"@  c #543523",
"#  c #5A3721",
"$  c #563926",
"%  c #5C3B26",
"&  c #5D3E2A",
"*  c #56412F",
"=  c #5E412C",
"-  c #5C4432",
";  c #5E493C",
":  c #61432E",
">  c #624632",
",  c #634A36",
"<  c #624B3C",
"1  c #66513D",
"2  c #69533F",
"3  c #686536",
"4  c #657535",
"5  c #6B773A",
"6  c #6C7C3C",
"7  c #5C4E41",
"8  c #5E5144",
"9  c #53574A",
"0  c #5F5449",
"q  c #635444",
"w  c #695445",
"e  c #665844",
"r  c #6C5A47",
"t  c #625649",
"y  c #695649",
"u  c #645A4E",
"i  c #6B5B4A",
"p  c #725E4C",
"a  c #655D53",
"s  c #6D614F",
"d  c #666155",
"f  c #6C6355",
"g  c #6C655A",
"h  c #6E685C",
"j  c #726556",
"k  c #706659",
"l  c #726B5D",
"z  c #7B6A5B",
"x  c #5F6B64",
"c  c #6F6961",
"v  c #736D62",
"b  c #68796D",
"n  c #767265",
"m  c #7A7365",
"M  c #777368",
"N  c #7A766A",
"B  c #73796F",
"V  c #7D7A6D",
"C  c #7F7C71",
"Z  c #807B6E",
"A  c #817E72",
"S  c #6B863B",
"D  c #6D8B3D",
"F  c #729F45",
"   c None",
"H  c #6F8077",
"J  c #65827A",
"K  c #858275",
"L  c #898477",
"P  c #868479",
"I  c #89867A",
"U  c #858A7C",
"Y  c #8C897C",
"T  c #918C7F",
"R  c #39B5BC",
"E  c #5B9B98",
"W  c #698F89",
"Q  c #7F8C82",
"!  c #629690",
"~  c #6B9F99",
"^  c #55A09F",
"/  c #4FA2A2",
"(  c #44B1B5",
")  c #40BABF",
"_  c #61A2A1",
"`  c #3BB8C0",
"'  c #47BDC0",
"]  c #33C4CE",
"[  c #3BC3CC",
"{  c #32C7D1",
"}  c #3CC6D0",
"|  c #31CAD4",
" . c #3FC8D2",
".. c #30CED9",
"X. c #2FD3DE",
"o. c #31D1DC",
"O. c #3AD2DC",
"+. c #2FD5E1",
"@. c #2ED9E5",
"#. c #2DDFEB",
"$. c #30D7E2",
"%. c #30DAE4",
"&. c #3CDAE4",
"*. c #2CE5F1",
"=. c #2CE8F5",
"-. c #35E6F2",
";. c #3AE5F1",
":. c #4EC5CB",
">. c #40C7D1",
",. c #45CBD5",
"<. c #4CCDD6",
"1. c #50CFD7",
"2. c #4CD2DC",
"3. c #54D1DA",
"4. c #5AD2DA",
"5. c #63D7DF",
"6. c #6CD7DF",
"7. c #77E2D9",
"8. c #4CDFE9",
"9. c #51DFE9",
"0. c #58DEE8",
"q. c #65DBE3",
"w. c #6CDBE3",
"e. c #45E2EE",
"r. c #4CE1EC",
"t. c #51E0EA",
"y. c #42E8F3",
"u. c #818C82",
"i. c #8E8C81",
"p. c #918E83",
"a. c #928E83",
"s. c #928F85",
"d. c #8F958B",
"f. c #939085",
"g. c #939186",
"h. c #959288",
"j. c #959388",
"k. c #99968A",
"l. c #9A988E",
"z. c #8BBAB9",
"x. c #86E2E9",
"c. c #92E5EB",
"v. c #95E8EE",
"b. c #9BE8EE",
/* pixels */
"                                        I A V I I I L L L H >                                       ",
"                                        Y K I K K I I I I L Z                                       ",
"                                        i.I I K T j.j.I Y L T                                       ",
"                                  % % : T I I Q { ] 7.U L L T . O %                                 ",
"                                > A A A p.L Q | =.=.] [ Y L T j m V %                               ",
"                            A K K % % % T I ] =.e.r.*.-.~ Y T = & = K K L 6                         ",
"                      6 j z K p r L L P _ ) 5.q.} } q.t.:.L g.L I K p z K 3 5 5                     ",
"                    > P K K % m A L U U $.*.w.{ =.=.] | X.] d.I P P L I : K N N =                   ",
"                : i.P P K K K K K L &.H 2.q.] =.-.-.{ | *.=.] K C K P I I U X A K H #               ",
"                i.I I N % K K K L L L i.| +.+.8.1.1.r.r.O.X.] K K A P P P P P X K K K               ",
"                i.I I , K K K L L L P * +.*.q.} 6.5.}  .<.] ] g.I K U I V P P P K K L               ",
"            : i.s.< A K K L K P P Y a x @.=.w.| =.q.{ | r.q.] B ' M C C K C P K K > T T +           ",
"            i.A A % A P A P P P p.t a ] =.#.| ;.;.=.=.*.O.y.t.' M M j.K A A A A H   K K L D         ",
"          : A A s I A P P P P v 8 0 * ] +.` 8.w.x.8.=.*.7.b.=.R i i v C C C A A K K 3 K K +         ",
"          P Z V I P P P I P i.8 7 X e { <.] w.c.] ] =.=...[ v.` M V c g s.I Z Z Z Z A A K K X       ",
"        . V Z % I i.P i.g.s.7   a k k ] <.] w.] =.q.} ,.,.] w.` n n C 9 g A Y Y K L L : K K L L     ",
"  F : > : > - = < , g.g.d.; 8 q b k k [ <.] t.] ;.] 6.q.X...t.R n n n V d u j.U K ; < > > > > > > = ",
"2 w I Y A A A C V H C P q ; 8 l J k k { O.] *.] e.%.e.e.%.=.O.R n n n n N ; u Y Y K K K A L L A K j.",
"2 s.A K A A A A A A V K g.  q l l k l ] X.] =.] =.=.=.*.%.=.{ R i n n N N > i Y A A A K L A A L K j.",
"2 s.A I A A A A A A K V g.  l h l l n { X.] =.{ =.;.] >.4.{ -.R s n M n N - u Y K A K K A L L A I j.",
"2 p.K K A 7.K K A A A P a 8 l n V n n R  .>.%.o.e.w...O.2.O.4./ f n n M M N . g.A A I A L 7.7.I L j.",
"2 s.P P 7.K 7.K P A A P . 1 n h l n h d 3.6.] -.w.6.=.*.2.t.] m i n M n M M M g.A L A I I 7.A 7.L j.",
"w g.K P 7.g.7.K P K Y i.  q M l n K h d 6.b.[ =.=.=.=.*.3.q.] m z.M M M M v M g.A L L Y L 7.p.7.Y j.",
"2 h.P I Y 7.Y P P P P i.. q n M n n n d 1.t.6.] =.=.=.*.@.=.] m f M v v M M M g.I I I A Y 7.L T L k.",
"2 g.P P Y P Y P I I I I . q M M n M P d [ +.9.X.@.=.@.@.X.@./ m g N M M v n M g.A I P L Y Y Y I T j.",
"2 g.p.I Y Y P Y I I P I . q M M M M M f B ] =.0.] =.] { o.] V V f N M n M l v g.I L I Y Y T Y L Y k.",
"2 l.p.Y Y Y Y P P P = % O q N V V V N f V B { -.q.w.=.*.! V V V k N M v l h . ; < Y Y Y Y Y Z Z Y j.",
"2 l.l.l.g.j.j.j.q q i.i.i.q V V C C N k N N ( #.#.#.#.@.W V V V g N N v l v . i.I < w w j.j.j.j.j.j.",
"w v v v f f d < s.Y K P A = V Z V M N g N N V / ^ ^ ^ E V V V N k V N N c q Z Z Z i.y y a a a f f v ",
"2 v a a w 2 , : j.K K B K K , Z C V N g C P P C K K K K K K K H k N N N : M Z A V Z i.q 1 2 w 1 d n ",
"2 v a X A A V l q P K K K K Y r Z Z V f f f f f j f f f f s s j v N N y j A I A Z Z a n C u.P s.d v ",
". . X . p.A V V O i.P P P K I T > H V N K K P K P K K V V V V K Z N : j Y A A A A i.. A C P I a . . ",
"        0 A A A V t s.I P I P P L = B K m V Z N K K m N V K N N N : K K P I P P i.7 n Z A A s..     ",
"        t i.A A V # g j.j.P I I K K # & H N N m m N Z H V N N : = I I K I I I P 8 o n Z I s.7 .     ",
"        . i.A A A # g k t i.I I L K K N + Z Z Z Z Z Z Z N N m Z P I I Y I I I i.8 o n Z I i.7       ",
"          g i.w i.7 O c l s.i.I L K K K K I L T L L K K K : Z K P I Y I I i.t t @ k N < s.7 .       ",
"          . ; i.A s.s.% l l j.P I L L K p L T T L L K K K K , L P I I I j.v t 8 j m N Z @ O F       ",
"          S ; n P A A Z m z k n g.L L K L L L L L L L K K K Z L P I g.k t t = k A Z Z u @ 4         ",
"            X h i.P A I I # g k f s.j.L T L L L L L L L K K T K i.s.t t q $ N Z Z Z A 7 o           ",
"              . c c A I I p.i # j s s 2 j.L L L T 7.7.L L L T 1 i i t & ; Z N Z V 7 7 . F           ",
"                c g i.i.i.i.I A X X i w g.T L T 7.g.g.T Y L j., r r X P Y V Z Z I 7 7               ",
"                F   c g g s.P A A N V N g.Y T I 7.g.g.L L Y g.f m K Z P I Y p.0 0                   ",
"                    . g c M s.A A A N N j.T T T T T T L Y I j.j m K L P p.f $ 0                     ",
"                      . g M g j.g.A N N l.T Y T Y T L T Y L j.f N B p.p.7 7 $   F                   ",
"                        F   g a a a u q M M h g g h f d v v v - 1 e e q 7 .                         ",
"                            . a a a u q v g g g g f g f d d v - , e q 1                             ",
"                                  . . . v g d d a a d a a a v                                       ",
"                                        v q t 0 a u e a a 0 c F                                     ",
"                                        . t e e e e e e e e .                                       ",
"                                        . .   .                                                     "
};
