/* XPM */
static char *_ecd6c23c6274e48f262693ba1bd2ef8RkeV0zeAHPgQZ1tp[] = {
/* columns rows colors chars-per-pixel */
"50 50 139 2 ",
"   c None",
".  c #4C2611",
"X  c #4E2913",
"o  c #512B14",
"O  c #512E19",
"+  c #54321D",
"@  c #5C341E",
"#  c #543523",
"$  c #5A3721",
"%  c #563926",
"&  c #5C3B26",
"*  c #573C2B",
"=  c #5D3D2A",
"-  c #56412F",
";  c #5E412B",
":  c #5C4432",
">  c #5E493C",
",  c #61432E",
"<  c #624632",
"1  c #634A36",
"2  c #624B3C",
"3  c #66513D",
"4  c #69533F",
"5  c #5C4E41",
"6  c #5E5144",
"7  c #5F5449",
"8  c #635444",
"9  c #695445",
"0  c #665844",
"q  c #6C5A47",
"w  c #625649",
"e  c #695649",
"r  c #645A4E",
"t  c #6B5B4A",
"y  c #725E4C",
"u  c #655D53",
"i  c #6A5E50",
"p  c #556056",
"a  c #6D614F",
"s  c #656155",
"d  c #6C6355",
"f  c #6C655A",
"g  c #6E685C",
"h  c #726556",
"j  c #706659",
"k  c #726B5D",
"l  c #7B6A5B",
"z  c #6F6961",
"x  c #736D62",
"c  c #767265",
"v  c #7A7365",
"b  c #777368",
"n  c #7A7669",
"m  c #7D796D",
"M  c #667F76",
"N  c #7F7C71",
"B  c #807B6E",
"V  c #817E72",
"C  c #5C837C",
"Z  c #708073",
"A  c #858275",
"S  c #898477",
"D  c #868479",
"F  c #89867A",
"G  c #858A7D",
"H  c #8C897D",
"J  c #918C7F",
"K  c #3AB4BC",
"L  c #559F9E",
"P  c #678A82",
"I  c #648E89",
"U  c #63948F",
"Y  c #6A9E98",
"T  c #799892",
"R  c #66A19C",
"E  c #4FA3A3",
"W  c #4CAAAD",
"Q  c #5AA2A1",
"!  c #59A8A9",
"~  c #45AFB3",
"^  c #44B1B6",
"/  c #40BABF",
"(  c #51B3B5",
")  c #37BEC6",
"_  c #3BB9C1",
"`  c #44BFC5",
"'  c #37C0C6",
"]  c #33C3CD",
"[  c #3AC6CF",
"{  c #32C7D2",
"}  c #33CAD5",
"|  c #38CAD5",
" . c #30CED9",
".. c #2FD3DF",
"X. c #30D0DC",
"o. c #3AD3DE",
"O. c #2FD7E3",
"+. c #2ED9E5",
"@. c #2EDEEB",
"#. c #34D6E1",
"$. c #31DAE6",
"%. c #2DE1EE",
"&. c #3DE3EE",
"*. c #2DE5F2",
"=. c #2CE8F5",
"-. c #33E6F2",
";. c #3CE4F0",
":. c #43CAD3",
">. c #4BCDD6",
",. c #4ACED8",
"<. c #51CFD7",
"1. c #4AD1DA",
"2. c #54D2DB",
"3. c #5CD3DC",
"4. c #65D5DD",
"5. c #77E2D9",
"6. c #44DBE6",
"7. c #4FDBE5",
"8. c #4ADFE9",
"9. c #5EDEE7",
"0. c #65DAE3",
"q. c #6CDBE3",
"w. c #74DBE2",
"e. c #7BDFE6",
"r. c #43E3EE",
"t. c #4DE1EB",
"y. c #50E0EA",
"u. c #66E0E8",
"i. c #6AE8F1",
"p. c #8E8C81",
"a. c #918E83",
"s. c #939186",
"d. c #959388",
"f. c #99968A",
"g. c #9A988E",
"h. c #8AA39D",
"j. c #85E0E7",
"k. c #84E1E8",
"l. c #9BE8EE",
/* pixels */
"                                        D V m S D D F S F m <                                       ",
"                                        H S S F S G S F F S m                                       ",
"                                        p.F D F J f.d.F F F s.                                      ",
"                                  & & , p.S G ] ] ] ] ) F F s.X + &                                 ",
"                                < V B A J S ] =.-.-.-.%.R F J h v m =                               ",
"                            V A A & & & T R ..O.r.2.2.r.( S J ; = = A A A                           ",
"                        h l S h q S S F ! ] =.] ..] ] -.X./ s.S D D y l S ,                         ",
"                    < F A A & v A A A G O.=.] =.=.*.=.[ r.*.] S D D S F < V n n ,                   ",
"                , p.D D A A A A A S S Z #.-.{ =.=.=.=.| q.w.] A Z S F F F F o V V B @               ",
"                p.F F n & A A B S S S p.2.4.] =.&.t.t.*.4.k.] A h.A D F F F F o V S S               ",
"              ; p.F H < A A A S S S F - #.-.] *.y.u.w.%.3.4.] s.p.N D D n D D D A A V ,             ",
"            , p.s.> V A A A A D S J u [ ,.] l.] 1.=.*.{ X.{ =.K b n V V V V D D V 2 d.J @           ",
"            p.V V & D V D V F D J 7 s ] ..} k.} @.=.=.{ X.] =.K n n s.V V V V V V X V D s.          ",
"          , V V a F V V F F F x 6 7 - ] O.=.] =.*.=.=.{ X.] =.K i t x N V N N N V V t V B <         ",
"          D B m F p.D D F F p.6 6 X 0 ] *.*.] u.1.q.q.{ X.] u._ n %.z f p.p.N N V V D V V V @       ",
"        X m B & F F D p.s.a.p . r j g ] <.] -.4.,.*.=.[ ,.] q.K c x m * f N p.F V A D < B B B       ",
"    , < , , , : > 2 s.s.s.> ' 0 j j j ] >.] 9.} 1.%.@.<.>.] q.K c c c m s r f.F D > 2 < < < < < < < ",
"4 9 F F V V V N n V V S 6 > 6 k k k k ] u.5.X.=.6.w.w.e.>.] r._ c c b b B : r G H V V A V V S V A f.",
"4 a.A A V V V N V V B A s.X 6 k k j k ] i.l.] =.*.q.q.0...] =.K t v c b n < r H A V A A S S S S A d.",
"9 a.V V D V V N V V A Z s.X c k k Z v K t.-.} %.-.*.=.%.+.=.%.^ u c c n v : a H V V V A V S V V A f.",
"4 s.A A A 5.A A A V V A u 6 k k n :.c s :.2.r.] 2.r.r.| r.=.] c i c v b b n X d.V S V F V 5.5.S S d.",
"4 a.D A 5.A 5.A A V V D X 8 c g k k v p ] ] q.3.,.:.:.2.#. .] c d c c c c c b s.V V S S S 5.V 5.S d.",
"4 s.A D 5.p.5.D D A p.p.. 6 c c c A k s ..=.] =.y.q.q.%.$.*.] v s c b b b x b s.V S D F S 5.a.5.S f.",
"4 f.D D H 5.H D D D A p.. 3 c c c c k s } %.=.] O.=.=.%.2.9.] Z C n x x b b b s.F F D F J 5.S p.J f.",
"4 d.F F F F F F F F F F X 8 b b c c V d I ] r.>.o.O.$.>.6.@.E b d n c c b c c s.S D F F H F H S H d.",
"9 s.p.F H H F F F D F F X 8 b b b n n d b P :.;.7.3.3.&.Q Z m m j n n x x x x s.S S D H J J H S H d.",
"4 g.H p.F F H F F F : & + 2 n m m m n f n n ) =.*.=.=.%.U m m m f n b x k g X > 2 F H H F J B B H d.",
"4 g.g.g.d.d.d.f.5 8 H H a.8 B B N N n f n n n ^ | %.%.W m m m m j n n x x x X p.F 2 9 9 s.d.d.f.d.d.",
"9 x x x f s f 2 a.p.Z A N ; m N m b b g n n n m U L L n m m m m j n n n k 8 n V m p.e e u u s s f x ",
"4 x u s 4 4 3 , d.A S A A A 1 m N m m j D V D V A A S A A A A m k n n n ; n V V V n p.9 4 8 4 3 s c ",
"4 x r o A V v k 7 A A A A A D t N m b d f j d d d h h h h a d g x n n t h V V V V B u c N F F p.s x ",
"X X o X a.V n B + a.D A D D S s.1 m m m V V D A A A A n n B B Z B n ; h H V D V V p.X V V D F u X X ",
"        w V V V n w a.F D F D F A , Z B v B n m m m n m m A n m n ; D D D D D D p.5 v B V V a.o     ",
"        w p.V V n $ f s.d.D F F S A @ , m v m m m m m n n B m ; ; D F A D F F D 5 O c V F p.5 o     ",
"        o p.A V V $ z f w p.p.D A A A m , m m m B Z m m v n v B D F F F F F D p.6 O c B F p.5       ",
"          s p.9 s.> O x k d.F D S A A A m S S J H S S A A , B A D p.F F F a.w w % j B : a.5 X       ",
"          X > a.V a.a.$ k k d.F F A S A y H S J S S A A A A 1 S D F F F d.x w 6 h v n n # #         ",
"            > x p.V V m v l g c s.A A S S S S S S S S S A A B A D F s.j w w = k V B B r #           ",
"            O g p.V V F D $ f j h s.s.S J S S S S S S S A A J A p.s.r w w & n V B B A 5 X           ",
"              X z z F F F a.t @ d a a 4 f.S S J J 5.5.S S A f.1 e e 0 * 2 n c B B 5 5 X             ",
"                z z p.F p.p.F A o o t q s.J J S 5.f.s.H H S s.1 q q X G F B B m A 6 5               ",
"                  . g g f s.A V V n n n s.H J S 5.s.J S S H s.d v A m D F H a.7 7 X                 ",
"                    X f f b s.Z A V n n d.J J J J H H H H H g.d v Z S S a.j * 6 X                   ",
"                      X f n f f.s.V n v g.J H H H J H H H S f.i v S a.s.6 > * .                     ",
"                          X f u u u r w c c f g h g f s x c x : 3 0 8 3 > .                         ",
"                            o u u u r 8 c f f f d f f d s u x : 3 4 6 3 .                           ",
"                                  X X X x g s u u u u s u u x X . .                                 ",
"                                        x 8 7 r r r 0 u u 7 g                                       ",
"                                        X w 0 0 0 0 0 0 0 0 X                                       ",
"                                        X X X X . . . . . . .                                       "
};
