/* XPM */
static char *_81b5ac117a04952be04f37034a13750Ddq8vv2i0wIHYrGq[] = {
/* columns rows colors chars-per-pixel */
"50 50 154 2 ",
"   c None",
".  c #4C2611",
"X  c #4E2913",
"o  c #512B14",
"O  c #512E19",
"+  c #54321D",
"@  c #5C341E",
"#  c #543523",
"$  c #593721",
"%  c #563926",
"&  c #5C3B26",
"*  c #573C2B",
"=  c #5D3D2A",
"-  c #5E412C",
";  c #5C4432",
":  c #5E493C",
">  c #61432E",
",  c #624632",
"<  c #634A36",
"1  c #624B3C",
"2  c #66513D",
"3  c #69533F",
"4  c #5C4E41",
"5  c #455142",
"6  c #5E5144",
"7  c #5F5449",
"8  c #635444",
"9  c #695445",
"0  c #665844",
"q  c #6A5C47",
"w  c #625649",
"e  c #695649",
"r  c #655B4D",
"t  c #6B5B4A",
"y  c #725E4C",
"u  c #655D53",
"i  c #6A5E50",
"p  c #6D614F",
"a  c #676056",
"s  c #6C6254",
"d  c #6C655A",
"f  c #6E685C",
"g  c #63635B",
"h  c #726556",
"j  c #706659",
"k  c #726B5D",
"l  c #7B6A5B",
"z  c #506E67",
"x  c #6F6961",
"c  c #736D62",
"v  c #767265",
"b  c #7B7365",
"n  c #777368",
"m  c #7A7669",
"M  c #72796D",
"N  c #7D7A6D",
"B  c #6F7D72",
"V  c #7E7C71",
"C  c #807B6E",
"Z  c #817E72",
"A  c #6B837A",
"S  c #74857C",
"D  c #78887E",
"F  c #858275",
"G  c #898477",
"H  c #868479",
"J  c #89867A",
"K  c #828B7F",
"L  c #8C897C",
"P  c #918C7F",
"I  c #3AAAAE",
"U  c #3CAFB3",
"Y  c #3EB2B6",
"T  c #3FB3B8",
"R  c #499291",
"E  c #5D9895",
"W  c #559F9F",
"Q  c #698C84",
"!  c #648F89",
"~  c #7E8D82",
"^  c #7B9187",
"/  c #6F9B94",
"(  c #55A09E",
")  c #4FA2A3",
"_  c #45AEB1",
"`  c #44B2B6",
"'  c #60AAAC",
"]  c #3EBDC3",
"[  c #41BBC1",
"{  c #33C3CD",
"}  c #3AC6CF",
"|  c #33C7D2",
" . c #3DC6D0",
".. c #31CAD4",
"X. c #31CED9",
"o. c #39CFD9",
"O. c #2FD2DD",
"+. c #30D0DC",
"@. c #3CD2DC",
"#. c #2FD6E2",
"$. c #2ED9E5",
"%. c #2DDEEA",
"&. c #32D6E1",
"*. c #39D7E0",
"=. c #30D9E5",
"-. c #3EDCE7",
";. c #2DE1ED",
":. c #2DE6F3",
">. c #2CE8F5",
",. c #35E6F2",
"<. c #3AE5F1",
"1. c #3DE8F3",
"2. c #4BC3C9",
"3. c #44CAD3",
"4. c #48CCD5",
"5. c #53CED7",
"6. c #50CFD8",
"7. c #47D3DD",
"8. c #4FD3DD",
"9. c #54D3DB",
"0. c #59D3DC",
"q. c #63D7DF",
"w. c #77E2D9",
"e. c #4DD6E0",
"r. c #40DDE7",
"t. c #4CDEE9",
"y. c #57DAE4",
"u. c #5DDDE6",
"i. c #55DEE8",
"p. c #58DEE8",
"a. c #64DBE3",
"s. c #6BDBE3",
"d. c #71DAE2",
"f. c #7ADCE3",
"g. c #45E3EE",
"h. c #4CE1EB",
"j. c #51E0EA",
"k. c #43E8F3",
"l. c #8E8C81",
"z. c #918E83",
"x. c #8B9286",
"c. c #939186",
"v. c #959388",
"b. c #99968A",
"n. c #9A988E",
"m. c #899891",
"M. c #92C3C3",
"N. c #93D1D3",
"B. c #87E2E9",
"V. c #8CE3E9",
"C. c #9AE2E7",
"Z. c #99E7ED",
"A. c #95E8EE",
"S. c #9BE8EE",
/* pixels */
"                                        H V N G H H G H J S >                                       ",
"                                        L G G J J J J J G G C                                       ",
"                                        x.G J J L v.v.J J G c.                                      ",
"                                  & & > P H H J w.| { ^ L G c.o + &                                 ",
"                                , Z C Z z.G J ] ..>.>...K J c.p b N =                               ",
"                            Z F G S & & P L / ;.>.g.h.>.{ J P - & = F F F                           ",
"                        h l F h N.1.M.L J J 2.a.a. . .u.a.` ' G J H y l F $                         ",
"                    , J F F & m F C.F G x.{ +...{ >.>...s.>.=.D K H H J , F C m >                   ",
"                > l.H H F F F C F G F F { >.:.....,.<.>.{ a.9.D *.S G L H H o Z Z C @               ",
"                l.J J m & F F F F G F L { #.@.t.h.6.4.j.+.$.+.D F V G H J J J o C J H               ",
"              $ l.J J < F F F G G G J & { { 3.3.} q.q.3.a.;.$.m.L F H J m J H H H G Z @             ",
"            > l.z.1 Z F F G Z G G L ] g | a.i...{ a.>...s.>.%.A n n Z Z Z Z H F Z 1 v.P @           ",
"            l.Z Z & Z H Z H J J P 7 r Y u.k.-.;.>.>.<.<...;.;...m n v.Z Z Z Z Z Z . Z H c.          ",
"          > Z Z p J Z H H H J c 6 7 ; I >.S.f.;.>.h.B.d.h.{ +.| t t c V V Z Z V Z Z e F C ,         ",
"          H C N J H J H J H l.6 6 X 0 Y A.} X.:.>.{ } V.s.{ 4.} m N x d l.l.Z V V Z G Z Z Z @       ",
"        X N C & l.H H l.c.z.z 5 r j f Y s.{ 3.3.} a.:...s.{ 4.} c c V * d Z J J F F H , C C C       ",
"    > > > > > ; : : c.c.x.: 6 8 f j k ` j...+.a.q.} <.| u.{ 4. .v v A N a p x.J H : : , , , , , , , ",
"3 9 J l.Z Z Z N N Z V J 0 : 6 k k j k Y X.>.=.g.g.=.g.| >.{ o.| b k Q n N ; p L L F Z F Z G G Z F b.",
"3 z.F Z Z Z Z V Z Z V F c.. 8 k k k k U { >.;.;.>.>.>.| >.{ +.| a v v n n , p L Z F F F G Z Z Z F b.",
"9 z.Z F F Z F Z V Z Z V c.. k f S k k U <.{ 6.3.{ ,.>...>.{ +.| t v v n n ; r J Z Z Z F Z G G L G v.",
"3 c.F F H w.F V F Z Z H u 6 k v M.k v R 0.O.7.7.X.s.g.+.%.4.7._ a b n n n m . v.F Z J Z Z w.w.Z G b.",
"3 z.F F w.F w.F F Z Z H X 2 v f k v f r { j.8.;.>.s.s.,.{ q.5.B p b v v n c v v.G Z G G L w.Z w.G v.",
"9 c.H H w.l.w.H F F l.l.. 8 n k n F k r { q.0.;.>.>.>.>.{ Z.d.M a n n c n n v v.Z G H G L w.l.w.L b.",
"3 v.H H L w.L H H H F l.. 8 v n v n k p { >.=.;.>.>.>.| s.a.9.A i n n n n c n v.H H G G L w.L L L c.",
"3 v.J J J J J J J H J L X 8 n n n n F a ) $.#.#.$.>.$.O.j.$.} M s m n n n v n z.F J J J P L L L L c.",
"3 v.l.L L L J J J H H L X 8 n n n n m i m { X...{ >.| 0.>.{ S m f m n c c k c v.G G H L L L L L L b.",
"3 n.L L J J L J J J ; & O 8 n N N N m f m m ! %.>.q.s.,.{ N N N j m c n k k X : 1 J J L L L C b L v.",
"3 n.n.n.v.v.v.v.1 8 l.L z.8 C N N N m f m m Q &.;.;.;.;.` N N m j m m c c c X L J 1 9 9 v.v.v.b.v.v.",
"9 c c c d d d < l.l.S Z Z - N N N m m j m m m E ( ( ( ( N N N m j m m m k 8 m C V l.e e u u a a a c ",
"3 c u a 3 3 2 - v.F G Z F F < C Z m n f Z Z H F F F F F G F F N k m n m - m Z V C m l.9 2 2 3 2 a v ",
"3 c u o F Z m k 0 H F F F F J t C C m s h h s d j s j s s p s j c m m t h Z H Z Z C u n V H J l.a c ",
"X . X X z.C N N + l.H F H H G P , C S m S F F F H F F m N N N F C m - h L Z Z H Z L X Z H H J u X X ",
"        7 Z Z Z m w z.H H H J H F > S F b b C C C b b F m G m m m > H G H J H H l.4 b Z Z H z.X     ",
"        w l.Z Z m & d v.v.H J J F F @ & C S S b b C b b N m m - - J H F J J H H 4 + c C J l.4 X     ",
"        o l.F Z Z $ d d w l.l.H F F F m @ C b C C C S C m m m C H L J L J J J l.6 O v V J l.4       ",
"          a l.9 z.1 + c k v.J J G F F F F G L L G G F F F > C F H J J J J l.w 8 # j m 1 z.4 .       ",
"          X : z.Z l.l.$ k l v.J H G G F y L L L G G F F F F < G H J J J v.k w w h m m m # +         ",
"            : c H H Z C b k k c c.G G F G G G G G G F G F F C G H J v.j w w * h C C C r #           ",
"            O f l.H Z H H $ d k h c.c.G P G G G G G G G G F P F l.z.w w w % m Z C C F 4 X           ",
"              X x c J J J z.e @ s y y q P G G L P w.w.G G G P 2 t t w * 1 C b C C 4 4 X             ",
"                x d l.l.l.l.J F o X q 9 P P L L w.b.c.L G G v.< q q X J J C C N H 6 4               ",
"                  . x d g z.F F F m m N v.L P L w.c.P G L L v.s m F N G J L z.7 7 .                 ",
"                    X d d n v.Z Z Z m m b.P P P P P L L L G b.s v F G G z.j * 6 .                   ",
"                      X d n g v.v.Z m m n.L L L L L L L L G b.s b C x.c.6 : * .                     ",
"                          X a a u u r 8 n n j d h f d a c c c ; 2 0 8 2 : .                         ",
"                            o u u u r 8 c d d d s f d a a u c ; 1 0 7 2 .                           ",
"                                  X X . c d a a u u u a u u c . . .                                 ",
"                                        c 0 7 r u r 0 r u 7 c                                       ",
"                                        X 0 0 0 0 0 0 0 0 0 X                                       ",
"                                        X . . . X . . . . . .                                       "
};
