/* XPM */
static char *f52e5ff2d56a4b40c77c460f802de534Kv9srML4vPD3Sukh[] = {
/* columns rows colors chars-per-pixel */
"50 50 144 2 ",
"   c #4C2611",
".  c #4F2913",
"X  c #512B14",
"o  c #512E19",
"O  c #54321D",
"+  c #5C341E",
"@  c #543523",
"#  c #5A3721",
"$  c #563926",
"%  c #5C3B26",
"&  c #573C2B",
"*  c #5D3D2A",
"=  c #5E412C",
"-  c #5C4432",
";  c #5E493C",
":  c #61432E",
">  c #624632",
",  c #634A36",
"<  c #624B3C",
"1  c #66513D",
"2  c #69533F",
"3  c #686536",
"4  c #657535",
"5  c #6B773A",
"6  c #6C7C3C",
"7  c #5C4E41",
"8  c #5E5144",
"9  c #5F5449",
"0  c #635444",
"q  c #695445",
"w  c #665844",
"e  c #6C5A47",
"r  c #625649",
"t  c #695649",
"y  c #655B4D",
"u  c #6B5B4A",
"i  c #725E4C",
"p  c #655D53",
"a  c #6A5E50",
"s  c #6D614F",
"d  c #676056",
"f  c #6C6254",
"g  c #6C655A",
"h  c #6E685C",
"j  c #726556",
"k  c #706659",
"l  c #726B5D",
"z  c #7B6A5B",
"x  c #5E7268",
"c  c #6F6961",
"v  c #736D62",
"b  c #62746E",
"n  c #767165",
"m  c #7A7365",
"M  c #777368",
"N  c #7A7669",
"B  c #717C6F",
"V  c #7D796D",
"C  c #6E7C72",
"Z  c #7F7C71",
"A  c #807B6E",
"S  c #817E72",
"D  c #6C893C",
"F  c #729F45",
"G  c #74A347",
"H  c #68857D",
"J  c #7B857B",
"K  c #7A887E",
"L  c #858275",
"P  c #898477",
"I  c #868479",
"U  c #89867A",
"Y  c #86897C",
"T  c #8C897C",
"R  c #918C7F",
"E  c #3AAAAE",
"W  c #3CAFB3",
"Q  c #3EB2B6",
"!  c #3FB3B8",
"~  c #5F918C",
"^  c #5C9D9C",
"/  c #658E86",
"(  c #688A83",
")  c #7E8C84",
"_  c #6D9894",
"`  c #7C9A95",
"'  c #65A09D",
"]  c #42A1A3",
"[  c #4FA4A5",
"{  c #44B1B6",
"}  c #4BB5B6",
"|  c #44BABE",
" . c #56B1B1",
".. c #33C3CD",
"X. c #3AC6CF",
"o. c #33C7D1",
"O. c #3DC7D1",
"+. c #32CAD5",
"@. c #3ACBD5",
"#. c #30CED9",
"$. c #31D1DC",
"%. c #38D4DF",
"&. c #2ED9E5",
"*. c #32DAE5",
"=. c #31DDE9",
"-. c #3DDFEA",
";. c #2DE1ED",
":. c #2DE7F4",
">. c #2CE8F5",
",. c #33E6F2",
"<. c #3CE4F0",
"1. c #45C2C6",
"2. c #45CBD4",
"3. c #4BCCD6",
"4. c #53CED7",
"5. c #50CED8",
"6. c #4DD1DB",
"7. c #55D2DB",
"8. c #5CD3DC",
"9. c #6AD8DF",
"0. c #77E2D9",
"q. c #45DAE4",
"w. c #51DAE4",
"e. c #5CDEE7",
"r. c #54DFE9",
"t. c #62DBE4",
"y. c #6CDBE3",
"u. c #68DFE8",
"i. c #74DBE2",
"p. c #42E3EE",
"a. c #4CE1EC",
"s. c #7EE8EF",
"d. c #6EE8F1",
"f. c #71E8F0",
"g. c #8E8C81",
"h. c #918E83",
"j. c #939186",
"k. c #959388",
"l. c #99968A",
"z. c #9A988E",
"x. c #899891",
"c. c #94C3C2",
"v. c #84E1E8",
"b. c #9BE8EE",
/* pixels */
"G G G G G G G G G G G G G G G G G G G G U S A L U U Y L T V > G G G G G G G G G G G G G G G G G G G ",
"G G G G G G G G G G G G G G G G G G G G U U U L U U P P P P V G G G G G G G G G G G G G G G G G G G ",
"G G G G G G G G G G G G G G G G G G G G T U L U T l.l.P P P j.G G G G G G G G G G G G G G G G G G G ",
"G G G G G G G G G G G G G G G G G % % : h.I U | o.......Y P j.  O % G G G G G G G G G G G G G G G G ",
"G G G G G G G G G G G G G G G G > S A S h.U _ ;.,.,.:.>...Y j.s m V % G G G G G G G G G G G G G G G ",
"G G G G G G G G G G G G G G S L P % % % R P  .p.4.4.p.&.$.' ` = % : L L L 6 G G G G G G G G G G G G ",
"G G G G G G G G G G G 6 j z L i e L c.T T | #.,.....&...>... .L I I i z I 3 5 5 G G G G G G G G G G ",
"G G G G G G G G G G > I L L % m S P L P ..,.<.O.>.:.>.>...>.&.) I L U I > L m N : G G G G G G G G G ",
"G G G G G G G G : g.I I L L L L L P L L ..i.y.@.>.>.>.>...,.*.K L S U U I U X S L J # G G G G G G G ",
"G G G G G G G G g.U U N % L L L P L L T ..v.y.;.a.a.p.>...y.7.K S S I U I U I o F L L G G G G G G G ",
"G G G G G G G G g.U U , L L P U P P I % ..y.7.;.y.y.r.>...,.*.x.T S U U Z L I I S S P G G G G G G G ",
"G G G G G G = g.h.< S L L L L I P R p Q >...+.+.>.>.7...b...2.X.M M S S Z L L I S < R R + G G G G G ",
"G G G G G G g.L S * S I S I I I T 9 d Q >...#.+.>.>.;.+.v.+.$.o.M M j.S S S S S S X S S P D G G G G ",
"G G G G G : S S a U S I I I I v 8 9 - E >...#.+.>.>.>.>...:.&...a a c S Z S S S S S i S L + G G G G ",
"G G G G G I A V U U U I U I g.8 ; ;.0 Q y...#.+.9.y.2.y...>.:.+.N A c g g.g.S A S S S S L L X G G G ",
"G G G G . V A % U U U g.j.h.7   d k k Q y...2.X.>.>.3.9.,...2.X.v v V $ b S g.g.S S U , L L L L G G ",
"G G = > : : : - ; ; j.R j.; 8 1 k k k ! y...2.4.&.;.6.#.e...3.X.v n v V X.u j.U L ; < > > > > > : > ",
"2 q U T S S S V V L A P 9 ; 8 l l k l ! p...2.s.i.i.q.>.$.i.u.X.n n N M V ; d Y T L L L P S S P P k.",
"2 h.L S S S S Z A L A L j.. 8 v l l l W >...#.t.9.9.>.>...b.f.o.f n n M m > u T L S L L P P P P L k.",
"q h.L S L S L Z L V J J j.  l l l l l ] ;.>.=.=.:.:.,.;.+.,.a.| u H n N M - y T S S S L S P S S P k.",
"2 h.L L L 0.L S J S S L p 8 v l J l v y ..>.<.@.p.p.7...p.8.2.C a 1.n M M N . j.S P I S P 0.0.P P k.",
"2 h.L I 0.L 0.L A L L L . w v v l m l w ..#.%.7.2.2.3.8.y.....C s M n n n n M k.S S P P P 0.S 0.P k.",
"q j.I I 0.h.0.U I L T T   8 n n n J l s ..:.;.;.y.y.r.:...:.&.C d M n n n n M j.S P I U U 0.h.0.T l.",
"2 k.I I T 0.T I I I L h.  < n n n n H x ..e.7.*.>.>.*...>.;.$.B a ) n M n n M j.P I P U T 0.U T T k.",
"2 j.I T I T I U I I I T X 0 M M M M S f [ &.q.5.&.&.%.2.p...~ N ` d.g.M M n M k.P I Y I T T R P T k.",
"2 k.g.T T U I T T I T U . 1 M M M M M f M ( ^ -.8.8.w.<.2.H V V K s.J c n c c j.P U I T T T T P T k.",
"2 z.R T I T T U Y I - $ O 0 N V V V N g N N / ;.>.:.:.>...V V V k N M v h l . ; < U T T T T m A T k.",
"2 z.z.z.l.k.j.l.< q T U g.0 V V J V N h N N N [ ;.;.@.{ V V V V k N N v c v . g.U < q q j.l.l.l.k.k.",
"q v v v d f g < h.T L L L = V V A M N j N N N V | | } N V V V N k N N N l q V S S U u t p d d d d m ",
"2 v d d q 2 , : k.L L J L L , S A m N k L L L L L L L P L L L V k N N N * N V V V A g.q 1 1 2 1 d v ",
"2 h p X L A N v 9 L L L L L U u V A N f g f f g k f f j f f s h v V N u j S S I S Z p m Z Y Y h.d c ",
"X . . . h.A V A O h.I I L L L R > A J N L L L L L L L V V V N L A N = k Y S I S S g.  Z L L I d . . ",
"G G G G r S S S V r h.I U I I I L = J L m m J m A m m J V L N N N = U L I I I I g.7 v S S U g.. G G ",
"G G G G 9 g.S S V # g j.k.I I g.P L + % m J m A m L A m N V N = = U U L I U U I 7 o m A U g.7   G G ",
"G G G G X g.L S Z # g g r g.U U L L L N % m J A A J m L m V N V I U U U U U I g.8 o m A U g.7 G G G ",
"G G G G G d g.q h.; O v l h.g.U P L L L L P P P P P L L L : A L I U T Y I h.r r $ k N < h.7 . G G G ",
"G G G G G . ; g.S h.h.# l z k.U U P P L i T T R P P L L L L > P I U Y U k.v r 0 j N N A @ O F G G G ",
"G G G G G D ; n U S S S m l v v j.P P P P P P P P P L P L L L P I U j.k r r & l A A A y @ 4 G G G G ",
"G G G G G G X h g.I S I I # g g f j.j.P R P P P P P P P P P R L h.h.r r q $ N S A A S 7 o G G G G G ",
"G G G G G G G . c v I I U h.u + f i s e R P P T T 0.0.P P L R , e u r * ; V m A A 7 7   G G G G G G ",
"G G G G G G G G g c g.g.g.g.U S . . u 2 j.T P R 0.j.j.T T L k., e e X I T N S A S 7 7 G G G G G G G ",
"G G G G G G G G F   c g g h.L L L N V V l.T R T 0.j.j.P U U l.f M L V U I T h.r r   G G G G G G G G ",
"G G G G G G G G G G   g c M j.S L A N V l.T R R R R R T P T l.f m L I U h.j & 7   G G G G G G G G G ",
"G G G G G G G G G G G   g M g k.j.A V N l.T T T T R P R T P k.f m A h.h.7 7 &   G G G G G G G G G G ",
"G G G G G G G G G G G G F   g p p p y r n M g g k g g d v v v - 1 w w 1 7   G G G G G G G G G G G G ",
"G G G G G G G G G G G G G G . p p p 9 0 n g g g k f g d d d v - < w 8 8   G G G G G G G G G G G G G ",
"G G G G G G G G G G G G G G G G G . . . n d f d d d d d p p c       G G G G G G G G G G G G G G G G ",
"G G G G G G G G G G G G G G G G G G G G v 0 9 d 9 9 w y y y h F G G G G G G G G G G G G G G G G G G ",
"G G G G G G G G G G G G G G G G G G G G . r r w w w w w w w . G G G G G G G G G G G G G G G G G G G ",
"G G G G G G G G G G G G G G G G G G G G . .   . .             G G G G G G G G G G G G G G G G G G G "
};
