/* XPM */
static char *_9ffb9e8373a401cee686e2ed5494f9aE8MsXaoImU4MgSaT[] = {
/* columns rows colors chars-per-pixel */
"50 50 155 2 ",
"   c None",
".  c #4C2611",
"X  c #4E2913",
"o  c #512B14",
"O  c #522F1A",
"+  c #54321D",
"@  c #5C341E",
"#  c #543523",
"$  c #5A3721",
"%  c #563926",
"&  c #5C3B26",
"*  c #573C2B",
"=  c #5C3D2A",
"-  c #5E412C",
";  c #5C4432",
":  c #5E493C",
">  c #61432E",
",  c #624632",
"<  c #634A36",
"1  c #624B3C",
"2  c #66513D",
"3  c #69533F",
"4  c #5C4E41",
"5  c #5E5144",
"6  c #5F5449",
"7  c #635444",
"8  c #695544",
"9  c #665844",
"0  c #6B5947",
"q  c #625649",
"w  c #695649",
"e  c #655A4D",
"r  c #6A5C4B",
"t  c #725E4C",
"y  c #655D53",
"u  c #695E50",
"i  c #6E614F",
"p  c #676056",
"a  c #6B6254",
"s  c #6C655A",
"d  c #6F685D",
"f  c #726556",
"g  c #706659",
"h  c #726B5D",
"j  c #7B6A5B",
"k  c #6F6961",
"l  c #736D62",
"z  c #767165",
"x  c #797366",
"c  c #777368",
"v  c #7A7669",
"b  c #7D796C",
"n  c #7F7C71",
"m  c #807B6E",
"M  c #817E72",
"N  c #868376",
"B  c #868277",
"V  c #858276",
"C  c #868475",
"Z  c #878475",
"A  c #878476",
"S  c #878576",
"D  c #868477",
"F  c #878577",
"G  c #848175",
"H  c #888577",
"J  c #898577",
"K  c #898477",
"L  c #858378",
"P  c #868378",
"I  c #878378",
"U  c #868478",
"Y  c #878478",
"T  c #878578",
"R  c #868479",
"E  c #878479",
"W  c #878579",
"Q  c #878479",
"!  c #888478",
"~  c #888578",
"^  c #888579",
"/  c #898579",
"(  c #888678",
")  c #898678",
"_  c #898778",
"`  c #888679",
"'  c #898679",
"]  c #8A8779",
"[  c #88857A",
"{  c #88867A",
"}  c #88867B",
"|  c #89867B",
" . c #8A877A",
".. c #8A867B",
"X. c #89877C",
"o. c #89877D",
"O. c #8A877C",
"+. c #8A877D",
"@. c #89867A",
"#. c #8A8878",
"$. c #8B8878",
"%. c #8A8879",
"&. c #8B8879",
"*. c #8B8979",
"=. c #8A887A",
"-. c #8B887A",
";. c #8B897A",
":. c #8B887B",
">. c #8C897A",
",. c #8C897B",
"<. c #8C8A7A",
"1. c #8C8A7B",
"2. c #8A887D",
"3. c #8B887D",
"4. c #8B897E",
"5. c #8D8A7E",
"6. c #8E8B7E",
"7. c #8E8B7F",
"8. c #8C897D",
"9. c #918C7F",
"0. c #8D8B80",
"q. c #8E8B80",
"w. c #8F8B80",
"e. c #8F8C80",
"r. c #8E8C81",
"t. c #8F8C81",
"y. c #8F8D81",
"u. c #8E8C81",
"i. c #908D83",
"p. c #918F82",
"a. c #928F83",
"s. c #938F83",
"d. c #918F85",
"f. c #928F85",
"g. c #918E83",
"h. c #929083",
"j. c #929084",
"k. c #939084",
"l. c #939086",
"z. c #939186",
"x. c #949186",
"c. c #959286",
"v. c #949287",
"b. c #969387",
"n. c #939186",
"m. c #949288",
"M. c #959288",
"N. c #969488",
"B. c #979488",
"V. c #959388",
"C. c #9A978C",
"Z. c #9A978E",
"A. c #99968A",
"S. c #9A988E",
"D. c #9C9990",
/* pixels */
"                                        { M m Z L { J L &.b ,                                       ",
"                                        O.Z ! ! { { { J J D b                                       ",
"                                        s.D { { i.B.b.#.{ J b.                                      ",
"                                  & & > 9.{ { { u a a { #.{ h.X @ &                                 ",
"                                , M M M 9.{ { $.a h.G &.{ { b.a z m &                               ",
"                            M M Z & & & 9.$.$...5.2.z.&.$.$.k.& - = M K J                           ",
"                        f j Z f 0 K J $.{ $.$.{ { &.&.&.&.&.b.G { ! t f Z -                         ",
"                    , O.P Z & v Z M G { s.{ $.$.$.&.5.$.&.{ b.K ! { { { , Z v v -                   ",
"                > u.P P P Z G M G Z G G , J #.h.b.z.B.m.{ { - G G n L L 2.{ o m M m $               ",
"                t.O...v & M M Z Z Z Z 5.+ C.b.a d d d d Z.D.= M G n L &.{ { D O m Z K               ",
"              = u.O.O.< M Z G J Z Z P % + u a a d s d l l c = V.2.G L L b D L L P Z M >             ",
"            > u.f.1 M M Z Z M D K 9.y y + u a X X + % % e l = v c c G M n G L D M : c.9.@           ",
"            5.M M & M L G G J ! 9.6 y y X X X 3 8 8 0 0 = & & c v c B.G M M M M M X M P 9.          ",
"          > M M t O.G P L L { z 5 6 ; & i i i h h h j z v s 7 4 t e k n n n n n M M 0 M m ,         ",
"          ! m M } } } } { D 5.5 5 X q g d g h g j z z z v l 7 M c b k s m.} n n n M ! M M M o       ",
"        X b b & } } } 2.z.z.4 . e g g h l h h l z z c c v M l l z l n * s M O.O.P P P , M M M       ",
"    , - > - - - : : v.z.v.: : 5 d g h h d h l z z z z z z x z z z z l b s q z.o.C : 1 , , > , , , > ",
"3 8 O.2.G M G b b n n %.5 : 6 l h g g z z l z z z z z z x x z z z z x v b ; y 0.2.G M Z K M K M J V.",
"3 f.M G M M n M M M M M v.X 9 d h g h 9 9 e e 9 i i 9 i p i p i u z z v b , r 2.M M M Z M / ! M G B.",
"8 y.G G M G G n G n M n h.X h h h d z q l z h z z z z z z z v x u z z x c ; r o.M M Z M ! M K Z G C.",
"3 s.Z G G a G G G M M G y 7 h h b z z q z h z z z z x z z x z x u c c c v v . m.M ! ! M ! u u ! Z B.",
"3 f.L G p G p C G G M L X 5 z d l z l 9 z z z x z x z v z z x x u c z z z l z m.M M ! / / a Z a K B.",
"8 B.P P a p.p W L C 0.0.X 7 z z z M l e z v x x x x x x x x x x a v c l c c c m.M ! ! ! / a i.u $.C.",
"3 V.L L &.p 1.W W L L 0.X 5 z z z z l p x x b b x v v v v x x x a l c c c l c m.+.! ! ! :.u :.9.$.B.",
"3 b.L &.{ ..{ { &.L L &.X q z c z c C a v v n v v v x b v v x x u v v c c l z m.P ! O.! 5.5.$...5.V.",
"3 z.t.{ 5.{ O.:.{ { &.&.X 7 c c c z v a v v v b b v b v b x b b g v c l l l k B.M Z ! :.5.5.5.9.5.V.",
"3 S.t.t.O.$.{ ..{ { ; * + 7 x b n b v s v v b v b b b b b b b b s v l l l h X : 4 5.5.0.5.5.x x 5.B.",
"3 Z.S.S.B.V.V.V.1 q 1.4.u.7 b b b n v s v v v v v b b b b b b b h v v c l l X O.+.1 7 8 b.b.B.m.B.B.",
"8 l l l p s s < d.4.G n M - b n n v v s v v v b b v b b b b b v g v v v l 4 m m m +.w w y s u s s l ",
"8 l p p 8 3 < > m.C G G C M : b b v v d G G G G C C C C S C C b g v v v - v m M m m w.8 1 7 2 2 y l ",
"2 k u X G M v l 5 S G G C C #.i b n v s s a s a s a g a a a i h z v v r f M ! M M m y z n 0.0.d.y k ",
"X X X . s.m b b # y.R S S M #.9.< b b v G M C C C C C b b v v C m v - f :.M M M M 0.X M n n 0.y X X ",
"        6 M M M v q f.P } R R } Z > b m b b b v b b b b m M v v v - ! P R R [ [ u.4 x m M M f.o     ",
"        q u.M M v $ s l.B.R O.O.Z G & & b b b b b b b b v m v > - O.[ P R [ [ R 4 O z m +.0.4 X     ",
"        O u.M M M $ d s q R } O.Z G G v & b b b b b v b m v m m ! [ O.[ O.[ [ 0.5 O z m [ u.4       ",
"          p t.8 f.1 O l h m.O.! Z G G G b $.&.5.&.&.Z G M - m M [ O.[ O.[ u.q 7 % f v 1 f.5 X       ",
"          X : f.P u.y.$ j j V.2.{ D K G t ..9.$.{ D M P M P 1 K M 0.:.O.B.l q q f v v b # +         ",
"            : l L P M n v h d z s.J D Z K K K K Z K Z Z M Z M M ! [ s.g q q * f m m b e #           ",
"            O d 0.L M ! { $ s s s h.s.J s.K $.J J J Z P ! M B.M 0.l.e q q $ v M m m G 4 X           ",
"              X k k { ! { s.0 @ f i r 8 s.K ..$.9.a a Z ! K l.1 0 0 q * : v v M m 4 4 X             ",
"                s k 0.0.0.0.2.G o o 0 8 h.$.$.9.a b.b.....{ V.< 0 r X &.5.v m b ! 4 4               ",
"                  . s d s f.L M G v v b b.6.9.$.a k.k...$.$.N.a x G b L J 5.s.6 6 .                 ",
"                    X s s c z.n M M b v C.5.9.9.9.$.$.5.$...V.a x C D D s.s * 5 .                   ",
"                      X s c s m.b.m v v Z.5.5.$.$.9.$.9.$...C.u z n s.s.5 : * .                     ",
"                          X s y y y y 7 c z s d d s s s l l l ; 2 9 7 2 4 .                         ",
"                            X y y u 6 q l s s s s s s u s y l ; 2 9 5 2 .                           ",
"                                  X X . l d p y y e y y y y l . X X                                 ",
"                                        l q q 6 y y 9 y y 6 h                                       ",
"                                        X q 9 9 9 9 9 9 9 9 X                                       ",
"                                        X X X . . . . . . . .                                       "
};
