/* XPM */
static char *_7b1a2617a0149f3844b30ebd3188ccdJRERQaQ0fEi3pij7[] = {
/* columns rows colors chars-per-pixel */
"50 50 138 2 ",
"   c #4C2611",
".  c #4E2913",
"X  c #512B14",
"o  c #512E19",
"O  c #54321D",
"+  c #5C341E",
"@  c #543523",
"#  c #5A3721",
"$  c #563926",
"%  c #5C3B26",
"&  c #573C2B",
"*  c #5D3D2A",
"=  c #56412F",
"-  c #5E412C",
";  c #5C4432",
":  c #5E493C",
">  c #61432E",
",  c #624632",
"<  c #634A36",
"1  c #624B3C",
"2  c #66513D",
"3  c #69533F",
"4  c #686536",
"5  c #657535",
"6  c #6B773A",
"7  c #6C7C3C",
"8  c #5C4E41",
"9  c #5E5144",
"0  c #5F5449",
"q  c #635444",
"w  c #695445",
"e  c #665844",
"r  c #6C5A47",
"t  c #625649",
"y  c #695649",
"u  c #645A4E",
"i  c #6B5B4A",
"p  c #725E4C",
"a  c #655D53",
"s  c #6A5E50",
"d  c #556056",
"f  c #6D614F",
"g  c #656155",
"h  c #6C6355",
"j  c #6C655A",
"k  c #6E685C",
"l  c #726556",
"z  c #706659",
"x  c #726B5D",
"c  c #7B6A5B",
"v  c #6F6961",
"b  c #736D62",
"n  c #767265",
"m  c #7A7365",
"M  c #777368",
"N  c #7A7669",
"B  c #7D796D",
"V  c #7F7C71",
"C  c #807B6E",
"Z  c #817E72",
"A  c #6B863B",
"S  c #6D8B3D",
"D  c #729F45",
"   c None",
"G  c #5C837C",
"H  c #708073",
"J  c #858275",
"K  c #898477",
"L  c #868479",
"P  c #89867A",
"I  c #858A7D",
"U  c #8C897D",
"Y  c #918C7F",
"T  c #3AB4BC",
"R  c #559F9E",
"E  c #678A82",
"W  c #648E89",
"Q  c #63948F",
"!  c #799892",
"~  c #66A19C",
"^  c #4FA3A3",
"/  c #4CAAAD",
"(  c #5AA2A1",
")  c #59A8A9",
"_  c #44B1B6",
"`  c #40BABF",
"'  c #51B3B5",
"]  c #37BEC6",
"[  c #3BB9C1",
"{  c #37C0C6",
"}  c #33C3CD",
"|  c #3AC6CF",
" . c #32C7D2",
".. c #33CAD5",
"X. c #38CAD5",
"o. c #30CED9",
"O. c #2FD3DF",
"+. c #30D0DC",
"@. c #3AD3DE",
"#. c #2FD7E3",
"$. c #2ED9E5",
"%. c #2EDEEB",
"&. c #34D6E1",
"*. c #31DAE6",
"=. c #2DE1EE",
"-. c #3DE3EE",
";. c #2DE5F2",
":. c #2CE8F5",
">. c #33E6F2",
",. c #3CE4F0",
"<. c #43CAD3",
"1. c #4BCDD6",
"2. c #51CFD7",
"3. c #4AD1DA",
"4. c #54D2DB",
"5. c #5CD3DC",
"6. c #65D5DD",
"7. c #77E2D9",
"8. c #44DBE6",
"9. c #4FDBE5",
"0. c #5EDEE7",
"q. c #65DAE3",
"w. c #6CDBE3",
"e. c #74DBE2",
"r. c #7BDFE6",
"t. c #43E3EE",
"y. c #4DE1EB",
"u. c #66E0E8",
"i. c #6AE8F1",
"p. c #8E8C81",
"a. c #918E83",
"s. c #939186",
"d. c #959388",
"f. c #99968A",
"g. c #9A988E",
"h. c #8AA39D",
"j. c #84E1E8",
"k. c #9BE8EE",
/* pixels */
"                                        P B B K P P K K U B <                                       ",
"                                        U P P P L P P K K K B                                       ",
"                                        p.K P K U d.d.K K K Y                                       ",
"                                  % % > p.K I } }  .} ] I K s.. O %                                 ",
"                              D , Z Z C a.K } ;.>.>.>.=.~ K s.l m B %                               ",
"                            Z J J % % % ! ~ O.*.t.2.2.y.' K Y - * * Z J K 7                         ",
"                      6 l c J l r K K P ) } :.} #.} } >.+.` s.K P K p l J 4 6 6                     ",
"                    , U K Z % m Z K J I *.:.} :.:.:.:.| t.:.} K P P P L , K N m >                   ",
"                > p.L L K J J J K K K H @.>.} :.:.:.:.X.w.e.} J H K L L P P X Z J H #               ",
"                p.U P N % J Z J K K K p.3.w.} :.-.y.y.;.6.j.} J h.J L P P P P X J K J               ",
"                p.U U , J Z J K K K K = *.>.} :.y.w.w.=.4.w.} s.p.V L I B L L L J J K               ",
"            > p.a.: Z Z J K Z P K U a } 1.} k.} 2.:.:. .+.} :.T M N Z Z Z Z L J J , Y Y +           ",
"            p.Z Z % L Z L Z L L U t a } O...j...$.:.:. .+.} :.[ N N s.Z Z Z Z Z H   J J K S         ",
"          > Z Z s U Z Z P I L M 0 0 = } #.:.} :.:.:.:. .+.} :.T s i b V V Z V V J J 4 J J +         ",
"          P B B P P P P P L p.8 8 . e } :.:.} w.3.w.w. .O.} w.[ m =.v j p.U Z Z C C K C J J X       ",
"        . B C % P P P p.s.a.d   u x x } 1.} >.6.1.:.:.| <.} w.[ n b V & j Z U P K J J > J J J K     ",
"  D * , * > > ; 1 1 s.s.s.: { e k z z | 1.} 0...3.=.%.2.1.} w.T n x n B g u d.U J : : , , , , , > , ",
"3 w p.U Z Z Z V B Z Z P 0 : 9 x x z x } u.7.+.:.8.e.e.r.1.} t.[ n n N M N : u U U J J J Z Z K Z K d.",
"3 a.L Z L Z Z Z Z V J J s.  q x x k x } i.k.} :.:.w.w.q.o. .:.T i n n M N ; f U J Z J J K K K K J d.",
"3 a.Z J Z Z Z Z V Z H B s.. x k x H b T y.>. .=.>.:.:.%.$.:.=._ h n n M N , u P Z Z Z J Z K Z Z K d.",
"3 a.J J L 7.J Z Z Z Z L a q x n B <.m g <.5.t.} 4.t.t.X.t.:.} n s n M M M N . d.Z J P Z Z 7.7.K K d.",
"3 a.L L 7.Z 7.J L Z Z L   q b k x b x d } } w.5.2.<.<.4.&.o.} n h m n n n n M s.Z Z L K K 7.Z 7.K d.",
"w s.L L 7.p.7.J L J p.p.. q n b n J x g O.:.} :.y.w.w.=.*.:.} m g m M M M b M s.J K K P U 7.a.7.U f.",
"3 d.L L U 7.U P L L L U . 9 n n n n x g ..=.:.} #.:.:.%.4.0.} H G M b b M M M s.K L L K U 7.U U U d.",
"3 s.P P P U P P P P P P X q M n n M Z h W  .t.1.@.#.#.1.8.$.^ N h N M n n n n s.J P P P P Y U K U d.",
"3 s.p.U U P P P P P L P . q M m M m N h N E | ,.9.5.5.-.( H B B h N M n b b b s.L K L U Y P Y K U d.",
"3 g.p.U P U U P P P * % O q m B B B N j N N ] ;.:.:.:.=.Q B B B x N n b b b . : 1 U U U U U C C U d.",
"3 g.g.g.s.d.d.d.8 t p.U a.q C B V V N j N N B _ X.=.=./ B B B B j N N n k b . U P 1 w w d.s.d.d.d.d.",
"w b b b j j j < p.p.J K Z = B V B N M k N N B B W R R B B B B N z N N M b 8 B Z B p.y y a g g g j n ",
"3 b a a 3 3 1 - s.K J H J J < B V N m x Z L L V J J J K J L H B l N N N > N C Z C B a.q 2 2 3 3 g x ",
"3 b a X Z Z N m t J J J J J P i V B M h j h h h h l l h h h l x b B N y l Z Z Z C C a m V P I a.g v ",
"X   X X a.C B N O p.P J K J P a.< V B B Z J J J L J J N B B B J C N > l U Z L Z Z p.  Z J J P g . . ",
"        t Z Z Z N t s.P P P P L J - H C C m B B N B B B B J N B N - K J Z U P p.p.8 n C Z Z s.X     ",
"        0 p.Z Z B # j d.s.P P P J J % > B m B B B B B m B N N - - P I K P P P Z 8 o n C P p.8 .     ",
"        . p.J Z Z # j j 0 p.p.P J J J B > N B B B B B B N N m C L L P P P P L p.8 o n C P p.8 D     ",
"          j p.w a.: o b x s.p.Z K J J J C K K Y K U K J K - C J L U U P P a.t t @ z N 1 a.8 X       ",
"          . : p.Z a.a.% x c d.U P K K J p K U Y K K K J J J : J L U U U a.b t t l N N C @ O D D     ",
"          A : n P Z Z C m x j b Y K K J K K K K K K J J J J J J Z P s.z t t & l C C C u @ 5         ",
"            X k p.Z Z L L # j x l s.s.K Y K K U K K K K J J s.J p.a.u t q $ N Z C C Z 8 o           ",
"              . v b L P P a.y # h f p r Y U K K Y 7.7.K K K s.< r i t & 1 B N C C 8 8 .             ",
"                v v p.p.p.p.U Z X X r w a.Y Y U 7.s.s.Y P K s.< r r   P U N C C Z 9 8               ",
"                D   j j j s.L Z Z C N B s.U Y K 7.s.s.K U U s.h m J C P L p.a.0 t                   ",
"                D   . j v M s.V Z Z N N f.U Y U Y Y K U U K f.h n J L K a.l & 8                     ",
"                      . j M j d.s.Z N m g.Y U Y Y U U Y U K f.h n J a.a.8 8 & . D                   ",
"                        D   j a a a u t n n k j h j j g b b b ; 2 e 2 9 8                           ",
"                            . a a a u q n j j j z j j h g g b ; 1 e 0 2                             ",
"                                    . . b h g a a a a g a a b                                       ",
"                                        b t t g 0 a e u u u k D                                     ",
"                                        . t t e e e e e e e .                                       ",
"                                        . .   .                                                     "
};
