/* XPM */
static char *_cff7328455d4ad39ee89b8818a15754GyVBtK3lG2NKTFia[] = {
/* columns rows colors chars-per-pixel */
"50 50 74 1 ",
"  c #4C2611",
". c #4E2913",
"X c #512B14",
"o c #522F1A",
"O c #54321D",
"+ c #5C341E",
"@ c #543523",
"# c #5A3721",
"$ c #563926",
"% c #5C3B26",
"& c #573C2B",
"* c #5C3D2A",
"= c #5E412C",
"- c #5C4432",
"; c #5E493C",
": c #61432E",
"> c #624632",
", c #634A36",
"< c #624B3C",
"1 c #66513D",
"2 c #69533F",
"3 c #686536",
"4 c #657535",
"5 c #6B773A",
"6 c #6C7C3C",
"7 c #5C4E41",
"8 c #5E5144",
"9 c #5F5449",
"0 c #635444",
"q c #695544",
"w c #665844",
"e c #6B5947",
"r c #625649",
"t c #695649",
"y c #655A4D",
"u c #6A5C4B",
"i c #725E4C",
"p c #655D53",
"a c #695E50",
"s c #6E614F",
"d c #676056",
"f c #6B6254",
"g c #6C655A",
"h c #6F685D",
"j c #726556",
"k c #706659",
"l c #726B5D",
"z c #7B6A5B",
"x c #6F6961",
"c c #736D62",
"v c #767165",
"b c #797366",
"n c #777368",
"m c #7A7669",
"M c #7D796C",
"N c #7F7C71",
"B c #807B6E",
"V c #817E72",
"C c #6D8B3D",
"Z c #729F45",
"  c None",
"S c #858275",
"D c #898477",
"F c #868479",
"G c #89867A",
"H c #8C897C",
"J c #918C7F",
"K c #8E8C81",
"L c #918E83",
"P c #939186",
"I c #959388",
"U c #99968B",
"Y c #9A988E",
"T c #9C9990",
/* pixels */
"                    GMMSGGGDGZ;Z                  ",
"                    HGGGGGGDDDVZ                  ",
"                    JGGGHIIGGFPZ                  ",
"                 %%>JGDDfffGGFP.O%                ",
"              Z >BVBLDGHsLVHVVUjvB%               ",
"              VSS%%%JHDHJHIGLHP%**SSS6            ",
"           5jzDjeSDHGGHGGGHDHHPVGFizS355          ",
"          >HSS%bSSDDPDHDHHHHHHUVFFDG>Smm:         ",
"        =KFFSSSBSSSS>DGPPPIIHG=VVVHGGFoNVZ#       ",
"        KHGm%SSSDDDH+UIflkgxYT=VVVGGGGF.VDS       ",
"        KKH>SSSDDDD$Oaaalglccv*IKNGGmFFFVVD       ",
"      :KK<VVSSSFDHppOpfX o@$uc*mnmVVNNGFV0JH+     ",
"      KSV%VFVSFFJrppX..2qqet*&&mnnIVVVVBV.VVDC    ",
"     :VVaGVGFFFv88-&sssllczcma70auxVNNVVVViVS+    ",
"     GMMGGGVFGK78.wkjllllbvbnvtBmBxgLKBVVVVVSSX   ",
"    .MB%GKGKIP7 yhkllllccbvnnVvccxN&gNKLVVG,SSSS  ",
"ZZ:**:::;9PPP;;0hklllllvvvvbbbvcvcvMpaPHV7<>>>>:>>",
"t<KKSVVBNZNF8;8llklcccbbbbnnbnvvvcmmB;yKKVVVVVVJSI",
"qPVSVVVVVVNSP.0llllwtrttuyuussssavnmb>yHVVVVVJVHSI",
"qLSVSSVVVVNNP.cllhcwbcvcvvvvvvmnincnm-yHVVVGVVHVSI",
"qLVVSaSSVVVVp0ccMvctnccvvvbbvvvvannnvB.IGVHVVjjVDI",
"<PVGdSdSFVVF.0clhvxtnncnvbbmnvbvancnvvvPVVVJVjVaDU",
"qPHGpKdFFFKK.8vcnZnpcnnnbbbbbbbbfnncvnvIVHVVHaPaJI",
"qIDGKpKFFFFK.8vvvnxdnnBBCbmmmbbbfcnnncnIJVHHHaHKHI",
"qPHVJHDDVKVG.0vnnnSfmmMmNNmMmmmmfmnncnvPDHHVHHGJHI",
"qPPVHHGGKVKG.0nnnnnfmmMMnNMmmmMMgmncnxxPDVDHJHKVHI",
"2UJHGGKDGG*&O0nMMMmgmmMmmmMMMMMMjmccxc.<;HGKHHBBHU",
"2UTTIIII7tLLL0BBMMmgmmmMmNMMVMMmgBmnxc.HH;ttPIIIII",
"qcxngag<LKVVV*BVZnnxmMmmMmMMMMMmgnBnx<BBBGttdddddv",
"qnppqq,:UVVVVV,VVNnxFVVFSFSSVFVNjnnn:nBBBBKt;tt<fc",
"qxp.VVBztVFVVFGtBBnjgfgfgjfjfffkxBBtxVVFBBpBFFFPdx",
"  ..KVnBOPFFFFVK;VVnSSVSSSSMMMMSBB%jKVVFVH B SGp..",
"ZS  9VVVN9PFFFFFS:SCVNMMMBMMbVmBm=GVKGVKK7cVVVLX  ",
"ZZ  9KVVB@gIIFGGSS+=NNmBMmMmBBm=%GGDVGKV7onBGL7X  ",
"    oKFZV+xgtFGGSSSm%mNmBBMmBBBVVKHGGGDL7ocBGK7Z  ",
"    ZdKsL;oxxPKGDSSSMGGKHLVVV:BVKVKGGLr8@km<L7XZ  ",
"     X,JFLL$cxPVGSSSiHHHGVSSVD<VVKHGPcrrjmmM@OZ   ",
"     C,vVVVNBzxnPGDDDDDDVGGVGVVVKVLlrr*kBBBy@4    ",
"      XsKFVGG+jjjPIDJDDDHDGDSVIVKLtrr@mVBBV7o     ",
"       .xxGGGLt+fiieJDDHLaaDGDI,ttr*;MmBB77.      ",
"        xgKKKKKVXXeqLJHHsPIDHDI,ee.GHBBBV97Z      ",
"        Z gxpIVVVBmMPHJHfPPDHHPfbSBGDHL9r         ",
"          .gdnIVBVmmIJJJJHHHDGUfbSSGLg&7          ",
"           .gNdIIVmmYJHHHJJJDHUfcSLL77& Z         ",
"              dgppyrnngggggfccc-1ww87             ",
"               pppy8vgggggffdpc-1181.             ",
"                 .  cgdpppdpppc                   ",
"                    crwp9pwpp9xZ                  ",
"                    orttwwwwww                    ",
"                                                  "
};
