/* XPM */
static char *_c3ced3311244b44ce43b8a3dab5355fBkm5B4rROARZkotK[] = {
/* columns rows colors chars-per-pixel */
"50 50 3 1 ",
"  c #5A1F72",
". c #B707E3",
"X c white",
/* pixels */
"XX......................XX......................XX",
"X.                      ..                      .X",
". .                     ..                     . .",
".  .                    ..                    .  .",
".   .                   ..                   .   .",
".    .                  ..                  .    .",
".     .                 ..                 .     .",
".      .                ..                .      .",
".       .               ..               .       .",
".        .              ..              .        .",
".         .             ..             .         .",
".          .            ..            .          .",
".           .           ..           .           .",
".            .          ..          .            .",
".             .         ..         .             .",
".              .        ..        .              .",
".               .       ..       .               .",
".                .      ..      .                .",
".                 .     ..     .                 .",
".                  .    ..    .                  .",
".                   .   ..   .                   .",
".                    .      .                    .",
".                     .    .                     .",
".                      .  .                      .",
"X....................   XX   ....................X",
"X....................   XX   ....................X",
".                      .  .                      .",
".                     .    .                     .",
".                    .      .                    .",
".                   .   ..   .                   .",
".                  .    ..    .                  .",
".                 .     ..     .                 .",
".                .      ..      .                .",
".               .       ..       .               .",
".              .        ..        .              .",
".             .         ..         .             .",
".            .          ..          .            .",
".           .           ..           .           .",
".          .            ..            .          .",
".         .             ..             .         .",
".        .              ..              .        .",
".       .               ..               .       .",
".      .                ..                .      .",
".     .                 ..                 .     .",
".    .                  ..                  .    .",
".   .                   ..                   .   .",
".  .                    ..                    .  .",
". .                     ..                     . .",
"X.                      ..                      .X",
"XX......................XX......................XX"
};
