/* XPM */
static char *result[] = {
/* columns rows colors chars-per-pixel */
"50 50 3 1 ",
"  c black",
". c white",
"X c None",
/* pixels */
"XXXXXXXXXXXXXXXXXXXXXXXXXXXXXXXXXXXXXXXXXXXXXXXXXX",
"XXXXXXXXXXXXXXXXXXXXXXXXXXXXXXXXXXXXXXXXXXXXXXXXXX",
"X    XXXXXXX    XXXXXXXXXXXXXXXXXXXXXXXXXXXXXXXXXX",
" .... XXXXX .... XXXXXXXXXXXXXXXXXXXXXXXXXXXXXXXXX",
" ... . XXXX ... . XXXXXXXXXXXXXXXXXXXXXXXXXXXXXXXX",
"X ... . XX ... . XXXXXXXXXXXXXXXXXXXXXXXXXXXXXXXXX",
"X ... . XX ... . XXXXXXXXXXXXXXXXXXXXXXXXXXXXXXXXX",
"XX ... .  ... . XXXXXXXXXXXXXXXXXXXXXXXXXXXXXXXXXX",
"XX ... .  ... . XXXXXXXXXXXXXXXXXXXXXXXXXXXXXXXXXX",
"XXX ... . ... . XXXXXXXXXXXXXXXXXXXXXXXXXXXXXXXXXX",
"XXX ... .... . XXXXXXXXXXXXXXXXXXXXXXXXXXXXXXXXXXX",
"XXXX ....... . XXXXXXXXXXXXXXXXXXXXXXXXXXXXXXXXXXX",
"XXXX ...... . XXXXXXXXXXXXXXXXXXXXXXXXXXXXXXXXXXXX",
"XXXXX ..... . XXXXXXXXXXXXXXXXXXXXXXXXXXXXXXXXXXXX",
"XXXXX ..... . XXXX      XXXX    XX    XXXXXXXXXXXX",
"XXXXXX ... . XXXX ...... XX ....  .... XXXXXXXXXXX",
"XXXXXX ... . XXX ........ X .. .  .. . XXXXXXXXXXX",
"XXXXXX ... . XX ....   ...  .. .  .. . XXXXXXXXXXX",
"XXXXXX ... . X ... . XX ... .. .  .. . XXXXXXXXXXX",
"XXXXXX ... . X ... . XX ... .. .  .. . XXXXXXXXXXX",
"XXXXXX ... . X ... . XX ... .. .  .. . XXXXXX    X",
"XXXXXX ... . X ... . XX ... .. .  .. . XXXXX .... ",
"XXXXXX ... . X ... . XX ... .. .  .. . XXXXX .. . ",
"XXXXXX ... . X ... . XX ... .. .  .. . XXXXX .. . ",
"XXXXXX ... . XX ....   ...  ....  .... XXXXX .. . ",
"XXXXXX ... . XXX ........ XX ......... XXXXX .. . ",
"XXXXXX ..... XXXX ...... XXXX  .... .. XXXXX .. . ",
"XXXXXXX     XXXXXX      XXXXXXX    X  XXXXXX .. . ",
"XXXXXXXXXXXXXXXXXXXXXXXXXXXXXXXXXXXXXXXXXXXX .. . ",
"XXXXXXXXXXXXXXXXXXXXXXXXXXX    XXXXXXXXXXXXX .. . ",
"XXXXXXXXXX    XX    XX     ....   X    XXXXX .. . ",
"XXXXXXXXX ....  ....  .... .. . .. ....  XXX .. . ",
"XXXXXXXXX .. .  .. .  .. . .... ......... XX .. . ",
"XXXXXXXXX .. .  .. .  .. .      ....  .... X .. . ",
"XXXXXXXXX .. .  .. .  .. . .... .. .  .. . X .. . ",
"XXXXXXXXX .. .  .. .  .. . .. . .. .  .. . X .. . ",
"XXXXXXXXX .. .  .. .  .. . .. . .. .  .. . X .. . ",
"XXXXXXXXX .. .  .. .  .. . .. . .. .  .. . X .... ",
"XXXXXXXXX .. .  .. .  .. . .. . .. .  .. . XX    X",
"XXXXXXXXX .. .  .. .  .. . .. . .. .  .. . X .... ",
"XXXXXXXXX ....  ....  .... .. . .. .  .. . X .. . ",
"XXXXXXXXXX ............... .. . .. .  .. . X .. . ",
"XXXXXXXXXXX  .... ..... .. .. . ....  .... X .... ",
"XXXXXXXXXXXXX    X     X   .. .     XX    XXX    X",
"XXXXXXXXXXXXXXXXXXXXXXXXXX .. . XXXXXXXXXXXXXXXXXX",
"XXXXXXXXXXXXXXXXXXXXXXXXXX .... XXXXXXXXXXXXXXXXXX",
"XXXXXXXXXXXXXXXXXXXXXXXXXXX    XXXXXXXXXXXXXXXXXXX",
"XXXXXXXXXXXXXXXXXXXXXXXXXXXXXXXXXXXXXXXXXXXXXXXXXX",
"XXXXXXXXXXXXXXXXXXXXXXXXXXXXXXXXXXXXXXXXXXXXXXXXXX",
"XXXXXXXXXXXXXXXXXXXXXXXXXXXXXXXXXXXXXXXXXXXXXXXXXX"
};
