/* XPM */
static char *_30fd63df4e945109618eb90c6c407f4SGZlTqMnC6207n9V[] = {
/* columns rows colors chars-per-pixel */
"50 50 5 1 ",
"  c None",
". c black",
"X c #6B8080",
"o c #879F9E",
"O c #A8BBBB",
/* pixels */
"                                                  ",
"                                                  ",
"                                                  ",
"                                                  ",
"                                                  ",
"                                                  ",
"                  ................                ",
"                ..XOooOOOOOooOOOOX..              ",
"                ..XOooOOOOOoOOOOOX..              ",
"                ..XOoOOOOOOOOOOOOX..              ",
"                ..XOooOOOOOOOOooOX..              ",
"                ..XOooOOOOOOOOooOX..              ",
"                ..XOOoOOOOOOoOoOOX..              ",
"                ..XOOoOOOOOoOOOOOX..              ",
"                ..XOOOooOOoooOOOOX..              ",
"                ..XOOOooOoo.oOOOOX..              ",
"                ..XOooOOOo..oOOOOX..              ",
"                ..XOooOOOo.oOoOOOX..              ",
"                ..XOoOOOOo.oOOOOOX..              ",
"                ..XOOOOOOoooOOOOOX..              ",
"                ..XOOOOOOOoOOOOOOX..              ",
"                ....XOoOOOOOOOOX....              ",
"                ....XoooOOOOOoOX....              ",
"                  ..Xo..oOOOooOX..                ",
"                  ..Xo..ooOOo.OX..                ",
"                  ..Xo. .oOo..oX..                ",
"                  ..Xo. .oOo. .X..                ",
"                ..XOOo..ooOo. .ooX..              ",
"                ..XOOoo...oo. .oOX..              ",
"              ..XOOOOOo.. .o. .oOOOX..            ",
"              ..XOOOOO.. .o. .oOOOOX..            ",
"             ...XOOOoo. ..o..ooOOOOX...           ",
"             ...XOOOoo. .ooo.ooOOOOX...           ",
"             ...XOOOooo.oOooooOOOOOX...           ",
"             ...XOOOOOooOOOOOOOOOOOX...           ",
"             ..........................           ",
"                                                  ",
"                                                  ",
"                                                  ",
"                                                  ",
"                                                  ",
"                                                  ",
"                                                  ",
"                                                  ",
"                                                  ",
"                                                  ",
"                                                  ",
"                                                  ",
"                                                  ",
"                                                  "
};
