/* XPM */
static char *_771b9f40c44429bf5ffee11bf82adcdXHpICJNAmx8BcVxn[] = {
/* columns rows colors chars-per-pixel */
"50 50 5 1 ",
"  c None",
". c black",
"X c #6B8080",
"o c #879F9E",
"O c #A8BBBB",
/* pixels */
"                                                  ",
"                                                  ",
"                                                  ",
"                                                  ",
"                                                  ",
"                                                  ",
"                                                  ",
"                                                  ",
"                                                  ",
"                                                  ",
"                                                  ",
"                  ................                ",
"                  ................                ",
"                ..XOOOOOOOOOOOOOOX..              ",
"                ..XOOOOOOOOOOOOOOX..              ",
"                ..XOooooOOOOooooOX..              ",
"                ..XOooooOOOOooooOX..              ",
"                ..XO....OOOO....OX..              ",
"                ..XO....OOOO....OX..              ",
"                ..XO....OOOO....OX..              ",
"                ..XO....OOOO....OX..              ",
"                ..XOooooOOOOooooOX..              ",
"                ..XOooooOOOOooooOX..              ",
"              ....ooOO..OO..OO..oo....            ",
"              ....ooOO..OO..OO..oo....            ",
"            ........oo......OO..........          ",
"            ........oo......OO..........          ",
"            ................oo..........          ",
"            ................oo..........          ",
"           .....oo......oo...............         ",
"           .....oo......oo...............         ",
"           .Xo..OO..oo..OO..oo..oo..oo...         ",
"           .Xo..OO..oo..OO..oo..oo..oo...         ",
"           .XOOOOOOOOOOOOOOOOOOOOOOOOOOX.         ",
"           .XOOOOOOOOOOOOOOOOOOOOOOOOOOX.         ",
"           ..............................         ",
"                                                  ",
"                                                  ",
"                                                  ",
"                                                  ",
"                                                  ",
"                                                  ",
"                                                  ",
"                                                  ",
"                                                  ",
"                                                  ",
"                                                  ",
"                                                  ",
"                                                  ",
"                                                  "
};
