/* XPM */
static char *result[] = {
/* columns rows colors chars-per-pixel */
"50 50 5 1 ",
"  c black",
". c #6B8080",
"X c #879F9E",
"o c #A8BBBB",
"O c None",
/* pixels */
"OOOOOOOOOOOOOOOOOOOOOOOOOOOOOOOOOOOOOOOOOOOOOOOOOO",
"OOOOOOOOOOOOOOOOOOOOOOOOOOOOOOOOOOOOOOOOOOOOOOOOOO",
"OOOOOOOOOOOOOOOOOOOOOOOOOOOOOOOOOOOOOOOOOOOOOOOOOO",
"OOOOOOOOOOOOOOOOOOOOOOOOOOOOOOOOOOOOOOOOOOOOOOOOOO",
"OOOOOOOOOOOOOOOOOOOOOOOOOOOOOOOOOOOOOOOOOOOOOOOOOO",
"OOOOOOOOOOOOOOOOOOOOOOOOOOOOOOOOOOOOOOOOOOOOOOOOOO",
"OOOOOOOOOOOOOOOOOOOOOOOOOOOOOOOOOOOOOOOOOOOOOOOOOO",
"OOOOOOOOOOOOOOOOOOOOOOOOOOOOOOOOOOOOOOOOOOOOOOOOOO",
"OOOOOOOOOOOOOOOOOOOOOOOOOOOOOOOOOOOOOOOOOOOOOOOOOO",
"OOOOOOOOOOOOOOOOOO                OOOOOOOOOOOOOOOO",
"OOOOOOOOOOOOOOOOOO                OOOOOOOOOOOOOOOO",
"OOOOOOOOOOOOOOOO  oooooooooooooooo  OOOOOOOOOOOOOO",
"OOOOOOOOOOOOOOOO  oooooooooooooooo  OOOOOOOOOOOOOO",
"OOOOOOOOOOOOOOOO  XXooooooXXXXoo..  OOOOOOOOOOOOOO",
"OOOOOOOOOOOOOOOO  XXooooooXXXXoo..  OOOOOOOOOOOOOO",
"OOOOOOOOOOOOOOOO    oooooo    oo..  OOOOOOOOOOOOOO",
"OOOOOOOOOOOOOOOO    oooooo    oo..  OOOOOOOOOOOOOO",
"OOOOOOOOOOOOOOOO    oooooo    oo..  OOOOOOOOOOOOOO",
"OOOOOOOOOOOOOOOO    oooooo    oo..  OOOOOOOOOOOOOO",
"OOOOOOOOOOOOOOOO  XXooooooXXXXoo..  OOOOOOOOOOOOOO",
"OOOOOOOOOOOOOOOO  XXooooooXXXXoo..  OOOOOOOOOOOOOO",
"OOOOOOOOOOOOOOOOXXoo  oo  oo  ooXX  OOOOOOOOOOOOOO",
"OOOOOOOOOOOOOOOOXXoo  oo  oo  ooXX  OOOOOOOOOOOOOO",
"OOOOOOOOOOOOOOOO  XX  oo      XX    OOOOOOOOOOOOOO",
"OOOOOOOOOOOOOOOO  XX  oo      XX    OOOOOOOOOOOOOO",
"OOOOOOOOOOOOOO        XX              OOOOOOOOOOOO",
"OOOOOOOOOOOOOO        XX              OOOOOOOOOOOO",
"OOOOOOOOOOOO                            OOOOOOOOOO",
"OOOOOOOOOOOO                            OOOOOOOOOO",
"OOOOOOOOOOOO              XX      XX    OOOOOOOOOO",
"OOOOOOOOOOOO              XX      XX    OOOOOOOOOO",
"OOOOOOOOOOOO  XX  XX  XX  oo  XX  XX    OOOOOOOOOO",
"OOOOOOOOOOOO  XX  XX  XX  oo  XX  XX    OOOOOOOOOO",
"OOOOOOOOOOOO  ooooooooooooooXXXX......  OOOOOOOOOO",
"OOOOOOOOOOOO  ooooooooooooooXXXX......  OOOOOOOOOO",
"OOOOOOOOOOOO                            OOOOOOOOOO",
"OOOOOOOOOOOOOOOOOOOOOOOOOOOOOOOOOOOOOOOOOOOOOOOOOO",
"OOOOOOOOOOOOOOOOOOOOOOOOOOOOOOOOOOOOOOOOOOOOOOOOOO",
"OOOOOOOOOOOOOOOOOOOOOOOOOOOOOOOOOOOOOOOOOOOOOOOOOO",
"OOOOOOOOOOOOOOOOOOOOOOOOOOOOOOOOOOOOOOOOOOOOOOOOOO",
"OOOOOOOOOOOOOOOOOOOOOOOOOOOOOOOOOOOOOOOOOOOOOOOOOO",
"OOOOOOOOOOOOOOOOOOOOOOOOOOOOOOOOOOOOOOOOOOOOOOOOOO",
"OOOOOOOOOOOOOOOOOOOOOOOOOOOOOOOOOOOOOOOOOOOOOOOOOO",
"OOOOOOOOOOOOOOOOOOOOOOOOOOOOOOOOOOOOOOOOOOOOOOOOOO",
"OOOOOOOOOOOOOOOOOOOOOOOOOOOOOOOOOOOOOOOOOOOOOOOOOO",
"OOOOOOOOOOOOOOOOOOOOOOOOOOOOOOOOOOOOOOOOOOOOOOOOOO",
"OOOOOOOOOOOOOOOOOOOOOOOOOOOOOOOOOOOOOOOOOOOOOOOOOO",
"OOOOOOOOOOOOOOOOOOOOOOOOOOOOOOOOOOOOOOOOOOOOOOOOOO",
"OOOOOOOOOOOOOOOOOOOOOOOOOOOOOOOOOOOOOOOOOOOOOOOOOO",
"OOOOOOOOOOOOOOOOOOOOOOOOOOOOOOOOOOOOOOOOOOOOOOOOOO"
};
