/* XPM */
static char *b7e40bdb94724532c34649460a825280AwSaNtkOtoQS3qTi[] = {
/* columns rows colors chars-per-pixel */
"50 50 5 1 ",
"  c None",
". c black",
"X c #6B8080",
"o c #879F9E",
"O c #A8BBBB",
/* pixels */
"                                                  ",
"                                                  ",
"                                                  ",
"                                                  ",
"                                                  ",
"                                                  ",
"                  ................                ",
"                ..XOOOOOOOOOOOOOOX..              ",
"                ..XOOOOOOOOOOOOOOX..              ",
"                ..XOooooOOOOooooOX..              ",
"                ..XOooooOOOOooooOX..              ",
"                ..XO....OOOO....OX..              ",
"                ..XO....OOOO....OX..              ",
"                ..XO....OOOO....OX..              ",
"                ..XO....OOOO....OX..              ",
"                ..XOooooOOOOooooOX..              ",
"                ..XOooooOOOOooooOX..              ",
"                ..ooOO..OO..OO..OX..              ",
"                ..ooOO..OO..OO..OX..              ",
"                ....oo......OO..oo..              ",
"                ....oo......OO..oo..              ",
"                ............oo......              ",
"                ............oo......              ",
"                  ................                ",
"                  ................                ",
"                  ................                ",
"                  ................                ",
"                ....................              ",
"                ....................              ",
"              ..Xo......oo............            ",
"              ..Xo......oo............            ",
"             ...Xo..oo..OO..oo..oooX...           ",
"             ...Xo..oo..OO..oo..oooX...           ",
"             ...XOOOOOOOOOOOOOOOOOOX...           ",
"             ...XOOOOOOOOOOOOOOOOOOX...           ",
"             ..........................           ",
"                                                  ",
"                                                  ",
"                                                  ",
"                                                  ",
"                                                  ",
"                                                  ",
"                                                  ",
"                                                  ",
"                                                  ",
"                                                  ",
"                                                  ",
"                                                  ",
"                                                  ",
"                                                  "
};
