/* XPM */
static char *c017416e25864041d984432675325fc6ivtLROQfDN6MbfWh[] = {
/* columns rows colors chars-per-pixel */
"50 50 5 1 ",
"  c None",
". c black",
"X c #6B8080",
"o c #879F9E",
"O c #A8BBBB",
/* pixels */
"                                                  ",
"                                                  ",
"                                                  ",
"                                                  ",
"                                                  ",
"                                                  ",
"                                                  ",
"                                                  ",
"                                                  ",
"                                                  ",
"                                                  ",
"                  ................                ",
"                  ................                ",
"                ..XOOOOOOOOOOOOOOX..              ",
"                ..XOooOOOOOOOOOOOX..              ",
"                ..XOooOOOOOOOOooOX..              ",
"                ..XOOoOOOOOOOOooOX..              ",
"                ..XOOoOOOOOOOOoOOX..              ",
"                ..XOOOOoOOOOOOOOOX..              ",
"                ..XOOOooOOOooOOOOX..              ",
"                ..XOOOooOOOooOOOOX..              ",
"                ..XOOOOOOOOooOOOOX..              ",
"                ..XOoOOOOOOoOOOOOX..              ",
"              ....XOooOOOOOOOOOOOX....            ",
"              ....XOo.ooOOOOOOOOOX....            ",
"            ...XOOOOOo.oOOOOOOOOOOOOX...          ",
"            ...XOOOOOo.oOOOOOoooOOOOX...          ",
"            .XOOOOOOOOooOOOOoo.oOOOOOOX.          ",
"            .XOOOOOOOOOOOOOoo..ooOOOOOX.          ",
"           ..OooOOOooOOOOOOoo...oOOOOOO..         ",
"           .XOooOOo.oOOOOOOooooooOOOOOOX.         ",
"           .XOoOOo..oOOOOOOOOooOOOOoOOOX.         ",
"           .XOoOOoooOOOooOOOOOOOOOOooOOX.         ",
"           .XOOOOOOOOOOooOOOOOOOOOoooOOX.         ",
"           .XOOOOOOOOOOOoOOOOOOOOOoooOOX.         ",
"           ..............................         ",
"                                                  ",
"                                                  ",
"                                                  ",
"                                                  ",
"                                                  ",
"                                                  ",
"                                                  ",
"                                                  ",
"                                                  ",
"                                                  ",
"                                                  ",
"                                                  ",
"                                                  ",
"                                                  "
};
