/* XPM */
static char *_df607a247c74993dfb27713dad47471R07P7xVbanjkA5WC[] = {
/* columns rows colors chars-per-pixel */
"50 50 5 1 ",
"  c None",
". c black",
"X c #6B8080",
"o c #879F9E",
"O c #A8BBBB",
/* pixels */
"                                                  ",
"                                                  ",
"                                                  ",
"                                                  ",
"                                                  ",
"                                                  ",
"                                                  ",
"                                                  ",
"                                                  ",
"                  ................                ",
"                  ................                ",
"                ..XOOOOOOOOOOOOOOX..              ",
"                ..XOOOOOOOOOOOOOOX..              ",
"                ..XOOOOOOOOOOOOOOX..              ",
"                ..XOooOOOOOOOOOOOX..              ",
"                ..XOooOOOOOOOOooOX..              ",
"                ..XOOoOOOOOOOOooOX..              ",
"                ..XOOoOOOOOOOOoOOX..              ",
"                ..XOOOOoOOOOOOOOOX..              ",
"                ..XOOOooOOOooOOOOX..              ",
"                ..XOOOooOOOooOOOOX..              ",
"                ..XooOOOOOOooOOOOX..              ",
"                ..X.ooOOOOOoOOOOOX..              ",
"              ...Xo..ooOOOOOOOOOOOX...            ",
"              ...Xo. .oooOOOOOOOOOX...            ",
"            ...XOOoo. .ooOOOOooOOOOOX...          ",
"            ...XOOOo.  .OOOoooooOOOOX...          ",
"            ..XOOOOoo..oOOoo.o.oOOOOOX..          ",
"            ..XOOOOoooooOOooo. .oOOOOX..          ",
"            ..XOOOoo.oOOOOooo...oOOOOX..          ",
"            ..XOOoo. oOOOOoo.o.ooOOOOX..          ",
"            ..XOoo. .oOOOOOoo.oOOOOOOX..          ",
"            ..XOo...ooOOOOOOOooOOOOOOX..          ",
"            ..XOOoooOOOOOOOOOOOOOOOOOX..          ",
"            ..XOOOOOOOOOOOOOOOOOOOOOOX..          ",
"            ............................          ",
"                                                  ",
"                                                  ",
"                                                  ",
"                                                  ",
"                                                  ",
"                                                  ",
"                                                  ",
"                                                  ",
"                                                  ",
"                                                  ",
"                                                  ",
"                                                  ",
"                                                  ",
"                                                  "
};
